<?xml version="1.0" encoding="UTF-8"?>
<!DOCTYPE svg PUBLIC "-//W3C//DTD SVG 1.1//EN" "http://www.w3.org/Graphics/SVG/1.1/DTD/svg11.dtd">

<svg xmlns="http://www.w3.org/2000/svg" xml:space="preserve" width="300px" height="368px" version="1.1" style="shape-rendering:geometricPrecision; text-rendering:geometricPrecision; image-rendering:optimizeQuality; fill-rule:evenodd; clip-rule:evenodd"
viewBox="0 0 28.11 34.47"
 xmlns:xlink="http://www.w3.org/1999/xlink"
 >
 <defs>
  <style type="text/css">
   <![CDATA[
    .fil3 {fill:#006847}
    .fil7 {fill:#202020}
    .fil0 {fill:#3880FF}
    .fil5 {fill:#4D2A15}
    .fil4 {fill:#8F4620}
    .fil1 {fill:#CE1126}
    .fil6 {fill:#D2A567}
    .fil2 {fill:white}
   ]]>
  </style>
 </defs>
 <g id="Layer_x0020_1">

  <path class="fil0" d="M16.47 4.17l0.01 4.47c1.4,0.06 2.62,0.82 3.3,1.95 0.13,-0.01 0.26,-0.02 0.4,-0.02 1.46,0 2.75,0.78 3.46,1.96 0.14,-0.02 0.27,-0.03 0.41,-0.03 2.23,0 4.03,1.8 4.04,4.02 0,2.21 0.01,4.43 0.02,6.65 0.01,6.22 -5.02,11.29 -11.25,11.3 -3.2,0.01 -6.23,-1.33 -8.38,-3.7 -0.21,-0.23 -0.42,-0.47 -0.61,-0.73l-6.61 -7.97c-0.07,-0.06 -0.14,-0.13 -0.21,-0.2 -1.46,-1.55 -1.34,-3.87 0.01,-5.46 0.37,-0.43 0.82,-0.77 1.34,-1 1.9,-0.83 4.1,0.07 6.05,1.31l-0.03 -12.53c0,-0.05 0,-0.1 0,-0.15 -0.01,-2.23 1.79,-4.03 4.01,-4.04 2.23,-0.01 4.03,1.79 4.04,4.02 0,0.05 0,0.1 0,0.15zm-4.03 -2.08c1.07,0 1.94,0.86 1.94,1.93 0,0.04 0,0.07 0,0.11l0.02 8.32c0.11,-0.96 0.92,-1.72 1.92,-1.72 1.07,0 1.94,0.86 1.94,1.93 0,0.04 0,0.08 0,0.11l0 1.58c0.13,-0.95 0.94,-1.69 1.92,-1.69 1.07,0 1.94,0.86 1.94,1.93 0,0.04 0,0.07 0,0.11 0,0.44 0.01,1.23 0.01,1.62 0,0.31 -0.01,0.21 0.01,0 0.1,-0.97 0.92,-1.72 1.92,-1.73 1.07,0 1.94,0.86 1.94,1.93 0.01,2.22 0.01,4.44 0.02,6.65 0.01,5.08 -4.09,9.2 -9.17,9.22 -2.7,0 -5.14,-1.16 -6.82,-3.02 -0.19,-0.2 -0.36,-0.41 -0.53,-0.63l-6.74 -8.13c-0.07,-0.05 -0.13,-0.11 -0.19,-0.17 -0.71,-0.76 -0.6,-1.88 0.08,-2.68 1.7,-2 6.04,1.65 7.9,3.09l-0.04 -16.71c0,-0.04 0,-0.07 0,-0.11 -0.01,-1.07 0.86,-1.94 1.93,-1.94z"/>
  <g id="_1407762506576">
   <path class="fil1" d="M24.07 12.5c2.22,0.01 4.01,1.8 4.02,4.02 0,2.21 0.01,4.43 0.02,6.65 0,3.48 -1.56,6.59 -4.04,8.67l0 -2.99c1.23,-1.57 1.95,-3.54 1.95,-5.68 -0.01,-2.21 -0.02,-4.43 -0.02,-6.65 0,-1.06 -0.86,-1.92 -1.93,-1.93l0 -2.09z"/>
   <path class="fil2" d="M16.47 4.17l0.01 4.47c1.4,0.06 2.62,0.82 3.3,1.95 0.13,-0.01 0.26,-0.02 0.4,-0.02 1.46,0 2.75,0.78 3.46,1.96 0.14,-0.02 0.27,-0.03 0.41,-0.03 0.01,0 0.02,0 0.02,0l0 2.09c0,0 -0.01,0 -0.01,0 -1,0.01 -1.82,0.76 -1.92,1.73 -0.02,0.21 -0.01,0.31 -0.01,0 0,-0.39 -0.01,-1.18 -0.01,-1.62 0,-0.04 0,-0.07 0,-0.11 0,-1.07 -0.87,-1.93 -1.94,-1.93 -0.98,0 -1.79,0.74 -1.92,1.69l0 -1.58c0,-0.03 0,-0.07 0,-0.11 0,-1.07 -0.87,-1.93 -1.94,-1.93 -1,0 -1.81,0.76 -1.92,1.72l-0.02 -8.32c0,-0.04 0,-0.07 0,-0.11 0,-1.07 -0.87,-1.93 -1.94,-1.93 -1.07,0 -1.94,0.87 -1.93,1.94 0,0.04 0,0.07 0,0.11l0.04 16.71c-0.47,-0.36 -1.1,-0.87 -1.8,-1.39l0 -17.03c0.62,-1.43 2.03,-2.43 3.68,-2.43 2.23,-0.01 4.03,1.79 4.04,4.02 0,0.05 0,0.1 0,0.15zm7.6 27.67c-1.95,1.64 -4.46,2.63 -7.21,2.63 -3.07,0.01 -5.98,-1.22 -8.11,-3.41l0 -3.23 0.75 0.91c0.17,0.22 0.34,0.43 0.53,0.63 1.68,1.86 4.12,3.02 6.82,3.02 2.94,-0.01 5.55,-1.4 7.22,-3.54l0 2.99z"/>
   <path class="fil3" d="M8.75 31.06c-0.09,-0.09 -0.18,-0.19 -0.27,-0.29 -0.21,-0.23 -0.42,-0.47 -0.61,-0.73l-6.61 -7.97c-0.07,-0.06 -0.14,-0.13 -0.21,-0.2 -1.46,-1.55 -1.34,-3.87 0.01,-5.46 0.37,-0.43 0.82,-0.77 1.34,-1 1.9,-0.83 4.1,0.07 6.05,1.31l-0.03 -12.53c0,-0.05 0,-0.1 0,-0.15 0,-0.57 0.11,-1.12 0.33,-1.61l0 17.03c-2.08,-1.53 -4.83,-3.19 -6.1,-1.7 -0.68,0.8 -0.79,1.92 -0.08,2.68 0.06,0.06 0.12,0.12 0.19,0.17l5.99 7.22 0 3.23z"/>
   <path class="fil4" d="M10.54 17.15c-0.04,-0.01 -0.07,-0.01 -0.1,0.04 -0.04,0.07 0.03,0.15 0.1,0.21l0 -0.25z"/>
   <polygon class="fil0" points="16.83,10.8 16.71,8.66 "/>
   <path class="fil4" d="M19.06 13.02l-0.01 -0.01c-0.04,-0.03 -0.09,-0.06 -0.13,-0.09l0.03 -0.07 0.07 -0.12 -0.01 -0.01 -0.06 0 -0.16 0.03 -0.16 -0.05 -0.32 -0.22 -0.06 -0.03c0.01,0.07 0.01,0.14 0.01,0.21 0,0.04 0,0.08 0,0.11l0 1.58c0.08,-0.55 0.37,-1.03 0.8,-1.33z"/>
   <path class="fil5" d="M18.26 13.3c0.06,0.01 0.11,-0.01 0.15,-0.07 0.06,-0.12 -0.01,-0.14 -0.01,-0.14l-0.14 -0.03 0 0.24z"/>
   <path class="fil6" d="M18.92 13.13c-0.01,-0.01 -0.02,-0.02 -0.04,-0.03l-0.21 0.15 0.07 0.05c0.06,-0.06 0.12,-0.11 0.18,-0.17zm-0.41 -0.07c0,0 0.05,0.03 0.1,0 0.05,-0.01 0.19,-0.19 0.29,-0.21 0.1,-0.02 0.12,-0.02 0.14,0 0.01,0.03 0,0.13 -0.01,0.16 -0.03,0.03 -0.32,0.14 -0.32,0.14l-0.11 -0.01c-0.03,-0.01 -0.06,-0.02 -0.09,-0.03l0 -0.05 0 0zm0.04 -0.24c-0.05,-0.1 -0.12,-0.14 -0.16,-0.14 -0.03,0.01 0.1,0.11 0.13,0.25 0.02,0.15 0.01,0.24 0.01,0.25l0.06 0.01 0.01 -0.05 0.01 -0.04 0 -0.04 -0.01 -0.07 -0.01 -0.06 -0.02 -0.05 -0.02 -0.06 0 0zm-0.29 0.16c0.01,-0.01 0.02,-0.03 0.01,-0.05l-0.01 -0.05 0 0.1zm0 0.41c0.02,-0.03 0.03,-0.06 0.02,-0.08l-0.02 -0.03 0 -0.19c0.02,0 0.05,0 0.08,-0.01 0.07,-0.03 0.16,-0.09 0.16,-0.15 0,-0.05 -0.07,-0.11 -0.07,-0.14l0 -0.04 0.06 0 0.07 0.08 0.01 0.1 -0.03 0.09 -0.1 0.12 -0.1 0.04 -0.03 0 0.06 0.1 -0.01 0.14 -0.1 0.09 0 0 0 -0.12z"/>
   <path class="fil6" d="M18.26 13.76c0.06,-0.01 0.11,-0.04 0.1,-0.11 0,-0.04 -0.04,-0.1 -0.1,-0.17l0 -0.15c0.06,0 0.14,-0.01 0.17,-0.07 0.05,-0.1 0.01,-0.17 0,-0.17l0.04 0 0.08 0.01 -0.01 0.16 -0.09 0.39c0,0 0.02,0.16 -0.1,0.17 -0.03,0 -0.06,0 -0.09,-0.01l0 -0.05z"/>
   <path class="fil7" d="M19.06 13.02c-0.09,-0.07 -0.14,-0.1 -0.14,-0.1 0,0 0.06,0.03 0.15,0.09l-0.01 0.01zm-0.8 0.01c0.04,0.02 0.08,0.02 0.08,0.01 0.02,-0.03 0.02,-0.08 0.02,-0.16 -0.01,-0.07 -0.05,-0.19 -0.05,-0.19 0,0 0.05,0.12 0.05,0.19 0.01,0.08 0,0.15 0.01,0.18 0.02,0.03 0.08,0.03 0.08,0.03 0,0 -0.04,0.03 -0.14,0 -0.01,0 -0.03,-0.01 -0.05,-0.01l0 -0.05z"/>
   <path class="fil7" d="M18.92 12.93l0.04 -0.07c0.02,-0.03 0.11,-0.13 0.07,-0.15 -0.03,-0.01 -0.14,0.02 -0.21,0.02 -0.07,0 -0.12,0.01 -0.33,-0.17 0,0 -0.09,-0.06 -0.24,-0.13 0,0.01 0,0.01 0,0.02 0.07,0.04 0.13,0.08 0.19,0.13 0.03,0.02 0.2,0.19 0.37,0.17 0.17,-0.02 0.2,-0.04 0.19,-0.02 0,0.03 -0.05,0.09 -0.06,0.12 -0.01,0.02 -0.02,0.05 -0.02,0.08l0 0z"/>
   <polygon class="fil0" points="11.55,30.72 10.59,32.59 "/>
  </g>
 </g>
</svg>
