<?xml version="1.0" encoding="UTF-8"?>
<!DOCTYPE svg PUBLIC "-//W3C//DTD SVG 1.1//EN" "http://www.w3.org/Graphics/SVG/1.1/DTD/svg11.dtd">

<svg xmlns="http://www.w3.org/2000/svg" xml:space="preserve" width="300px" height="368px" version="1.1" style="shape-rendering:geometricPrecision; text-rendering:geometricPrecision; image-rendering:optimizeQuality; fill-rule:evenodd; clip-rule:evenodd"
viewBox="0 0 28.32 34.74"
 xmlns:xlink="http://www.w3.org/1999/xlink"
 >
 <defs>
  <style type="text/css">
   <![CDATA[
    .fil0 {fill:#3880FF}
    .fil1 {fill:#3C3B6E}
    .fil3 {fill:#B22234}
    .fil2 {fill:#FEFEFE}
   ]]>
  </style>
 </defs>
 <g id="Layer_x0020_1">

  <path class="fil0" d="M16.59 4.2l0.01 4.51c1.41,0.05 2.64,0.83 3.33,1.96 0.13,-0.01 0.26,-0.02 0.4,-0.02 1.48,0 2.78,0.79 3.49,1.97 0.14,-0.01 0.28,-0.02 0.42,-0.02 2.24,-0.01 4.06,1.8 4.06,4.04 0.01,2.24 0.01,4.47 0.02,6.71 0.02,6.27 -5.06,11.37 -11.33,11.39 -3.23,0.01 -6.28,-1.34 -8.45,-3.73 -0.21,-0.24 -0.42,-0.48 -0.61,-0.74l-6.66 -8.03c-0.07,-0.06 -0.14,-0.13 -0.21,-0.2 -1.48,-1.57 -1.35,-3.9 0.01,-5.5 0.37,-0.44 0.82,-0.78 1.35,-1.01 1.92,-0.84 4.13,0.07 6.1,1.32l-0.03 -12.62c-0.01,-0.06 -0.01,-0.11 -0.01,-0.16 0,-2.24 1.81,-4.06 4.05,-4.07 2.24,-0.01 4.06,1.81 4.07,4.05 0,0.05 -0.01,0.1 -0.01,0.15zm-4.06 -2.1c1.08,0 1.96,0.87 1.96,1.95 0,0.04 0,0.08 0,0.11l0.02 8.39c0.11,-0.98 0.93,-1.74 1.94,-1.74 1.07,0 1.95,0.87 1.95,1.95 0,0.04 0,0.07 0,0.11l0 1.59c0.13,-0.96 0.94,-1.7 1.94,-1.7 1.07,-0.01 1.95,0.87 1.95,1.94 0,0.04 0,0.08 0,0.11 0,0.44 0.01,1.25 0.01,1.63 0,0.32 -0.01,0.21 0.01,0 0.1,-0.97 0.93,-1.73 1.93,-1.74 1.08,0 1.96,0.87 1.96,1.95 0,2.23 0.01,4.47 0.02,6.7 0.01,5.11 -4.12,9.27 -9.24,9.28 -2.72,0.01 -5.18,-1.16 -6.88,-3.03 -0.18,-0.21 -0.36,-0.42 -0.52,-0.64l-6.8 -8.19c-0.07,-0.05 -0.13,-0.11 -0.19,-0.17 -0.72,-0.77 -0.6,-1.9 0.08,-2.7 1.72,-2.02 6.09,1.66 7.96,3.11l-0.04 -16.84c0,-0.03 0,-0.07 0,-0.11 -0.01,-1.08 0.87,-1.95 1.94,-1.96z"/>
  <g id="_1407762511664">
   <path class="fil1" d="M0.05 18.72c0.08,-0.47 0.23,-0.92 0.46,-1.35 0.06,-0.04 0.13,-0.08 0.22,-0.11 0.21,0.16 0.29,0.24 0.54,0.38l-0.19 -0.7c0.24,-0.18 0.35,-0.23 0.56,-0.43l-0.54 -0.01c0.35,-0.4 0.76,-0.71 1.23,-0.93l-0.05 0.19c0.24,-0.11 0.36,-0.21 0.59,-0.36 0.24,0.14 0.36,0.25 0.59,0.36l-0.14 -0.5c1.69,-0.28 3.53,0.53 5.2,1.59l0 -0.31c0.26,0.22 0.33,0.19 0.55,0.46l-0.17 0.63c0.21,-0.1 0.36,-0.24 0.57,-0.36 0.23,0.12 0.36,0.24 0.59,0.36l-0.17 -0.63c0.21,-0.26 0.31,-0.25 0.55,-0.48l-0.73 -0.02 -0.27 -0.61 -0.19 0.61 -0.73 0.04 -0.03 -12.31c-0.01,-0.06 -0.01,-0.11 -0.01,-0.16 0,-0.78 0.22,-1.51 0.59,-2.12l-0.19 0.72c0.25,-0.13 0.37,-0.24 0.59,-0.36 0.23,0.11 0.35,0.22 0.59,0.36l-0.2 -0.72c0.13,-0.06 0.14,-0.06 0.26,-0.14l0.28 -0.26 -0.66 -0.01 -0.12 -0.3c0.74,-0.76 1.77,-1.24 2.91,-1.24 1.53,0 2.86,0.84 3.56,2.09l0 0.58 -0.01 2.67 0 2.68 0.01 2.67 0 0.16c-0.84,0.15 -1.49,0.84 -1.58,1.7l-0.01 -3.24c0.11,-0.08 0.22,-0.16 0.32,-0.29l-0.32 0 -0.01 -3.46 0.36 -0.25 -0.36 -0.02 0 -1.13c0,-0.03 0,-0.07 0,-0.11 0,-0.66 -0.34,-1.25 -0.85,-1.6 0.07,-0.05 0.14,-0.1 0.21,-0.14 0.28,0.12 0.38,0.24 0.62,0.37l-0.2 -0.7 0.53 -0.44 -0.67 0 -0.24 -0.68c-0.42,0.86 0.09,0.59 -0.94,0.7 0.18,0.25 0.24,0.2 0.49,0.42l-0.07 0.31c-0.25,-0.12 -0.54,-0.19 -0.84,-0.19 -1.07,0.01 -1.95,0.88 -1.94,1.96 0,0.04 0,0.08 0,0.11l0.04 14.54 -3.1 0.01c-0.91,-0.59 -1.86,-1.09 -2.7,-1.3 0.08,-0.06 0.17,-0.12 0.29,-0.16 0.17,0.16 0.36,0.3 0.55,0.38l-0.19 -0.75c0.38,-0.14 0.39,-0.27 0.56,-0.38l-0.74 -0.04 -0.24 -0.65 -0.21 0.68 -0.74 0.02 0.56 0.48 -0.11 0.36c-0.76,-0.14 -1.42,-0.01 -1.89,0.54 -0.21,0.25 -0.37,0.53 -0.46,0.82l-2.16 0zm10.35 -5.95c-0.07,0.08 -0.05,0.06 -0.14,0.14l-0.4 0.27 0.2 0.71c-0.24,-0.14 -0.36,-0.24 -0.59,-0.36 -0.24,0.11 -0.31,0.21 -0.59,0.36l0.19 -0.72c-0.12,-0.06 -0.19,-0.08 -0.3,-0.17 -0.15,-0.12 -0.14,-0.14 -0.22,-0.23l0.67 0 0.28 -0.64 0.24 0.63 0.66 0.01zm-0.89 -4.37l0.18 0.62 0.74 0.01c-0.19,0.17 -0.37,0.28 -0.55,0.46l0.18 0.66c-0.23,-0.12 -0.35,-0.22 -0.59,-0.36 -0.23,0.15 -0.35,0.25 -0.59,0.36l0.17 -0.66c-0.14,-0.16 -0.37,-0.32 -0.53,-0.46l0.72 -0.01 0.27 -0.62zm0 -3.73l0.19 0.6 0.74 0.04c-0.25,0.22 -0.35,0.2 -0.56,0.47l0.17 0.63c-0.21,-0.11 -0.37,-0.26 -0.58,-0.36 -0.21,0.11 -0.36,0.25 -0.58,0.36l0.18 -0.72c-0.19,-0.1 -0.38,-0.23 -0.55,-0.39l0.71 -0.02 0.28 -0.61z"/>
   <path class="fil2" d="M28.3 24.05c-0.05,0.92 -0.22,1.82 -0.48,2.67l-2.23 0c0.33,-0.84 0.53,-1.74 0.6,-2.67l2.11 0zm-23.32 2.67l-2.22 -2.67 2.74 0 2.22 2.67 -2.74 0z"/>
   <path class="fil2" d="M26.6 29.39c-0.63,1.01 -1.42,1.91 -2.32,2.68l-4.12 0c1.5,-0.56 2.81,-1.49 3.83,-2.68l2.61 0zm-16.96 2.68c-0.39,-0.33 -0.75,-0.68 -1.1,-1.06 -0.21,-0.24 -0.42,-0.48 -0.61,-0.74l-0.73 -0.88 2.72 0c0.06,0.07 0.12,0.14 0.18,0.21 1,1.09 2.25,1.95 3.66,2.47l-4.12 0z"/>
   <path class="fil3" d="M24.28 32.07c-1.97,1.66 -4.51,2.66 -7.29,2.67 -2.71,0.01 -5.31,-0.95 -7.35,-2.67l4.12 0c1,0.37 2.09,0.57 3.22,0.56 1.12,0 2.19,-0.2 3.18,-0.56l4.12 0z"/>
   <path class="fil3" d="M28.32 21.38l0 1.97c0,0.23 -0.01,0.47 -0.02,0.7l-2.11 0c0.02,-0.23 0.03,-0.46 0.03,-0.7l-0.01 -1.97 2.11 0zm-25.56 2.67l-1.49 -1.81c-0.07,-0.06 -0.14,-0.13 -0.21,-0.2 -0.2,-0.21 -0.36,-0.43 -0.51,-0.66l2.73 0 2.22 2.67 -2.74 0z"/>
   <path class="fil3" d="M27.82 26.72c-0.29,0.95 -0.71,1.85 -1.22,2.67l-2.61 0c0.68,-0.78 1.22,-1.69 1.6,-2.67l2.23 0zm-20.62 2.67l-2.22 -2.67 2.74 0 1.86 2.24c0.11,0.15 0.23,0.29 0.34,0.43l-2.72 0z"/>
   <path class="fil2" d="M28.31 18.71l0.01 2.67 -2.11 0 -0.01 -2.67 2.11 0zm-27.76 2.67c-0.49,-0.82 -0.64,-1.75 -0.5,-2.66l2.16 0c-0.21,0.65 -0.12,1.35 0.38,1.88 0.06,0.06 0.12,0.12 0.19,0.17l0.5 0.61 -2.73 0zm10.08 -2.67l-3.1 0.01c1.21,0.78 2.36,1.71 3.1,2.29l0 -2.3z"/>
   <path class="fil3" d="M28.26 16.03c0.03,0.2 0.04,0.41 0.04,0.61l0.01 2.07 -2.11 0 0 -2.06c0,-0.22 -0.04,-0.42 -0.1,-0.62l2.16 0zm-5.86 0l-0.1 0 0 0.41c0,0.32 -0.01,0.21 0.01,0 0.02,-0.14 0.05,-0.28 0.09,-0.41z"/>
   <path class="fil2" d="M16.6 8.02l0 0.69c1.41,0.05 2.64,0.83 3.33,1.96 0.13,-0.01 0.26,-0.02 0.4,-0.02 0.19,0 0.38,0.01 0.56,0.04l-4.8 0 -0.01 -2.67 0.52 0z"/>
   <path class="fil2" d="M16.59 4.2l0.01 1.14 -0.52 0 0.01 -2.67 0.26 0c0.16,0.43 0.24,0.89 0.25,1.38 0,0.05 -0.01,0.1 -0.01,0.15z"/>
   <path class="fil2" d="M26.61 13.36c0.87,0.62 1.48,1.57 1.65,2.67l-2.16 0c-0.26,-0.77 -0.99,-1.33 -1.86,-1.33 -0.85,0.01 -1.58,0.56 -1.84,1.33l-0.1 0 -0.01 -1.22c0,-0.03 0,-0.07 0,-0.11 0,-0.52 -0.2,-0.99 -0.54,-1.34l4.86 0zm-7.68 0l-0.53 0 0 1.1c0.06,-0.43 0.25,-0.81 0.53,-1.1z"/>
   <path class="fil3" d="M16.09 2.09c0.1,0.18 0.19,0.38 0.26,0.58l-0.26 0 0 -0.58z"/>
   <path class="fil3" d="M20.89 10.69c1.25,0.17 2.31,0.9 2.93,1.93 0.14,-0.01 0.28,-0.02 0.42,-0.02 0.88,0 1.7,0.28 2.37,0.76l-4.86 0c-0.35,-0.37 -0.86,-0.61 -1.41,-0.6 -0.56,0 -1.06,0.23 -1.41,0.6l-0.53 0 0 -0.49c0,-0.04 0,-0.07 0,-0.11 0,-1.08 -0.88,-1.95 -1.95,-1.95 -0.13,0 -0.24,0.01 -0.36,0.04l0 -0.16 4.8 0z"/>
   <polygon class="fil3" points="16.6,5.34 16.6,8.02 16.08,8.02 16.08,5.34 "/>
   <path class="fil2" d="M4.67 17l-0.11 0.36c0.09,0.01 0.17,0.03 0.27,0.06 0.08,-0.06 0.17,-0.12 0.29,-0.16 0.17,0.16 0.36,0.3 0.55,0.38l-0.19 -0.75c0.38,-0.14 0.39,-0.27 0.56,-0.38l-0.74 -0.04 -0.24 -0.65 -0.21 0.68 -0.74 0.02 0.56 0.48z"/>
   <path class="fil2" d="M12.95 1.56c0.18,0.25 0.24,0.2 0.49,0.42l-0.07 0.31c0.1,0.05 0.19,0.1 0.27,0.16 0.07,-0.05 0.14,-0.1 0.21,-0.14 0.28,0.12 0.38,0.24 0.62,0.37l-0.2 -0.7 0.53 -0.44 -0.67 0 -0.24 -0.68c-0.42,0.86 0.09,0.59 -0.94,0.7z"/>
   <polygon class="fil2" points="14.49,5.56 14.85,5.31 14.49,5.29 "/>
   <path class="fil2" d="M14.5 9.31c0.11,-0.08 0.22,-0.16 0.32,-0.29l-0.32 0 0 0.29z"/>
   <path class="fil2" d="M2.33 15.57c0.03,-0.02 0.06,-0.03 0.09,-0.04 0.29,-0.13 0.59,-0.22 0.9,-0.27l0.14 0.5c-0.23,-0.11 -0.35,-0.22 -0.59,-0.36 -0.23,0.15 -0.35,0.25 -0.59,0.36l0.05 -0.19z"/>
   <path class="fil2" d="M9.24 9.02l-0.72 0.01c0.16,0.14 0.39,0.3 0.53,0.46l-0.17 0.66c0.24,-0.11 0.36,-0.21 0.59,-0.36 0.24,0.14 0.36,0.24 0.59,0.36l-0.18 -0.66c0.18,-0.18 0.36,-0.29 0.55,-0.46l-0.74 -0.01 -0.18 -0.62 -0.27 0.62z"/>
   <path class="fil2" d="M0.51 17.37c0.15,-0.29 0.34,-0.57 0.56,-0.83 0.01,-0.02 0.02,-0.03 0.03,-0.04l0.54 0.01c-0.21,0.2 -0.32,0.25 -0.56,0.43l0.19 0.7c-0.25,-0.14 -0.33,-0.22 -0.54,-0.38 -0.09,0.03 -0.16,0.07 -0.22,0.11z"/>
   <path class="fil2" d="M9.22 12.77l-0.67 0c0.08,0.09 0.07,0.11 0.22,0.23 0.11,0.09 0.18,0.11 0.3,0.17l-0.19 0.72c0.28,-0.15 0.35,-0.25 0.59,-0.36 0.23,0.12 0.35,0.22 0.59,0.36l-0.2 -0.71 0.4 -0.27c0.09,-0.08 0.07,-0.06 0.14,-0.14l-0.66 -0.01 -0.24 -0.63 -0.28 0.64z"/>
   <path class="fil2" d="M8.52 16.54l0 0 0.73 -0.04 0.19 -0.61 0.27 0.61 0.73 0.02c-0.24,0.23 -0.34,0.22 -0.55,0.48l0.17 0.63c-0.23,-0.12 -0.36,-0.24 -0.59,-0.36 -0.21,0.12 -0.36,0.26 -0.57,0.36l0.17 -0.63c-0.22,-0.27 -0.29,-0.24 -0.55,-0.46z"/>
   <path class="fil2" d="M9.23 5.28l-0.71 0.02c0.17,0.16 0.36,0.29 0.55,0.39l-0.18 0.72c0.22,-0.11 0.37,-0.25 0.58,-0.36 0.21,0.1 0.37,0.25 0.58,0.36l-0.17 -0.63c0.21,-0.27 0.31,-0.25 0.56,-0.47l-0.74 -0.04 -0.19 -0.6 -0.28 0.61z"/>
   <path class="fil2" d="M9.07 1.95c0.16,-0.26 0.34,-0.5 0.55,-0.71l0.12 0.3 0.66 0.01 -0.28 0.26c-0.12,0.08 -0.13,0.08 -0.26,0.14l0.2 0.72c-0.24,-0.14 -0.36,-0.25 -0.59,-0.36 -0.22,0.12 -0.34,0.23 -0.59,0.36l0.19 -0.72z"/>
  </g>
 </g>
</svg>
