<?xml version="1.0" encoding="UTF-8"?>
<!DOCTYPE svg PUBLIC "-//W3C//DTD SVG 1.1//EN" "http://www.w3.org/Graphics/SVG/1.1/DTD/svg11.dtd">

<svg xmlns="http://www.w3.org/2000/svg" xml:space="preserve" width="1733px" height="1733px" version="1.1" style="shape-rendering:geometricPrecision; text-rendering:geometricPrecision; image-rendering:optimizeQuality; fill-rule:evenodd; clip-rule:evenodd"
viewBox="0 0 1159.02 1159.02"
 xmlns:xlink="http://www.w3.org/1999/xlink"
 >
 <defs>
  <style type="text/css">
   <![CDATA[
    .fil0 {fill:none}
    .fil7 {fill:none;fill-rule:nonzero}
    .fil2 {fill:#263138;fill-rule:nonzero}
    .fil8 {fill:#3880FF;fill-rule:nonzero}
    .fil1 {fill:#445964;fill-rule:nonzero}
    .fil6 {fill:#DFDFDF;fill-rule:nonzero}
    .fil3 {fill:#EBEBEB;fill-rule:nonzero}
    .fil5 {fill:#F4F4F4;fill-rule:nonzero}
    .fil4 {fill:#F9F9F9;fill-rule:nonzero}
    .fil10 {fill:#FF725D;fill-rule:nonzero}
    .fil11 {fill:black;fill-rule:nonzero;fill-opacity:0.200000}
    .fil9 {fill:black;fill-rule:nonzero;fill-opacity:0.400000}
   ]]>
  </style>
 </defs>
 <g id="Capa_x0020_1">

  <rect class="fil0" width="1159.02" height="1159.02"/>
  <g id="_2434118525472">
   <g>
    <g>
     <g>
      <g>
       <g>
        <g>
         <g>
          <g>
           <g>
            <g>
             <g>
              <path class="fil1" d="M1070.76 925.1l-988.07 0c-22.55,0 -40.82,-18.27 -40.82,-40.82l0 -625.75c0,-22.55 18.27,-40.82 40.82,-40.82l988.07 0c22.55,0 40.83,18.27 40.83,40.82l0 625.75c0,22.55 -18.28,40.82 -40.83,40.82z"/>
             </g>
            </g>
           </g>
          </g>
         </g>
        </g>
        <g>
         <g>
          <g>
           <g>
            <g>
             <g>
              <path class="fil1" d="M1110.19 941.32l-1061.3 0c-26.97,0 -48.83,-21.87 -48.83,-48.84l0 -13.06 1158.96 0 0 13.06c0,26.97 -21.86,48.84 -48.83,48.84z"/>
             </g>
            </g>
           </g>
          </g>
         </g>
        </g>
        <g>
         <g>
          <g>
           <g>
            <g>
             <g>
              <polygon class="fil2" points="1079.88,843.2 70.58,843.2 70.58,245.81 1079.88,245.81 "/>
             </g>
            </g>
           </g>
          </g>
         </g>
        </g>
        <g>
         <g>
          <g>
           <g>
            <g>
             <g>
              <polygon class="fil2" points="471.27,872.79 485.66,895.66 688.03,895.66 701.38,872.79 "/>
             </g>
            </g>
           </g>
          </g>
         </g>
        </g>
       </g>
       <g>
        <g>
         <g>
          <g>
           <g>
            <g>
             <g>
              <g>
               <g>
                <g>
                 <path class="fil3" d="M1052 841.29l-951.46 0c-5.06,0 -9.17,-4.11 -9.17,-9.18l0 -556.9c0,-5.07 4.1,-9.17 9.17,-9.17l951.46 0c5.06,0 9.17,4.1 9.17,9.17l0 556.91c0,5.06 -4.11,9.17 -9.17,9.17z"/>
                </g>
               </g>
              </g>
             </g>
            </g>
           </g>
          </g>
          <g>
           <g>
            <g>
             <g>
              <g>
               <g>
                <g>
                 <polygon class="fil4" points="1060.13,842.13 90.33,842.13 91.37,309.03 1060.13,309.03 "/>
                </g>
               </g>
              </g>
             </g>
            </g>
           </g>
          </g>
          <g>
           <g>
            <g>
             <g>
              <g>
               <g>
                <g>
                 <path class="fil2" d="M170.91 288.25c0,4.28 -3.47,7.75 -7.75,7.75 -4.28,0 -7.74,-3.47 -7.74,-7.75 0,-4.28 3.46,-7.74 7.74,-7.74 4.28,0 7.75,3.46 7.75,7.74z"/>
                </g>
               </g>
              </g>
             </g>
            </g>
           </g>
          </g>
          <g>
           <g>
            <g>
             <g>
              <g>
               <g>
                <g>
                 <path class="fil2" d="M123.97 288.25c0,4.28 -3.47,7.75 -7.75,7.75 -4.28,0 -7.75,-3.47 -7.75,-7.75 0,-4.28 3.47,-7.74 7.75,-7.74 4.28,0 7.75,3.46 7.75,7.74z"/>
                </g>
               </g>
              </g>
             </g>
            </g>
           </g>
          </g>
          <g>
           <g>
            <g>
             <g>
              <g>
               <g>
                <g>
                 <path class="fil2" d="M146.5 288.25c0,4.28 -3.47,7.75 -7.75,7.75 -4.28,0 -7.74,-3.47 -7.74,-7.75 0,-4.28 3.46,-7.74 7.74,-7.74 4.28,0 7.75,3.46 7.75,7.74z"/>
                </g>
               </g>
              </g>
             </g>
            </g>
           </g>
          </g>
         </g>
        </g>
       </g>
       <g>
        <g>
         <g>
          <g>
           <g>
            <g>
             <path class="fil2" d="M1102.4 872.78c0,0.39 -237.43,0.7 -530.24,0.7 -292.92,0 -530.29,-0.31 -530.29,-0.7 0,-0.38 237.37,-0.69 530.29,-0.69 292.81,0 530.24,0.31 530.24,0.69z"/>
            </g>
           </g>
          </g>
         </g>
        </g>
       </g>
      </g>
     </g>
    </g>
   </g>
   <g>
    <path class="fil5" d="M186.78 360.18c4.4,-0.42 8.78,-0.23 13.03,0.52l7.37 -9.59 18.16 8.38 -2.52 11.82c3.33,2.75 6.31,5.96 8.85,9.58l11.99 -1.57 6.91 18.76 -10.13 6.58c0.41,4.4 0.22,8.78 -0.52,13.03l9.59 7.37 -8.38 18.16 -11.83 -2.52c-2.75,3.33 -5.96,6.31 -9.57,8.85l1.57 11.99 -18.77 6.91 -6.58 -10.13c-4.4,0.41 -8.78,0.22 -13.03,-0.52l-7.36 9.59 -18.16 -8.38 2.51 -11.83c-3.32,-2.75 -6.31,-5.96 -8.85,-9.57l-11.98 1.57 -6.92 -18.77 10.14 -6.58c-0.42,-4.4 -0.23,-8.77 0.52,-13.03l-9.59 -7.36 8.38 -18.16 11.82 2.51c2.75,-3.32 5.96,-6.31 9.58,-8.85l-1.57 -11.98 18.76 -6.92 6.58 10.14zm1.53 27.65l0 0c-14.09,2.72 -21.48,17.76 -15.42,30.43 4.14,8.64 13.83,13.6 23.24,11.78 14.09,-2.72 21.49,-17.76 15.41,-30.44 -4.13,-8.64 -13.82,-13.59 -23.23,-11.77z"/>
   </g>
   <g>
    <path class="fil5" d="M957.63 347.48c5.03,-0.48 10.04,-0.26 14.9,0.59l8.42 -10.96 20.77 9.58 -2.87 13.52c3.8,3.15 7.22,6.82 10.12,10.95l13.71 -1.79 7.91 21.46 -11.59 7.53c0.47,5.03 0.25,10.04 -0.6,14.9l10.97 8.42 -9.58 20.78 -13.53 -2.88c-3.15,3.81 -6.82,7.22 -10.95,10.13l1.8 13.7 -21.47 7.91 -7.52 -11.59c-5.04,0.48 -10.04,0.26 -14.91,-0.59l-8.42 10.96 -20.77 -9.58 2.87 -13.53c-3.8,-3.14 -7.21,-6.81 -10.12,-10.95l-13.71 1.8 -7.91 -21.46 11.59 -7.53c-0.47,-5.03 -0.25,-10.04 0.6,-14.9l-10.97 -8.43 9.59 -20.77 13.52 2.88c3.15,-3.81 6.82,-7.22 10.95,-10.13l-1.79 -13.7 21.46 -7.91 7.53 11.59zm1.74 31.62l0 0c-16.11,3.11 -24.57,20.31 -17.63,34.81 4.73,9.89 15.81,15.55 26.58,13.48 16.11,-3.11 24.57,-20.32 17.63,-34.82 -4.74,-9.88 -15.82,-15.55 -26.58,-13.47z"/>
   </g>
   <g>
    <path class="fil5" d="M216.41 788.5c-4.07,2.93 -8.46,5.26 -13.05,6.97l-1.7 13.61 -22.58 2.22 -4.33 -13.01c-4.83,-0.78 -9.6,-2.21 -14.16,-4.29l-10.82 8.42 -17.54 -14.4 6.14 -12.25c-2.94,-4.07 -5.26,-8.47 -6.97,-13.05l-13.61 -1.71 -2.23 -22.58 13.02 -4.33c0.78,-4.83 2.21,-9.59 4.28,-14.15l-8.41 -10.83 14.39 -17.54 12.26 6.14c4.07,-2.93 8.46,-5.26 13.05,-6.97l1.7 -13.61 22.58 -2.22 4.33 13.01c4.83,0.79 9.6,2.21 14.16,4.29l10.82 -8.42 17.54 14.4 -6.14 12.25c2.93,4.07 5.26,8.47 6.98,13.05l13.6 1.71 2.23 22.58 -13.02 4.33c-0.78,4.83 -2.21,9.59 -4.28,14.15l8.41 10.83 -14.39 17.54 -12.26 -6.14zm-17.37 -26.18l0 0c12.23,-10.75 10.83,-29.71 -2.38,-38.63 -9.01,-6.09 -21.33,-5.37 -29.5,1.8 -12.23,10.75 -10.83,29.72 2.39,38.64 9.01,6.08 21.33,5.37 29.49,-1.81z"/>
   </g>
   <g>
    <path class="fil5" d="M706.56 396.49c-0.2,-2.1 -0.11,-4.2 0.25,-6.24l-4.6 -3.53 4.02 -8.71 5.67 1.2c1.32,-1.59 2.86,-3.03 4.59,-4.24l-0.75 -5.75 9 -3.32 3.15 4.86c2.11,-0.2 4.21,-0.1 6.25,0.25l3.53 -4.6 8.71 4.02 -1.2 5.67c1.59,1.32 3.02,2.86 4.24,4.6l5.75 -0.76 3.31 9 -4.86 3.16c0.2,2.11 0.11,4.21 -0.25,6.25l4.6 3.53 -4.02 8.71 -5.67 -1.21c-1.32,1.6 -2.86,3.03 -4.59,4.25l0.75 5.74 -9 3.32 -3.15 -4.86c-2.11,0.2 -4.21,0.11 -6.25,-0.25l-3.53 4.6 -8.71 -4.02 1.21 -5.67c-1.6,-1.32 -3.03,-2.86 -4.25,-4.59l-5.75 0.75 -3.31 -9 4.86 -3.16zm13.26 -0.73l0 0c1.3,6.76 8.51,10.31 14.59,7.4 4.15,-1.99 6.52,-6.64 5.65,-11.15 -1.3,-6.75 -8.51,-10.3 -14.59,-7.39 -4.15,1.98 -6.52,6.63 -5.65,11.14z"/>
   </g>
   <g>
    <path class="fil5" d="M968.21 777.67c-0.23,-2.46 -0.13,-4.89 0.29,-7.26l-5.35 -4.11 4.67 -10.12 6.59 1.4c1.54,-1.85 3.32,-3.51 5.34,-4.93l-0.88 -6.68 10.46 -3.85 3.67 5.64c2.45,-0.23 4.89,-0.12 7.26,0.3l4.1 -5.35 10.12 4.67 -1.4 6.59c1.85,1.53 3.52,3.32 4.93,5.34l6.68 -0.88 3.86 10.46 -5.65 3.67c0.23,2.45 0.12,4.89 -0.29,7.26l5.34 4.1 -4.67 10.12 -6.59 -1.4c-1.53,1.85 -3.32,3.52 -5.33,4.93l0.87 6.68 -10.46 3.85 -3.66 -5.64c-2.45,0.23 -4.89,0.12 -7.26,-0.29l-4.11 5.34 -10.12 -4.67 1.4 -6.59c-1.85,-1.53 -3.51,-3.32 -4.93,-5.33l-6.68 0.87 -3.85 -10.46 5.65 -3.66zm15.4 -0.85l0 0c1.52,7.85 9.9,11.97 16.96,8.58 4.82,-2.3 7.58,-7.7 6.57,-12.94 -1.51,-7.85 -9.9,-11.98 -16.96,-8.59 -4.82,2.3 -7.58,7.7 -6.57,12.95z"/>
   </g>
   <g>
    <g>
     <path class="fil3" d="M337.83 395.56c-22.45,32.18 -21.69,66.63 -21.68,66.98l-9.69 0.31c-0.05,-1.53 -0.95,-37.91 23.41,-72.84l7.96 5.55z"/>
    </g>
    <g>
     <polygon class="fil3" points="298.16,457.6 324.31,455.9 312.64,475.26 "/>
    </g>
   </g>
   <g>
    <g>
     <path class="fil3" d="M357.44 768.81c-26.56,-28.9 -30.42,-63.13 -30.45,-63.48l-9.65 0.99c0.15,1.53 4.14,37.7 32.96,69.05l7.14 -6.56z"/>
    </g>
    <g>
     <polygon class="fil3" points="309.82,712.63 335.96,710.82 321.8,693.19 "/>
    </g>
   </g>
   <g>
    <g>
     <path class="fil3" d="M812.43 486.64l-8.07 5.38 4.04 -2.69 -4.04 2.69c-0.28,-0.41 -28.56,-41.73 -82.19,-47.77l1.09 -9.64c58.24,6.56 87.94,50.17 89.17,52.03z"/>
    </g>
    <g>
     <polygon class="fil3" points="816.13,477.55 793.87,491.36 814.62,500.33 "/>
    </g>
   </g>
   <path class="fil6" d="M599.06 415.04c-0.14,-3.93 0.26,-7.81 1.14,-11.54l-8.13 -7.04 8.38 -15.69 10.37 2.85c2.62,-2.81 5.62,-5.3 8.96,-7.36l-0.77 -10.72 17.02 -5.17 5.32 9.34c3.93,-0.14 7.8,0.26 11.54,1.14l7.04 -8.12 15.69 8.38 -2.85 10.37c2.81,2.61 5.29,5.62 7.36,8.96l10.72 -0.77 5.16 17.02 -9.34 5.32c0.14,3.92 -0.25,7.8 -1.14,11.54l8.13 7.04 -8.38 15.68 -10.37 -2.84c-2.62,2.8 -5.62,5.29 -8.96,7.36l0.77 10.72 -17.02 5.16 -5.32 -9.34c-3.93,0.14 -7.8,-0.26 -11.54,-1.14l-7.04 8.13 -15.69 -8.38 2.85 -10.37c-2.81,-2.62 -5.29,-5.62 -7.36,-8.96l-10.72 0.77 -5.16 -17.03 9.34 -5.31zm24.63 0.08l0 0c1.68,12.65 14.64,20 26.22,15.27 7.88,-3.22 12.79,-11.56 11.67,-20.01 -1.68,-12.65 -14.66,-20.01 -26.23,-15.27 -7.89,3.22 -12.79,11.56 -11.66,20.01z"/>
   <path class="fil7" d="M599.06 415.04c-0.14,-3.93 0.26,-7.81 1.14,-11.54l-8.13 -7.04 8.38 -15.69 10.37 2.85c2.62,-2.81 5.62,-5.3 8.96,-7.36l-0.77 -10.72 17.02 -5.17 5.32 9.34c3.93,-0.14 7.8,0.26 11.54,1.14l7.04 -8.12 15.69 8.38 -2.85 10.37c2.81,2.61 5.29,5.62 7.36,8.96l10.72 -0.77 5.16 17.02 -9.34 5.32c0.14,3.92 -0.25,7.8 -1.14,11.54l8.13 7.04 -8.38 15.68 -10.37 -2.84c-2.62,2.8 -5.62,5.29 -8.96,7.36l0.77 10.72 -17.02 5.16 -5.32 -9.34c-3.93,0.14 -7.8,-0.26 -11.54,-1.14l-7.04 8.13 -15.69 -8.38 2.85 -10.37c-2.81,-2.62 -5.29,-5.62 -7.36,-8.96l-10.72 0.77 -5.16 -17.03 9.34 -5.31zm24.63 0.08l0 0c1.68,12.65 14.64,20 26.22,15.27 7.88,-3.22 12.79,-11.56 11.67,-20.01 -1.68,-12.65 -14.66,-20.01 -26.23,-15.27 -7.89,3.22 -12.79,11.56 -11.66,20.01z"/>
   <path class="fil6" d="M400.37 710.91c-0.5,-5.36 -0.27,-10.71 0.63,-15.89l-11.7 -8.99 10.23 -22.16 14.43 3.06c3.36,-4.05 7.27,-7.7 11.68,-10.8l-1.92 -14.62 22.91 -8.44 8.03 12.37c5.36,-0.51 10.71,-0.28 15.9,0.63l8.98 -11.7 22.16 10.23 -3.06 14.43c4.05,3.35 7.7,7.27 10.8,11.68l14.62 -1.92 8.44 22.9 -12.37 8.03c0.51,5.37 0.28,10.72 -0.63,15.9l11.7 8.99 -10.23 22.16 -14.43 -3.06c-3.36,4.05 -7.27,7.69 -11.68,10.8l1.92 14.62 -22.9 8.44 -8.03 -12.37c-5.37,0.51 -10.71,0.28 -15.9,-0.63l-8.99 11.7 -22.16 -10.23 3.07 -14.43c-4.06,-3.36 -7.7,-7.27 -10.8,-11.68l-14.63 1.92 -8.44 -22.91 12.37 -8.03zm33.74 -1.86l0 0c3.32,17.19 21.67,26.22 37.14,18.81 10.55,-5.05 16.59,-16.87 14.38,-28.35 -3.32,-17.19 -21.68,-26.22 -37.15,-18.81 -10.54,5.05 -16.59,16.87 -14.37,28.35z"/>
   <path class="fil6" d="M383.78 643.11c-0.09,-0.91 -0.04,-1.82 0.11,-2.7l-1.99 -1.53 1.74 -3.77 2.45 0.52c0.58,-0.69 1.24,-1.31 1.99,-1.83l-0.32 -2.49 3.89 -1.44 1.37 2.11c0.91,-0.09 1.82,-0.05 2.7,0.11l1.53 -1.99 3.77 1.74 -0.52 2.45c0.69,0.57 1.31,1.24 1.84,1.99l2.49 -0.33 1.43 3.9 -2.1 1.37c0.08,0.91 0.04,1.82 -0.11,2.7l1.99 1.53 -1.74 3.77 -2.46 -0.52c-0.57,0.69 -1.24,1.31 -1.99,1.83l0.33 2.49 -3.9 1.44 -1.36 -2.11c-0.92,0.09 -1.83,0.05 -2.71,-0.11l-1.53 1.99 -3.77 -1.74 0.52 -2.45c-0.68,-0.57 -1.3,-1.24 -1.83,-1.99l-2.49 0.33 -1.43 -3.9 2.1 -1.37zm5.74 -0.31l0 0c0.56,2.92 3.69,4.46 6.32,3.2 1.79,-0.86 2.82,-2.87 2.45,-4.82 -0.57,-2.93 -3.69,-4.46 -6.32,-3.2 -1.8,0.85 -2.83,2.87 -2.45,4.82z"/>
   <path class="fil6" d="M399.63 605.24c0.09,-1.53 0.38,-3.02 0.86,-4.45l-2.91 -3.03 3.83 -5.79 3.93 1.48c1.12,-1 2.37,-1.85 3.75,-2.54l0.09 -4.19 6.8 -1.4 1.73 3.83c1.53,0.09 3.03,0.38 4.45,0.86l3.03 -2.91 5.79 3.83 -1.48 3.93c1,1.12 1.85,2.38 2.54,3.75l4.19 0.09 1.4 6.8 -3.83 1.73c-0.09,1.53 -0.38,3.03 -0.86,4.45l2.91 3.03 -3.83 5.79 -3.93 -1.48c-1.12,1 -2.38,1.86 -3.75,2.54l-0.09 4.2 -6.8 1.39 -1.73 -3.83c-1.53,-0.09 -3.03,-0.38 -4.45,-0.86l-3.03 2.91 -5.79 -3.83 1.48 -3.93c-1,-1.12 -1.86,-2.37 -2.54,-3.75l-4.19 -0.09 -1.4 -6.8 3.83 -1.73zm9.57 0.92l0 0c0.2,4.98 4.97,8.31 9.64,6.89 3.18,-0.97 5.39,-4.03 5.26,-7.36 -0.19,-4.98 -4.97,-8.31 -9.64,-6.89 -3.18,0.97 -5.39,4.04 -5.26,7.36z"/>
   <path class="fil6" d="M360.29 602.89c0.08,-1.39 0.35,-2.75 0.78,-4.04l-2.64 -2.75 3.48 -5.27 3.57 1.35c1.02,-0.91 2.16,-1.69 3.41,-2.31l0.08 -3.81 6.18 -1.26 1.57 3.47c1.39,0.08 2.75,0.35 4.04,0.78l2.75 -2.64 5.27 3.48 -1.35 3.57c0.91,1.02 1.69,2.16 2.31,3.41l3.81 0.08 1.26 6.18 -3.47 1.57c-0.08,1.39 -0.35,2.75 -0.78,4.04l2.64 2.75 -3.48 5.27 -3.57 -1.35c-1.02,0.91 -2.16,1.69 -3.41,2.31l-0.08 3.81 -6.18 1.27 -1.57 -3.48c-1.39,-0.08 -2.75,-0.35 -4.04,-0.78l-2.75 2.64 -5.27 -3.48 1.35 -3.57c-0.91,-1.01 -1.69,-2.16 -2.31,-3.41l-3.81 -0.08 -1.26 -6.18 3.47 -1.57zm8.7 0.84l0 0c0.18,4.52 4.51,7.55 8.76,6.26 2.89,-0.88 4.9,-3.67 4.78,-6.69 -0.18,-4.52 -4.52,-7.55 -8.76,-6.26 -2.9,0.88 -4.9,3.67 -4.78,6.69z"/>
   <path class="fil6" d="M618.98 490.38c-0.13,-1.4 -0.07,-2.8 0.16,-4.15l-3.05 -2.35 2.67 -5.78 3.77 0.8c0.87,-1.06 1.89,-2.01 3.05,-2.82l-0.5 -3.82 5.97 -2.2 2.1 3.23c1.4,-0.13 2.8,-0.07 4.15,0.17l2.34 -3.05 5.79 2.67 -0.8 3.76c1.06,0.88 2.01,1.9 2.81,3.05l3.82 -0.5 2.2 5.98 -3.23 2.09c0.13,1.41 0.07,2.8 -0.16,4.15l3.05 2.35 -2.67 5.78 -3.77 -0.8c-0.87,1.06 -1.9,2.01 -3.05,2.82l0.5 3.82 -5.97 2.2 -2.1 -3.23c-1.4,0.13 -2.8,0.07 -4.15,-0.17l-2.35 3.05 -5.78 -2.66 0.8 -3.77c-1.06,-0.88 -2.01,-1.9 -2.81,-3.05l-3.82 0.5 -2.2 -5.98 3.23 -2.09zm8.8 -0.49l0 0c0.87,4.49 5.66,6.85 9.69,4.91 2.76,-1.31 4.33,-4.4 3.76,-7.39 -0.87,-4.49 -5.66,-6.85 -9.7,-4.92 -2.75,1.32 -4.33,4.41 -3.75,7.4z"/>
   <g>
    <path class="fil8" d="M383.22 533.6c-4.41,-8.37 -7.61,-17.2 -9.61,-26.23l-25.01 -6.75 1.76 -42.83 25.48 -4.68c2.73,-8.83 6.65,-17.37 11.73,-25.35l-12.9 -22.46 31.53 -29.03 21.31 14.7c8.38,-4.41 17.21,-7.61 26.24,-9.61l6.76 -25.01 42.82 1.76 4.68 25.48c8.83,2.73 17.37,6.65 25.35,11.73l22.46 -12.9 29.03 31.53 -14.7 21.31c4.41,8.38 7.61,17.21 9.61,26.24l25.01 6.76 -1.76 42.82 -25.48 4.68c-2.73,8.83 -6.65,17.37 -11.73,25.35l12.9 22.46 -31.53 29.03 -21.31 -14.7c-8.38,4.41 -17.21,7.62 -26.24,9.62l-6.75 25 -42.83 -1.76 -4.68 -25.48c-8.83,-2.73 -17.37,-6.65 -25.35,-11.73l-22.46 12.9 -29.03 -31.53 14.7 -21.32zm53.53 -25.61l0 0c16.9,25.69 52.73,28.05 72.88,5.68 13.74,-15.26 15.64,-38.5 4.36,-55.65 -16.9,-25.69 -52.74,-28.06 -72.9,-5.67 -13.73,15.25 -15.63,38.49 -4.34,55.64z"/>
    <path class="fil9" d="M383.22 533.6c-4.41,-8.37 -7.61,-17.2 -9.61,-26.23l-25.01 -6.75 1.76 -42.83 25.48 -4.68c2.73,-8.83 6.65,-17.37 11.73,-25.35l-12.9 -22.46 31.53 -29.03 21.31 14.7c8.38,-4.41 17.21,-7.61 26.24,-9.61l6.76 -25.01 42.82 1.76 4.68 25.48c8.83,2.73 17.37,6.65 25.35,11.73l22.46 -12.9 29.03 31.53 -14.7 21.31c4.41,8.38 7.61,17.21 9.61,26.24l25.01 6.76 -1.76 42.82 -25.48 4.68c-2.73,8.83 -6.65,17.37 -11.73,25.35l12.9 22.46 -31.53 29.03 -21.31 -14.7c-8.38,4.41 -17.21,7.62 -26.24,9.62l-6.75 25 -42.83 -1.76 -4.68 -25.48c-8.83,-2.73 -17.37,-6.65 -25.35,-11.73l-22.46 12.9 -29.03 -31.53 14.7 -21.32zm53.53 -25.61l0 0c16.9,25.69 52.73,28.05 72.88,5.68 13.74,-15.26 15.64,-38.5 4.36,-55.65 -16.9,-25.69 -52.74,-28.06 -72.9,-5.67 -13.73,15.25 -15.63,38.49 -4.34,55.64z"/>
   </g>
   <g>
    <g>
     <g>
      <g>
       <g>
        <g>
         <path class="fil10" d="M557.2 595.43c4.32,-10.97 10.03,-21.16 16.88,-30.36l-13.56 -29.26 41.43 -32.96 24.62 20.46c10.43,-4.55 21.52,-7.73 33.03,-9.35l10.73 -30.43 52.19 6.52 3.2 32.16c10.78,4.4 20.79,10.22 29.83,17.19l28.75 -13.79 32.38 42.16 -20.1 25.07c4.46,10.61 7.58,21.9 9.18,33.61l29.89 10.93 -6.39 53.12 -31.61 3.25c-4.32,10.98 -10.03,21.16 -16.89,30.37l13.56 29.26 -41.43 32.96 -24.62 -20.46c-10.43,4.54 -21.52,7.72 -33.03,9.34l-10.73 30.43 -52.19 -6.51 -3.2 -32.17c-10.78,-4.4 -20.79,-10.21 -29.83,-17.19l-28.75 13.8 -32.37 -42.17 20.09 -25.06c-4.46,-10.62 -7.58,-21.91 -9.17,-33.62l-29.9 -10.92 6.4 -53.13 31.61 -3.25zm66.47 30.22l0 0c-10.59,36.85 15.67,72.85 52.6,73.93 25.18,0.74 48.41,-16.25 55.49,-40.86 10.59,-36.85 -15.68,-72.87 -52.62,-73.95 -25.18,-0.73 -48.41,16.27 -55.47,40.88z"/>
         <path class="fil11" d="M557.2 595.43c4.32,-10.97 10.03,-21.16 16.88,-30.36l-13.56 -29.26 41.43 -32.96 24.62 20.46c10.43,-4.55 21.52,-7.73 33.03,-9.35l10.73 -30.43 52.19 6.52 3.2 32.16c10.78,4.4 20.79,10.22 29.83,17.19l28.75 -13.79 32.38 42.16 -20.1 25.07c4.46,10.61 7.58,21.9 9.18,33.61l29.89 10.93 -6.39 53.12 -31.61 3.25c-4.32,10.98 -10.03,21.16 -16.89,30.37l13.56 29.26 -41.43 32.96 -24.62 -20.46c-10.43,4.54 -21.52,7.72 -33.03,9.34l-10.73 30.43 -52.19 -6.51 -3.2 -32.17c-10.78,-4.4 -20.79,-10.21 -29.83,-17.19l-28.75 13.8 -32.37 -42.17 20.09 -25.06c-4.46,-10.62 -7.58,-21.91 -9.17,-33.62l-29.9 -10.92 6.4 -53.13 31.61 -3.25zm66.47 30.22l0 0c-10.59,36.85 15.67,72.85 52.6,73.93 25.18,0.74 48.41,-16.25 55.49,-40.86 10.59,-36.85 -15.68,-72.87 -52.62,-73.95 -25.18,-0.73 -48.41,16.27 -55.47,40.88z"/>
         <g>
          <g>
           <path class="fil7" d="M557.2 595.43c4.32,-10.97 10.03,-21.16 16.88,-30.36l-13.56 -29.26 41.43 -32.96 24.62 20.46c10.43,-4.55 21.52,-7.73 33.03,-9.35l10.73 -30.43 52.19 6.52 3.2 32.16c10.78,4.4 20.79,10.22 29.83,17.19l28.75 -13.79 32.38 42.16 -20.1 25.07c4.46,10.61 7.58,21.9 9.18,33.61l29.89 10.93 -6.39 53.12 -31.61 3.25c-4.32,10.98 -10.03,21.16 -16.89,30.37l13.56 29.26 -41.43 32.96 -24.62 -20.46c-10.43,4.54 -21.52,7.72 -33.03,9.34l-10.73 30.43 -52.19 -6.51 -3.2 -32.17c-10.78,-4.4 -20.79,-10.21 -29.83,-17.19l-28.75 13.8 -32.37 -42.17 20.09 -25.06c-4.46,-10.62 -7.58,-21.91 -9.17,-33.62l-29.9 -10.92 6.4 -53.13 31.61 -3.25zm66.47 30.22l0 0c-10.59,36.85 15.67,72.85 52.6,73.93 25.18,0.74 48.41,-16.25 55.49,-40.86 10.59,-36.85 -15.68,-72.87 -52.62,-73.95 -25.18,-0.73 -48.41,16.27 -55.47,40.88z"/>
          </g>
          <g>
           <path class="fil2" d="M623.67 625.65c0,0 0.07,-0.31 0.25,-0.89 0.2,-0.61 0.47,-1.46 0.83,-2.58 0.76,-2.26 2.13,-5.52 4.33,-9.48 2.33,-3.89 5.59,-8.45 10.3,-12.86 0.6,-0.54 1.16,-1.14 1.81,-1.66 0.65,-0.53 1.31,-1.06 1.98,-1.6 1.31,-1.13 2.83,-2.05 4.33,-3.1 0.74,-0.54 1.57,-0.97 2.38,-1.44 0.82,-0.46 1.65,-0.93 2.49,-1.4 0.88,-0.41 1.76,-0.82 2.66,-1.24 0.45,-0.21 0.9,-0.42 1.36,-0.63 0.47,-0.18 0.94,-0.35 1.42,-0.53 0.95,-0.35 1.91,-0.71 2.89,-1.07 1,-0.28 2.01,-0.56 3.04,-0.85 0.51,-0.14 1.02,-0.28 1.54,-0.43 0.53,-0.1 1.06,-0.2 1.6,-0.3 1.06,-0.19 2.14,-0.43 3.24,-0.58 2.2,-0.22 4.45,-0.53 6.76,-0.49 1.15,-0.01 2.32,-0.07 3.49,0.04 1.17,0.06 2.36,0.11 3.54,0.28 4.75,0.53 9.6,1.68 14.35,3.53 4.75,1.84 9.35,4.47 13.63,7.73 4.29,3.24 8.13,7.27 11.48,11.79 3.28,4.58 6.03,9.7 7.92,15.24 3.9,11.05 4.22,23.73 0.81,35.67 -3.42,11.98 -10.86,22.32 -20.17,29.4 -9.3,7.14 -20.41,11.04 -31.15,11.64 -10.77,0.59 -21.03,-2.08 -29.44,-6.57 -8.46,-4.51 -15.02,-10.89 -19.68,-17.52 -4.71,-6.65 -7.4,-13.63 -8.94,-19.87 -1.44,-6.29 -1.73,-11.89 -1.49,-16.41 0.24,-4.54 0.98,-7.99 1.47,-10.32 0.3,-1.14 0.54,-2.01 0.7,-2.62 0.16,-0.59 0.27,-0.88 0.27,-0.88 0,0 -0.06,0.31 -0.2,0.9 -0.15,0.62 -0.36,1.49 -0.63,2.63 -0.44,2.33 -1.14,5.79 -1.33,10.3 -0.2,4.51 0.13,10.07 1.6,16.31 1.56,6.19 4.27,13.1 8.96,19.67 4.64,6.55 11.16,12.85 19.55,17.29 8.33,4.42 18.48,7.04 29.12,6.44 10.61,-0.62 21.58,-4.48 30.77,-11.55 9.19,-7 16.53,-17.21 19.91,-29.04 3.36,-11.8 3.06,-24.32 -0.79,-35.24 -1.86,-5.48 -4.58,-10.55 -7.81,-15.07 -3.3,-4.47 -7.09,-8.46 -11.33,-11.67 -4.23,-3.23 -8.76,-5.84 -13.46,-7.67 -4.69,-1.84 -9.48,-2.99 -14.18,-3.52 -1.17,-0.17 -2.35,-0.22 -3.51,-0.29 -1.16,-0.11 -2.31,-0.06 -3.45,-0.05 -2.29,-0.05 -4.51,0.25 -6.7,0.46 -1.09,0.14 -2.15,0.39 -3.21,0.57 -0.53,0.1 -1.05,0.2 -1.58,0.29 -0.51,0.14 -1.02,0.28 -1.53,0.42 -1.02,0.28 -2.02,0.56 -3.01,0.83 -0.97,0.35 -1.93,0.7 -2.87,1.05 -7.57,2.8 -13.64,7.11 -18.34,11.42 -4.7,4.36 -7.98,8.87 -10.33,12.71 -2.23,3.92 -3.64,7.15 -4.44,9.38 -0.38,1.11 -0.68,1.96 -0.89,2.56 -0.2,0.58 -0.32,0.87 -0.32,0.87z"/>
          </g>
          <g>
           <path class="fil2" d="M557.2 595.43c0,0 -0.68,0.09 -2.02,0.23 -1.35,0.15 -3.36,0.36 -6.01,0.65 -5.33,0.56 -13.24,1.4 -23.57,2.49l0.1 -0.1c-1.61,13.46 -3.74,31.38 -6.33,53.13l-0.12 -0.19c9.06,3.3 19.13,6.97 29.91,10.9l0.12 0.04 0.01 0.13c1.49,10.81 4.41,22.2 9.19,33.55l0.05 0.13 -0.08 0.11c-6.26,7.81 -13.04,16.27 -20.09,25.07l0.01 -0.31c10.2,13.27 21.02,27.35 32.4,42.15l-0.35 -0.08c8.9,-4.28 18.7,-8.98 28.74,-13.81l0.16 -0.08 0.15 0.11c8.45,6.53 18.63,12.61 29.77,17.14l0.17 0.07 0.02 0.18c0.99,9.97 2.09,20.97 3.2,32.17l-0.27 -0.29c16.39,2.04 34.07,4.25 52.19,6.5l-0.35 0.22c3.34,-9.48 7.01,-19.89 10.73,-30.43l0.06 -0.2 0.21 -0.03c10.62,-1.48 22.05,-4.56 32.93,-9.32l0.2 -0.08 0.16 0.13c7.71,6.41 16.13,13.4 24.63,20.46l-0.44 -0.01c13.11,-10.43 27.17,-21.62 41.42,-32.96l-0.1 0.43c-4.28,-9.24 -8.9,-19.22 -13.56,-29.26l-0.09 -0.19 0.13 -0.17c6.58,-8.83 12.48,-19.18 16.83,-30.26l0.01 -0.03 0.08 -0.2 0.22 -0.02c10.6,-1.09 21.14,-2.17 31.6,-3.25l-0.32 0.31c2.16,-17.94 4.3,-35.66 6.4,-53.12l0.23 0.37c-10.06,-3.68 -20.03,-7.32 -29.89,-10.93l-0.2 -0.08 -0.03 -0.2c-1.58,-11.66 -4.7,-22.95 -9.15,-33.53l-0.08 -0.19 0.13 -0.16c6.8,-8.47 13.49,-16.82 20.1,-25.06l0 0.42c-11.06,-14.4 -21.85,-28.46 -32.37,-42.17l0.4 0.09c-9.75,4.68 -19.34,9.28 -28.75,13.79l-0.18 0.09 -0.15 -0.12c-9.29,-7.17 -19.36,-12.91 -29.76,-17.16l-0.17 -0.07 -0.02 -0.19c-1.09,-11.03 -2.15,-21.72 -3.18,-32.16l0.26 0.26c-18.35,-2.3 -35.69,-4.47 -52.19,-6.54l0.29 -0.18c-3.78,10.7 -7.33,20.75 -10.75,30.43l-0.05 0.15 -0.16 0.02c-12.12,1.71 -23.07,5.01 -32.97,9.3l-0.13 0.06 -0.11 -0.09c-8.94,-7.45 -17,-14.15 -24.6,-20.48l0.26 0.01c-16.06,12.75 -29.75,23.62 -41.46,32.91l0.05 -0.19c5.4,11.71 9.84,21.32 13.51,29.28l0.03 0.06 -0.04 0.06c-7,9.42 -11.01,17.21 -13.5,22.4 -1.25,2.61 -2.08,4.6 -2.64,5.91 -0.56,1.34 -0.83,1.98 -0.83,1.98 0,0 0.25,-0.68 0.77,-2 0.55,-1.32 1.36,-3.32 2.59,-5.94 2.46,-5.21 6.44,-13.03 13.42,-22.49l-0.01 0.12c-3.69,-7.95 -8.16,-17.55 -13.59,-29.25l-0.06 -0.11 0.1 -0.08c11.69,-9.32 25.36,-20.21 41.4,-33l0.13 -0.1 0.14 0.11c7.61,6.32 15.67,13.01 24.63,20.44l-0.24 -0.04c9.93,-4.32 20.92,-7.65 33.08,-9.38l-0.2 0.17c3.41,-9.69 6.95,-19.74 10.72,-30.44l0.07 -0.21 0.22 0.03c16.5,2.05 33.84,4.21 52.19,6.49l0.24 0.03 0.02 0.24c1.04,10.44 2.11,21.13 3.21,32.16l-0.19 -0.25c10.45,4.26 20.57,10.02 29.91,17.22l-0.34 -0.03c9.42,-4.53 19,-9.13 28.75,-13.81l0.23 -0.11 0.17 0.21c10.53,13.7 21.33,27.76 32.39,42.16l0.16 0.21 -0.17 0.21c-6.61,8.24 -13.3,16.58 -20.09,25.06l0.05 -0.35c4.47,10.63 7.61,21.99 9.2,33.7l-0.22 -0.28c9.86,3.61 19.83,7.25 29.89,10.93l0.27 0.1 -0.04 0.27c-2.1,17.47 -4.23,35.19 -6.39,53.12l-0.03 0.29 -0.29 0.03c-10.46,1.07 -21,2.16 -31.6,3.25l0.29 -0.22 -0.01 0.03c-4.37,11.13 -10.3,21.54 -16.92,30.41l0.04 -0.36c4.65,10.05 9.27,20.02 13.55,29.26l0.12 0.25 -0.22 0.18c-14.25,11.34 -28.31,22.52 -41.43,32.95l-0.22 0.18 -0.22 -0.18c-8.5,-7.07 -16.91,-14.06 -24.62,-20.47l0.36 0.06c-10.95,4.77 -22.43,7.86 -33.12,9.35l0.27 -0.22c-3.72,10.55 -7.39,20.96 -10.74,30.43l-0.09 0.26 -0.26 -0.04c-18.12,-2.26 -35.8,-4.48 -52.19,-6.53l-0.25 -0.03 -0.03 -0.25c-1.11,-11.2 -2.2,-22.2 -3.18,-32.17l0.19 0.26c-11.19,-4.56 -21.41,-10.68 -29.9,-17.24l0.31 0.03c-10.05,4.82 -19.86,9.52 -28.76,13.78l-0.2 0.1 -0.14 -0.18c-11.36,-14.8 -22.17,-28.9 -32.35,-42.18l-0.13 -0.16 0.13 -0.16c7.06,-8.79 13.84,-17.24 20.11,-25.05l-0.03 0.24c-4.78,-11.4 -7.7,-22.83 -9.17,-33.68l0.14 0.17c-10.77,-3.95 -20.84,-7.64 -29.89,-10.96l-0.14 -0.04 0.02 -0.15c2.65,-21.74 4.83,-39.65 6.46,-53.11l0.02 -0.09 0.09 -0.01c10.32,-1.03 18.21,-1.83 23.53,-2.36 2.66,-0.26 4.68,-0.46 6.04,-0.6 1.35,-0.13 2.05,-0.18 2.05,-0.18z"/>
          </g>
         </g>
        </g>
       </g>
       <g>
        <g>
         <g>
          <path class="fil8" d="M557.2 595.43c4.32,-10.97 10.03,-21.16 16.88,-30.36l-13.56 -29.26 41.43 -32.96 24.62 20.46c10.43,-4.55 21.52,-7.73 33.03,-9.35l10.73 -30.43 52.19 6.52 3.2 32.16c10.78,4.4 20.79,10.22 29.83,17.19l28.75 -13.79 32.38 42.16 -20.1 25.07c4.46,10.61 7.58,21.9 9.18,33.61l29.89 10.93 -6.39 53.12 -31.61 3.25c-4.32,10.98 -10.03,21.16 -16.89,30.37l13.56 29.26 -41.43 32.96 -24.62 -20.46c-10.43,4.54 -21.52,7.72 -33.03,9.34l-10.73 30.43 -52.19 -6.51 -3.2 -32.17c-10.78,-4.4 -20.79,-10.21 -29.83,-17.19l-28.75 13.8 -32.37 -42.17 20.09 -25.06c-4.46,-10.62 -7.58,-21.91 -9.17,-33.62l-29.9 -10.92 6.4 -53.13 31.61 -3.25zm66.47 30.22l0 0c-10.59,36.85 15.67,72.85 52.6,73.93 25.18,0.74 48.41,-16.25 55.49,-40.86 10.59,-36.85 -15.68,-72.87 -52.62,-73.95 -25.18,-0.73 -48.41,16.27 -55.47,40.88z"/>
         </g>
        </g>
       </g>
      </g>
     </g>
    </g>
   </g>
  </g>
 </g>
</svg>
