<?xml version="1.0" encoding="UTF-8"?>
<!DOCTYPE svg PUBLIC "-//W3C//DTD SVG 1.1//EN" "http://www.w3.org/Graphics/SVG/1.1/DTD/svg11.dtd">

<svg xmlns="http://www.w3.org/2000/svg" xml:space="preserve" width="1975px" height="1862px" version="1.1" style="shape-rendering:geometricPrecision; text-rendering:geometricPrecision; image-rendering:optimizeQuality; fill-rule:evenodd; clip-rule:evenodd"
viewBox="0 0 1977.24 1864.24"
 xmlns:xlink="http://www.w3.org/1999/xlink"
 >
 <defs>
  <style type="text/css">
   <![CDATA[
    .fil16 {fill:#FEFEFE}
    .fil12 {fill:white}
    .fil15 {fill:#FEFEFE;fill-rule:nonzero}
    .fil4 {fill:#263138;fill-rule:nonzero}
    .fil6 {fill:#3880FF;fill-rule:nonzero}
    .fil5 {fill:#445964;fill-rule:nonzero}
    .fil3 {fill:#DFDFDF;fill-rule:nonzero}
    .fil11 {fill:#EB996E;fill-rule:nonzero}
    .fil2 {fill:#EBEBEB;fill-rule:nonzero}
    .fil0 {fill:#F4F4F4;fill-rule:nonzero}
    .fil1 {fill:#F9F9F9;fill-rule:nonzero}
    .fil10 {fill:#FFBD9C;fill-rule:nonzero}
    .fil14 {fill:white;fill-rule:nonzero}
    .fil9 {fill:black;fill-rule:nonzero;fill-opacity:0.301961}
    .fil13 {fill:white;fill-rule:nonzero;fill-opacity:0.301961}
    .fil8 {fill:white;fill-rule:nonzero;fill-opacity:0.600000}
    .fil7 {fill:white;fill-rule:nonzero;fill-opacity:0.800000}
   ]]>
  </style>
 </defs>
 <g id="Background_x0020_Complete">

  <g id="_2747715872400">
   <g>
    <path class="fil0" d="M1653.01 737.4c-55.2,-80.29 -183.89,-95.83 -256.61,-30.98 -1.49,-65.22 -44.68,-127.6 -105.2,-151.94 -60.52,-24.35 -134.88,-9.26 -181.11,36.75 10.42,-36.49 -27.9,-72.07 -65.8,-74.04 -37.9,-1.98 -72.92,18.41 -105.44,37.98 -32.51,19.57 -67.78,39.71 -105.65,37.15 -40.99,-2.77 -75.08,-31.36 -113.4,-46.18 -93.76,-36.25 -212.43,28.09 -233.21,126.44 -103.78,-41.89 -236.94,26.71 -263.07,135.53l1519.62 17.74c-10.24,-43.19 -46.75,-79.02 -90.13,-88.45z"/>
   </g>
  </g>
  <g id="_2747715871584">
   <g>
    <g>
     <path class="fil1" d="M1591.85 248.37c2.63,-19.09 -24.32,-34.8 -44.57,-36.43 -9.66,-0.78 -19.69,0.7 -28.83,-2.49 -19.82,-6.91 -27.74,-32.52 -47.08,-40.67 -14.46,-6.1 -31.1,-0.67 -45.12,6.38 -14.02,7.06 -27.87,15.93 -43.53,16.94 -13.62,0.87 -28.41,-4.18 -40.33,2.47 -8.88,4.96 -13.53,15.19 -21.71,21.23 -8.01,5.91 -18.46,7.16 -28.39,7.7 -9.94,0.54 -20.23,0.64 -29.27,4.78 -9.05,4.14 -16.53,13.71 -14.66,23.48l343.49 -3.39z"/>
    </g>
   </g>
  </g>
  <g id="_2747715870000">
   <g>
    <g>
     <path class="fil1" d="M269.05 91.28c1.46,-10.65 -13.57,-19.42 -24.87,-20.33 -5.39,-0.43 -10.99,0.39 -16.09,-1.39 -11.06,-3.85 -15.48,-18.14 -26.27,-22.69 -8.07,-3.4 -17.35,-0.37 -25.18,3.56 -7.82,3.94 -15.54,8.89 -24.28,9.45 -7.6,0.49 -15.86,-2.33 -22.51,1.38 -4.95,2.77 -7.55,8.48 -12.12,11.85 -4.46,3.29 -10.29,3.99 -15.84,4.29 -5.54,0.3 -11.28,0.36 -16.33,2.67 -5.05,2.31 -9.22,7.65 -8.17,13.1l191.66 -1.89z"/>
    </g>
   </g>
  </g>
  <g id="_2747715905952">
   <g>
    <g>
     <path class="fil2" d="M1835.38 443.15c3.02,-21.95 -27.96,-40.01 -51.23,-41.88 -11.1,-0.9 -22.63,0.8 -33.15,-2.87 -22.78,-7.94 -31.88,-37.37 -54.11,-46.75 -16.62,-7.01 -35.76,-0.77 -51.87,7.34 -16.11,8.11 -32.04,18.31 -50.04,19.47 -15.66,1 -32.66,-4.81 -46.36,2.84 -10.21,5.7 -15.56,17.46 -24.96,24.4 -9.21,6.79 -21.22,8.23 -32.64,8.85 -11.42,0.62 -23.24,0.74 -33.64,5.5 -10.4,4.76 -19.01,15.76 -16.85,26.99l394.85 -3.89z"/>
    </g>
   </g>
  </g>
  <g id="_2747715905136">
   <g>
    <g>
     <path class="fil2" d="M1792.87 66.54c2.12,-15.45 -19.68,-28.16 -36.06,-29.48 -7.82,-0.63 -15.93,0.57 -23.33,-2.01 -16.04,-5.59 -22.44,-26.31 -38.09,-32.91 -11.7,-4.93 -25.17,-0.54 -36.51,5.17 -11.34,5.7 -22.55,12.89 -35.22,13.7 -11.02,0.7 -22.99,-3.38 -32.63,2 -7.19,4.01 -10.95,12.29 -17.57,17.18 -6.48,4.78 -14.94,5.79 -22.97,6.23 -8.04,0.43 -16.37,0.51 -23.69,3.87 -7.32,3.35 -13.37,11.09 -11.85,18.99l277.92 -2.74z"/>
    </g>
   </g>
  </g>
  <g id="_2747715906624">
   <g>
    <g>
     <path class="fil2" d="M331.82 435.44c1.58,-11.5 -14.64,-20.96 -26.83,-21.94 -5.81,-0.47 -11.85,0.42 -17.36,-1.5 -11.93,-4.16 -16.7,-19.57 -28.34,-24.48 -8.71,-3.67 -18.73,-0.41 -27.17,3.84 -8.43,4.25 -16.77,9.59 -26.2,10.2 -8.2,0.52 -17.11,-2.52 -24.28,1.49 -5.35,2.98 -8.15,9.14 -13.08,12.78 -4.82,3.55 -11.11,4.31 -17.09,4.63 -5.98,0.33 -12.17,0.39 -17.62,2.88 -5.45,2.49 -9.95,8.25 -8.82,14.14l206.79 -2.04z"/>
    </g>
   </g>
  </g>
  <g id="_2747715905760">
   <g>
    <g>
     <path class="fil0" d="M760.64 259.1c3.35,-24.29 -30.93,-44.27 -56.69,-46.35 -12.29,-0.99 -25.04,0.89 -36.68,-3.17 -25.21,-8.78 -35.29,-41.36 -59.89,-51.73 -18.39,-7.76 -39.57,-0.86 -57.4,8.12 -17.83,8.97 -35.45,20.27 -55.37,21.54 -17.33,1.11 -36.15,-5.31 -51.31,3.15 -11.29,6.31 -17.21,19.32 -27.63,27 -10.18,7.52 -23.47,9.11 -36.11,9.8 -12.64,0.68 -25.72,0.81 -37.23,6.08 -11.51,5.27 -21.03,17.44 -18.64,29.87l436.95 -4.31z"/>
    </g>
   </g>
  </g>
  <g id="_2747715904224">
   <g>
    <g>
     <g>
      <path class="fil2" d="M60.83 1130.84c0,0 -35.55,5.05 -15.35,82.88 20.2,77.83 37.26,117.92 37.26,117.92 0,0 2.73,17.64 -11.49,17.14 -14.23,-0.5 -43.26,-11.97 -53.05,3.41 -10.15,15.95 -1.17,35.1 21.19,55.1 22.37,20.01 69.76,65.64 74.03,69.78 4.2,4.07 7.39,12.7 -2.35,13.91 -9.75,1.22 -79,-6.7 -80.79,26.38 -1.79,33.09 69.68,78.58 77.4,83.71 7.72,5.12 8.94,9.14 7.23,13.63 -1.71,4.47 -24.74,-0.38 -44.53,-1.83 -19.79,-1.44 -42.98,0.35 -42.42,19.53 0.57,19.17 38.17,67.52 147.55,103.22l51.76 13.23 38.12 -37.77c76.67,-85.8 84.91,-146.49 75.77,-163.36 -9.14,-16.86 -30.1,-6.77 -46.49,4.42 -16.39,11.19 -33.86,26.95 -37.59,23.93 -3.73,-3.01 -4.69,-7.1 -0.59,-15.41 4.1,-8.31 43.06,-83.54 24.9,-111.25 -18.16,-27.72 -74.07,13.91 -83.11,17.75 -9.04,3.85 -10.61,-5.22 -9.02,-10.84 1.61,-5.73 19.68,-68.99 28.98,-97.52 9.3,-28.54 7.44,-49.6 -9.34,-58.3 -16.19,-8.38 -35.54,16.11 -47.59,23.69 -12.05,7.57 -18.54,-9.05 -18.54,-9.05 0,0 -5.38,-43.24 -27,-120.69 -21.61,-77.45 -55.65,-63.46 -55.65,-63.46l0.71 -0.15z"/>
     </g>
    </g>
   </g>
   <g>
    <g>
     <g>
      <g>
       <path class="fil3" d="M227.26 1761.71c-15.65,-56.94 -41.76,-158.62 -64.64,-245.79 -22.86,-87.15 -43.63,-166.03 -58.99,-223.05 -7.7,-28.45 -13.93,-51.5 -18.26,-67.51 -2.14,-7.91 -3.8,-14.09 -4.95,-18.35 -0.54,-2.06 -0.95,-3.65 -1.25,-4.79 -0.27,-1.08 -0.37,-1.65 -0.37,-1.65 0,0 0.21,0.54 0.54,1.6 0.33,1.14 0.8,2.71 1.4,4.75 1.22,4.24 2.99,10.39 5.25,18.27 4.55,15.88 10.96,38.9 18.77,67.37 15.65,56.95 36.6,135.79 59.47,222.93 22.87,87.18 48.8,188.89 64.16,245.91l-1.13 0.31z"/>
      </g>
     </g>
    </g>
   </g>
   <g>
    <g>
     <g>
      <g>
       <path class="fil3" d="M58.17 1369.86c0.06,-0.1 1.27,0.55 3.41,1.82 2.15,1.25 5.19,3.15 8.94,5.54 7.47,4.78 17.63,11.66 28.71,19.45 10.89,7.72 20.73,14.7 28.27,20.04 3.41,2.38 6.29,4.4 8.6,6.01 2.04,1.42 3.14,2.24 3.08,2.34 -0.06,0.1 -1.28,-0.54 -3.43,-1.79 -2.14,-1.26 -5.19,-3.16 -8.91,-5.59 -7.43,-4.86 -17.5,-11.87 -28.57,-19.66 -10.94,-7.63 -20.83,-14.54 -28.4,-19.83 -3.43,-2.37 -6.32,-4.37 -8.64,-5.97 -2.03,-1.43 -3.12,-2.27 -3.06,-2.36z"/>
      </g>
     </g>
    </g>
   </g>
   <g>
    <g>
     <g>
      <g>
       <path class="fil3" d="M143.48 1422.52c-0.39,-0.25 12.86,-21.82 29.59,-48.17 16.73,-26.36 30.61,-47.53 30.99,-47.28 0.39,0.24 -12.86,21.81 -29.59,48.17 -16.73,26.35 -30.61,47.52 -30.99,47.28z"/>
      </g>
     </g>
    </g>
   </g>
   <g>
    <g>
     <g>
      <g>
       <path class="fil3" d="M172.56 1557.95c-0.07,-0.09 0.94,-1.06 2.83,-2.75 2.16,-1.9 4.85,-4.27 8.05,-7.08 6.78,-5.99 16.12,-14.31 26.08,-23.85 9.99,-9.53 18.73,-18.47 25,-24.99 2.96,-3.07 5.45,-5.65 7.45,-7.72 1.76,-1.82 2.78,-2.78 2.87,-2.71 0.08,0.08 -0.77,1.19 -2.4,3.14 -1.62,1.95 -4.02,4.72 -7.06,8.09 -6.06,6.73 -14.7,15.83 -24.71,25.39 -10,9.57 -19.48,17.77 -26.47,23.54 -3.51,2.87 -6.37,5.16 -8.4,6.69 -2.02,1.53 -3.17,2.34 -3.24,2.25z"/>
      </g>
     </g>
    </g>
   </g>
   <g>
    <g>
     <g>
      <g>
       <path class="fil3" d="M84.91 1527.3c0.04,-0.1 1.3,0.2 3.55,0.85 2.58,0.79 5.75,1.76 9.48,2.9 7.98,2.52 18.97,6.11 31.08,10.17 12.11,4.06 23.04,7.83 30.93,10.63 3.67,1.34 6.77,2.47 9.31,3.4 2.18,0.84 3.38,1.35 3.34,1.46 -0.04,0.11 -1.3,-0.2 -3.55,-0.85 -2.58,-0.79 -5.74,-1.76 -9.48,-2.9 -7.98,-2.52 -18.97,-6.11 -31.08,-10.17 -12.1,-4.06 -23.04,-7.82 -30.92,-10.62 -3.67,-1.34 -6.78,-2.48 -9.31,-3.4 -2.19,-0.84 -3.38,-1.36 -3.35,-1.47z"/>
      </g>
     </g>
    </g>
   </g>
   <g>
    <g>
     <g>
      <g>
       <path class="fil3" d="M95.4 1650.13c0.03,-0.11 1.64,0.3 4.53,1.13 3.17,0.96 7.25,2.19 12.16,3.67 10.25,3.17 24.37,7.66 39.93,12.72 15.57,5.05 29.64,9.72 39.79,13.18 4.84,1.68 8.87,3.08 12,4.17 2.82,1.02 4.37,1.64 4.33,1.75 -0.04,0.1 -1.65,-0.3 -4.53,-1.14 -3.17,-0.95 -7.25,-2.19 -12.16,-3.67 -10.25,-3.17 -24.37,-7.66 -39.94,-12.71 -15.56,-5.06 -29.63,-9.72 -39.78,-13.18 -4.84,-1.68 -8.88,-3.09 -12,-4.17 -2.82,-1.03 -4.37,-1.64 -4.33,-1.75z"/>
      </g>
     </g>
    </g>
   </g>
   <g>
    <g>
     <g>
      <g>
       <path class="fil3" d="M205.69 1685.11c-0.08,-0.08 1.17,-1.35 3.5,-3.57 2.55,-2.42 5.87,-5.56 9.88,-9.35 8.33,-7.91 19.8,-18.87 32.11,-31.32 12.34,-12.44 23.21,-24 31.02,-32.41 3.76,-4.05 6.87,-7.4 9.26,-9.97 2.2,-2.35 3.45,-3.61 3.54,-3.53 0.08,0.07 -1.01,1.48 -3.06,3.96 -2.04,2.47 -5.06,6.01 -8.87,10.32 -7.6,8.63 -18.35,20.33 -30.71,32.8 -12.34,12.47 -23.95,23.32 -32.5,31.01 -4.28,3.83 -7.78,6.9 -10.24,8.97 -2.46,2.07 -3.85,3.18 -3.93,3.09z"/>
      </g>
     </g>
    </g>
   </g>
  </g>
  <g id="_2747715844128">
   <g>
    <g>
     <g>
      <g>
       <g>
        <g>
         <path class="fil0" d="M1705.61 1765.93c-86.46,-47.86 -118.94,-154.34 -129.01,-252.69 -1.69,-16.42 -5.68,-33.42 -0.34,-48.77 5.34,-15.34 20.99,-27.48 35.6,-22.48 12.12,4.15 18.97,17.59 26.89,28.39 10.55,14.38 24.86,25.5 40.78,31.67 10.47,4.06 22.95,5.71 31.8,-1.29 12.14,-9.59 11.07,-29.29 8.79,-45.53 -4.26,-30.28 -8.51,-60.56 -12.76,-90.83 -2.29,-16.24 -4.57,-32.84 -1.91,-48.92 2.65,-16.08 11.17,-31.85 25.05,-38.18 13.88,-6.32 32.96,0.13 38.16,15.62 2.16,6.44 1.83,13.49 3.16,20.18 1.33,6.69 5.27,13.75 11.52,14.81 6.33,1.07 11.79,-4.38 15.69,-9.77 13.49,-18.57 21.29,-41.19 28.41,-63.59 7.12,-22.4 13.89,-45.26 25.71,-65.13 11.83,-19.87 29.62,-36.77 51.22,-41.09 21.6,-4.32 46.73,6.85 55.31,28.95 8.6,22.16 -0.78,47.14 -11.89,67.57 -16.48,30.31 -37.09,57.94 -60.97,81.76 -4.3,4.3 -8.97,8.95 -9.99,15.22 -1.84,11.29 9.21,20.73 19.7,22.92 11.87,2.47 24,-0.48 36.06,-0.62 12.05,-0.15 25.65,3.67 31.75,15.04 8.46,15.75 -2.19,34.97 -13.45,48.14 -22.53,26.37 -49.34,48.45 -78.89,64.97 -10.59,5.92 -21.85,11.38 -29.74,21.02 -7.88,9.65 -11.36,25.01 -4.37,35.71 6.99,10.71 21.47,12.45 32.87,8.51 11.4,-3.94 20.98,-12.19 31.53,-18.23 19.76,-11.31 46.95,-13.49 62.94,3.97 10.5,11.48 13.65,29.05 11.24,44.79 -2.41,15.74 -9.68,30.02 -17.64,43.36 -27.84,46.62 -66.16,86.36 -112.21,111.01 -46.05,24.65 -90.3,35.71 -141.01,23.51z"/>
        </g>
       </g>
      </g>
     </g>
    </g>
   </g>
   <g>
    <g>
     <g>
      <g>
       <g>
        <g>
         <g>
          <path class="fil3" d="M1720.99 1701.29c6.83,-51.28 18.69,-106.76 32.97,-164.3 3.62,-14.37 7.2,-28.57 10.72,-42.56 3.56,-13.96 7.07,-27.8 11.3,-41.1 8.35,-26.65 18.3,-51.56 28.43,-74.88 10.13,-23.34 20.54,-45.07 30.42,-65.32 9.92,-20.23 19.51,-38.89 28.93,-55.5 18.74,-33.3 36.84,-58.15 49.92,-74.65 6.52,-8.29 11.78,-14.53 15.4,-18.71 1.75,-1.99 3.11,-3.55 4.15,-4.73 0.94,-1.04 1.44,-1.57 1.48,-1.53 0.04,0.04 -0.39,0.63 -1.27,1.75 -0.98,1.22 -2.28,2.85 -3.93,4.93 -3.48,4.31 -8.6,10.67 -14.99,19.06 -12.8,16.72 -30.58,41.68 -49.05,75.03 -9.29,16.63 -18.75,35.31 -28.56,55.56 -9.78,20.29 -20.1,42.03 -30.14,65.34 -10.05,23.29 -19.89,48.14 -28.16,74.65 -4.19,13.23 -7.67,26.96 -11.21,40.96 -3.52,13.98 -7.09,28.18 -10.71,42.54 -14.27,57.49 -26.17,112.81 -33.13,163.91l-2.57 -0.45z"/>
         </g>
        </g>
       </g>
      </g>
     </g>
    </g>
   </g>
   <g>
    <g>
     <g>
      <g>
       <g>
        <g>
         <g>
          <path class="fil3" d="M1776.77 1453.1c-0.19,0.06 -1.04,-2.34 -2.42,-6.73 -1.4,-4.38 -3.24,-10.79 -5.4,-18.74 -4.32,-15.89 -9.6,-38.04 -15.34,-62.48 -5.73,-24.46 -11.29,-46.47 -15.83,-62.25 -2.25,-7.9 -4.13,-14.27 -5.48,-18.66 -1.34,-4.4 -1.99,-6.87 -1.8,-6.94 0.18,-0.07 1.18,2.26 2.83,6.55 1.67,4.28 3.85,10.57 6.34,18.41 5.05,15.68 10.94,37.7 16.68,62.18 5.6,24.14 10.66,45.97 14.53,62.65 1.79,7.53 3.31,13.87 4.52,18.96 1.06,4.48 1.56,6.99 1.37,7.05z"/>
         </g>
        </g>
       </g>
      </g>
     </g>
    </g>
   </g>
   <g>
    <g>
     <g>
      <g>
       <g>
        <g>
         <g>
          <path class="fil3" d="M1966.99 1387.09c0.03,0.2 -2.71,0.93 -7.67,2.07 -4.95,1.17 -12.12,2.82 -20.92,5.16 -17.62,4.54 -41.75,11.72 -68.03,20.88 -26.27,9.22 -49.7,18.65 -66.45,26 -8.41,3.61 -15.13,6.72 -19.79,8.85 -4.66,2.14 -7.27,3.24 -7.36,3.05 -0.09,-0.19 2.37,-1.65 6.88,-4.13 4.53,-2.46 11.14,-5.89 19.47,-9.77 16.59,-7.87 39.99,-17.65 66.34,-26.91 26.35,-9.18 50.66,-16.06 68.47,-20.07 8.88,-2.08 16.15,-3.42 21.18,-4.22 5.04,-0.79 7.84,-1.12 7.88,-0.91z"/>
         </g>
        </g>
       </g>
      </g>
     </g>
    </g>
   </g>
   <g>
    <g>
     <g>
      <g>
       <g>
        <g>
         <g>
          <path class="fil3" d="M1722.88 1697.11c-0.08,0.05 -0.66,-0.76 -1.69,-2.36 -1.17,-1.92 -2.61,-4.27 -4.35,-7.11 -3.77,-6.18 -8.99,-15.28 -15.31,-26.6 -12.65,-22.65 -29.22,-54.5 -47.05,-89.9 -17.85,-35.42 -34.12,-67.39 -46.31,-90.28 -5.97,-11.12 -10.88,-20.26 -14.52,-27.06 -1.57,-2.96 -2.86,-5.39 -3.92,-7.39 -0.86,-1.71 -1.28,-2.63 -1.2,-2.69 0.09,-0.05 0.66,0.77 1.69,2.37 1.18,1.92 2.61,4.26 4.36,7.1 3.76,6.18 8.98,15.28 15.3,26.6 12.66,22.65 29.22,54.5 47.06,89.92 17.85,35.41 34.11,67.37 46.31,90.26 5.96,11.12 10.87,20.27 14.51,27.06 1.57,2.96 2.86,5.4 3.92,7.4 0.87,1.7 1.28,2.63 1.2,2.68z"/>
         </g>
        </g>
       </g>
      </g>
     </g>
    </g>
   </g>
   <g>
    <g>
     <g>
      <g>
       <g>
        <g>
         <g>
          <path class="fil3" d="M1970.59 1571.78c0.03,0.1 -0.8,0.61 -2.43,1.49 -1.93,1.01 -4.3,2.25 -7.18,3.74 -6.64,3.38 -15.61,7.94 -26.52,13.48 -22.39,11.38 -53.14,27.48 -87.09,45.33 -33.96,17.85 -64.89,33.66 -87.51,44.55 -11.31,5.44 -20.51,9.75 -26.92,12.59 -2.96,1.29 -5.41,2.35 -7.4,3.22 -1.7,0.71 -2.62,1.03 -2.66,0.93 -0.04,-0.1 0.8,-0.61 2.42,-1.5 1.93,-1 4.3,-2.23 7.18,-3.73 6.65,-3.38 15.61,-7.93 26.52,-13.48 22.39,-11.38 53.14,-27.48 87.1,-45.33 33.96,-17.85 64.88,-33.66 87.5,-44.55 11.31,-5.45 20.5,-9.75 26.92,-12.59 2.97,-1.29 5.41,-2.36 7.4,-3.22 1.71,-0.71 2.62,-1.03 2.67,-0.93z"/>
         </g>
        </g>
       </g>
      </g>
     </g>
    </g>
   </g>
  </g>
 </g>
 <g id="Floor">

  <g id="_2747715847968">
   <g>
    <g>
     <path class="fil4" d="M1966.66 1862.72c0,0.6 -440.29,1.09 -983.28,1.09 -543.19,0 -983.38,-0.49 -983.38,-1.09 0,-0.6 440.19,-1.09 983.38,-1.09 542.99,0 983.28,0.49 983.28,1.09z"/>
    </g>
   </g>
  </g>
 </g>
 <g id="Device">
  <g id="_2747715850176">
   <g>
    <g>
     <g>
      <g>
       <g>
        <g>
         <g>
          <g>
           <g>
            <g>
             <path class="fil5" d="M1710.63 1839.62l-1470.77 0c-33.56,0 -60.76,-27.21 -60.76,-60.77l0 -931.44c0,-33.56 27.2,-60.77 60.76,-60.77l1470.77 0c33.56,0 60.77,27.21 60.77,60.77l0 931.44c0,33.56 -27.21,60.77 -60.77,60.77z"/>
            </g>
           </g>
          </g>
         </g>
        </g>
       </g>
       <g>
        <g>
         <g>
          <g>
           <g>
            <g>
             <path class="fil5" d="M1769.32 1863.75l-1579.77 0c-40.14,0 -72.68,-32.54 -72.68,-72.69l0 -19.45 1725.14 0 0 19.45c0,40.15 -32.54,72.69 -72.69,72.69z"/>
            </g>
           </g>
          </g>
         </g>
        </g>
       </g>
       <g>
        <g>
         <g>
          <g>
           <g>
            <g>
             <polygon class="fil4" points="1724.21,1717.7 221.84,1717.7 221.84,828.48 1724.21,828.48 "/>
            </g>
           </g>
          </g>
         </g>
        </g>
       </g>
       <g>
        <g>
         <g>
          <g>
           <g>
            <g>
             <polygon class="fil4" points="818.28,1761.74 839.69,1795.79 1140.92,1795.79 1160.8,1761.74 "/>
            </g>
           </g>
          </g>
         </g>
        </g>
       </g>
      </g>
      <g>
       <g>
        <g>
         <g>
          <g>
           <g>
            <g>
             <g>
              <g>
               <g>
                <path class="fil2" d="M1682.7 1714.85l-1416.26 0c-7.54,0 -13.66,-6.11 -13.66,-13.65l0 -828.97c0,-7.54 6.12,-13.65 13.66,-13.65l1416.26 0c7.54,0 13.65,6.11 13.65,13.65l0 828.97c0,7.54 -6.11,13.65 -13.65,13.65z"/>
               </g>
              </g>
             </g>
            </g>
           </g>
          </g>
         </g>
         <g>
          <g>
           <g>
            <g>
             <g>
              <g>
               <g>
                <polygon class="fil1" points="1694.81,1716.11 251.24,1716.11 252.78,922.57 1694.81,922.57 "/>
               </g>
              </g>
             </g>
            </g>
           </g>
          </g>
         </g>
         <g>
          <g>
           <g>
            <g>
             <g>
              <g>
               <g>
                <path class="fil4" d="M371.18 891.65c0,6.37 -5.16,11.53 -11.53,11.53 -6.37,0 -11.53,-5.16 -11.53,-11.53 0,-6.37 5.16,-11.53 11.53,-11.53 6.37,0 11.53,5.16 11.53,11.53z"/>
               </g>
              </g>
             </g>
            </g>
           </g>
          </g>
         </g>
         <g>
          <g>
           <g>
            <g>
             <g>
              <g>
               <g>
                <path class="fil4" d="M301.3 891.65c0,6.37 -5.16,11.53 -11.52,11.53 -6.37,0 -11.53,-5.16 -11.53,-11.53 0,-6.37 5.16,-11.53 11.53,-11.53 6.36,0 11.52,5.16 11.52,11.53z"/>
               </g>
              </g>
             </g>
            </g>
           </g>
          </g>
         </g>
         <g>
          <g>
           <g>
            <g>
             <g>
              <g>
               <g>
                <path class="fil4" d="M334.84 891.65c0,6.37 -5.16,11.53 -11.52,11.53 -6.37,0 -11.53,-5.16 -11.53,-11.53 0,-6.37 5.16,-11.53 11.53,-11.53 6.36,0 11.52,5.16 11.52,11.53z"/>
               </g>
              </g>
             </g>
            </g>
           </g>
          </g>
         </g>
        </g>
       </g>
      </g>
      <g>
       <g>
        <g>
         <g>
          <g>
           <g>
            <path class="fil4" d="M1757.72 1761.74c0,0.57 -353.42,1.03 -789.27,1.03 -436.01,0 -789.35,-0.46 -789.35,-1.03 0,-0.57 353.34,-1.03 789.35,-1.03 435.85,0 789.27,0.46 789.27,1.03z"/>
           </g>
          </g>
         </g>
        </g>
       </g>
      </g>
     </g>
    </g>
   </g>
  </g>
 </g>
 <g id="Rocket">
  <g id="_2747715849168">
   <g>
    <path class="fil6" d="M1239.58 1387.78c-3.86,1.69 -8.47,7.36 -8.24,13.7 0.31,8.31 8.95,15.29 17.14,13.84 8.19,-1.45 13.92,-10.96 11.36,-18.87 -2.56,-7.92 -12.77,-12.29 -20.26,-8.67z"/>
   </g>
  </g>
  <g id="_2747715857664">
   <g>
    <g>
     <path class="fil7" d="M1239.58 1387.78c-3.86,1.69 -8.47,7.36 -8.24,13.7 0.31,8.31 8.95,15.29 17.14,13.84 8.19,-1.45 13.92,-10.96 11.36,-18.87 -2.56,-7.92 -12.77,-12.29 -20.26,-8.67z"/>
    </g>
   </g>
  </g>
 </g>
 <g id="Button">
  <g id="_2747715858960">
   <path class="fil6" d="M1543.35 1264.22c-40.63,33.94 -59.3,92.07 -46.04,143.33 -37.45,-7.46 -78.28,4.85 -105.37,31.77 -27.1,26.92 -39.67,67.67 -32.45,105.17 -41.36,-28.44 -104.52,-17.79 -134.26,22.65 -0.63,-26.7 -1.67,-54.84 -15.71,-77.57 -14.04,-22.73 -45.9,-36.76 -68.38,-22.32 16.93,-19.24 19.48,-49.73 5.99,-71.52 -13.49,-21.78 -41.93,-33.08 -66.7,-26.5 -0.63,-32.07 -20.95,-258.9 -37.69,-450.29l-142.02 0c-16.47,188.06 -35.77,404.05 -36.38,435.29 -24.77,-6.59 -53.21,4.71 -66.7,26.5 -13.49,21.79 -10.94,52.28 5.99,71.52 -22.47,-14.44 -54.34,-0.41 -68.38,22.32 -14.03,22.73 -15.07,50.86 -15.71,77.57 -29.74,-40.44 -92.9,-51.1 -134.26,-22.65 7.22,-37.51 -5.35,-78.25 -32.45,-105.17 -27.09,-26.92 -67.91,-39.23 -105.37,-31.78 13.26,-51.25 -5.41,-109.38 -46.04,-143.33 -40.63,-33.94 -101.15,-41.97 -149.23,-19.8l0 486.28 1440.39 0 0 -471.28c-48.07,-22.17 -108.6,-14.14 -149.23,19.81z"/>
   <path class="fil7" d="M1543.35 1264.22c-40.63,33.94 -59.3,92.07 -46.04,143.33 -37.45,-7.46 -78.28,4.85 -105.37,31.77 -27.1,26.92 -39.67,67.67 -32.45,105.17 -41.36,-28.44 -104.52,-17.79 -134.26,22.65 -0.63,-26.7 -1.67,-54.84 -15.71,-77.57 -14.04,-22.73 -45.9,-36.76 -68.38,-22.32 16.93,-19.24 19.48,-49.73 5.99,-71.52 -13.49,-21.78 -41.93,-33.08 -66.7,-26.5 -0.63,-32.07 -20.95,-258.9 -37.69,-450.29l-142.02 0c-16.47,188.06 -35.77,404.05 -36.38,435.29 -24.77,-6.59 -53.21,4.71 -66.7,26.5 -13.49,21.79 -10.94,52.28 5.99,71.52 -22.47,-14.44 -54.34,-0.41 -68.38,22.32 -14.03,22.73 -15.07,50.86 -15.71,77.57 -29.74,-40.44 -92.9,-51.1 -134.26,-22.65 7.22,-37.51 -5.35,-78.25 -32.45,-105.17 -27.09,-26.92 -67.91,-39.23 -105.37,-31.78 13.26,-51.25 -5.41,-109.38 -46.04,-143.33 -40.63,-33.94 -101.15,-41.97 -149.23,-19.8l0 486.28 1440.39 0 0 -471.28c-48.07,-22.17 -108.6,-14.14 -149.23,19.81z"/>
   <path class="fil6" d="M1534.69 1618.62c-51.52,-34.61 -117.55,-46.8 -178.03,-32.86 -60.49,13.93 -114.53,53.79 -145.72,107.45 -12.53,-17.15 -29.33,-30.93 -48.29,-40.48 1.33,-3.6 2.49,-7.26 3.35,-11.01 8.51,-37.23 -7.52,-78.87 -38.8,-100.78 -22.18,-15.54 -51.05,-20.43 -77.42,-14.61l-42.63 -607.39 -56 0 0 558.31c-34.63,5.29 -58.77,46.31 -46.57,79.15 -24.1,3.52 -45.96,19.77 -56.28,41.83 -3.36,7.18 -3.86,22.35 -0.97,39.53 -42.06,0.57 -83.73,21.4 -108.62,55.45 -31.18,-53.66 -85.23,-93.52 -145.71,-107.45 -60.48,-13.94 -126.51,-1.75 -178.03,32.86 -14.65,-70.91 -93.95,-121.3 -164.37,-104.44l0 202.45 649.86 -0.85c4.3,1.2 8.84,1.91 13.71,1.91l158.88 -1.87 626.01 0.81 0 -202.45c-70.43,-16.86 -149.72,33.53 -164.37,104.44z"/>
   <path class="fil8" d="M1534.69 1618.62c-51.52,-34.61 -117.55,-46.8 -178.03,-32.86 -60.49,13.93 -114.53,53.79 -145.72,107.45 -12.53,-17.15 -29.33,-30.93 -48.29,-40.48 1.33,-3.6 2.49,-7.26 3.35,-11.01 8.51,-37.23 -7.52,-78.87 -38.8,-100.78 -22.18,-15.54 -51.05,-20.43 -77.42,-14.61l-42.63 -607.39 -56 0 0 558.31c-34.63,5.29 -58.77,46.31 -46.57,79.15 -24.1,3.52 -45.96,19.77 -56.28,41.83 -3.36,7.18 -3.86,22.35 -0.97,39.53 -42.06,0.57 -83.73,21.4 -108.62,55.45 -31.18,-53.66 -85.23,-93.52 -145.71,-107.45 -60.48,-13.94 -126.51,-1.75 -178.03,32.86 -14.65,-70.91 -93.95,-121.3 -164.37,-104.44l0 202.45 649.86 -0.85c4.3,1.2 8.84,1.91 13.71,1.91l158.88 -1.87 626.01 0.81 0 -202.45c-70.43,-16.86 -149.72,33.53 -164.37,104.44z"/>
  </g>
 </g>
 <g id="Character">
  <g id="_2747715859008">
   <g>
    <g>
     <path class="fil6" d="M796.06 1037.95c-7.72,3.38 -16.95,14.71 -16.48,27.38 0.61,16.63 17.89,30.58 34.27,27.69 16.38,-2.89 27.84,-21.92 22.72,-37.75 -5.11,-15.83 -25.53,-24.56 -40.51,-17.32z"/>
    </g>
   </g>
   <g>
    <g>
     <g>
      <path class="fil7" d="M796.06 1037.95c-7.72,3.38 -16.95,14.71 -16.48,27.38 0.61,16.63 17.89,30.58 34.27,27.69 16.38,-2.89 27.84,-21.92 22.72,-37.75 -5.11,-15.83 -25.53,-24.56 -40.51,-17.32z"/>
     </g>
    </g>
   </g>
  </g>
  <g id="_2747715861552">
   <g>
    <g>
     <path class="fil6" d="M665.17 1328.17c-11.06,-6.35 -17.49,-19.9 -15.42,-32.48 2.07,-12.59 12.51,-23.36 25.03,-25.82 11.43,-2.25 25.71,0.98 32.91,-8.17 6.55,-8.32 1.61,-19.36 4.49,-32.74 2.79,-13.01 14.33,-19.64 26.99,-19.46 12.65,0.19 24.37,8.4 30.69,19.37 6.31,10.96 10.3,27.86 8.83,40.43 -3.4,28.84 -18.79,43.61 -37.92,55.83 -19.13,12.22 -55.42,15 -75.6,3.04z"/>
    </g>
   </g>
   <g>
    <g>
     <g>
      <path class="fil7" d="M665.17 1328.17c-11.06,-6.35 -17.49,-19.9 -15.42,-32.48 2.07,-12.59 12.51,-23.36 25.03,-25.82 11.43,-2.25 25.71,0.98 32.91,-8.17 6.55,-8.32 1.61,-19.36 4.49,-32.74 2.79,-13.01 14.33,-19.64 26.99,-19.46 12.65,0.19 24.37,8.4 30.69,19.37 6.31,10.96 10.3,27.86 8.83,40.43 -3.4,28.84 -18.79,43.61 -37.92,55.83 -19.13,12.22 -55.42,15 -75.6,3.04z"/>
     </g>
    </g>
   </g>
  </g>
  <g id="_2747715860928">
   <g>
    <g>
     <path class="fil6" d="M1133.17 1097.11c9.24,-17.64 29.99,-28.5 49.75,-26.02 19.76,2.48 37.19,18.13 41.79,37.5 4.2,17.71 0.01,40.18 14.72,50.88 13.37,9.71 30.3,1.34 51.36,5.02 20.46,3.58 31.5,21.2 31.97,40.95 0.47,19.75 -11.64,38.54 -28.37,49.05 -16.73,10.52 -42.86,17.75 -62.56,16.2 -45.2,-3.56 -69.18,-26.7 -89.39,-55.81 -20.22,-29.12 -26.73,-85.57 -9.27,-117.77z"/>
    </g>
   </g>
   <g>
    <g>
     <g>
      <path class="fil7" d="M1133.17 1097.11c9.24,-17.64 29.99,-28.5 49.75,-26.02 19.76,2.48 37.19,18.13 41.79,37.5 4.2,17.71 0.01,40.18 14.72,50.88 13.37,9.71 30.3,1.34 51.36,5.02 20.46,3.58 31.5,21.2 31.97,40.95 0.47,19.75 -11.64,38.54 -28.37,49.05 -16.73,10.52 -42.86,17.75 -62.56,16.2 -45.2,-3.56 -69.18,-26.7 -89.39,-55.81 -20.22,-29.12 -26.73,-85.57 -9.27,-117.77z"/>
     </g>
    </g>
   </g>
  </g>
  <g id="_2747715865008">
   <path class="fil6" d="M1764.43 1780.95l49.29 17.29 -0.52 47.41c-23.6,6.66 -26.91,18.59 -26.91,18.59l49.33 -1.12 42.93 -87.29 -33.96 -22.22 -63.48 -27.76 -16.68 55.1z"/>
   <polygon class="fil8" points="1878.55,1775.83 1835.62,1863.12 1786.29,1864.24 1791.68,1856.7 1831.75,1853.58 1871.32,1771.1 "/>
   <path class="fil4" d="M1813.03 1823.94c0.37,0.49 3.18,-1.19 7,-1.16 3.82,-0.09 6.65,1.54 7.02,1.04 0.46,-0.38 -2.39,-3.28 -7.04,-3.21 -4.65,0.01 -7.45,2.95 -6.98,3.33z"/>
   <path class="fil4" d="M1813.56 1812.17c0.5,0.34 2.63,-2.62 6.55,-3.48 3.91,-0.89 7.1,0.88 7.41,0.36 0.16,-0.23 -0.43,-1.04 -1.83,-1.77 -1.37,-0.72 -3.63,-1.25 -6.06,-0.71 -2.42,0.55 -4.24,1.99 -5.17,3.23 -0.96,1.25 -1.15,2.24 -0.9,2.37z"/>
   <path class="fil4" d="M1812.9 1797.09c0.54,0.26 2.16,-2.63 5.57,-3.9 3.4,-1.31 6.52,-0.21 6.76,-0.77 0.13,-0.25 -0.51,-0.93 -1.89,-1.41 -1.35,-0.48 -3.49,-0.66 -5.63,0.15 -2.15,0.81 -3.63,2.36 -4.32,3.62 -0.72,1.27 -0.75,2.2 -0.49,2.31z"/>
   <path class="fil4" d="M1809.27 1797.05c0.6,-0.14 0.23,-3.25 1.71,-6.59 1.39,-3.38 3.89,-5.25 3.58,-5.79 -0.18,-0.57 -3.83,0.81 -5.57,4.94 -1.78,4.11 -0.25,7.71 0.28,7.44z"/>
   <path class="fil4" d="M1803.43 1791.5c0.3,0.01 0.72,-2.52 1.16,-6.63 0.22,-2.37 0.44,-4.77 0.67,-7.22 0.04,-1.36 0.4,-2.73 -0.01,-4.6 -0.23,-0.92 -0.79,-1.86 -1.75,-2.45 -0.96,-0.65 -2.49,-0.53 -3.36,0.14 -1.71,1.34 -2.2,2.9 -2.8,4.37 -0.53,1.5 -0.8,3.02 -0.9,4.46 -0.16,2.9 0.46,5.48 1.31,7.47 1.76,4.02 4.23,5.46 4.32,5.28 0.3,-0.26 -1.66,-2.05 -2.89,-5.83 -0.59,-1.87 -0.99,-4.21 -0.74,-6.77 0.13,-1.27 0.41,-2.59 0.89,-3.88 0.48,-1.25 1.2,-2.72 2.03,-3.31 0.41,-0.26 0.68,-0.26 1.03,-0.07 0.36,0.21 0.68,0.64 0.81,1.14 0.29,1.05 0.08,2.58 0.06,3.93 -0.07,2.46 -0.13,4.87 -0.2,7.25 -0.05,4.13 0.07,6.7 0.37,6.72z"/>
   <path class="fil4" d="M1802.63 1793.65c0.2,-0.13 -1.26,-2.29 -5.06,-3.53 -3.65,-1.14 -10.08,-0.9 -13.99,5 -0.2,0.56 -0.16,1.35 0.21,1.91 0.36,0.58 0.87,0.87 1.29,1.06 0.89,0.37 1.64,0.38 2.31,0.47 1.4,0.12 2.75,0.11 4.02,-0.01 2.55,-0.24 4.78,-0.9 6.53,-1.66 3.53,-1.56 5.17,-3.35 5,-3.54 -0.19,-0.28 -2.11,1.01 -5.54,2.1 -1.7,0.53 -3.79,0.99 -6.13,1.1 -1.17,0.06 -2.4,0.03 -3.66,-0.11 -0.65,-0.08 -1.28,-0.14 -1.66,-0.33 -0.43,-0.25 -0.31,-0.18 -0.31,-0.33 0.05,-0.24 0.52,-0.74 0.98,-1.17 0.45,-0.43 0.94,-0.82 1.45,-1.16 1.01,-0.68 2.09,-1.19 3.16,-1.53 2.16,-0.69 4.26,-0.64 5.97,-0.31 3.44,0.72 5.21,2.32 5.43,2.04z"/>
   <path class="fil8" d="M1839.16 1775.21c0.07,3.24 2.75,5.8 5.98,5.73 3.23,-0.07 5.8,-2.75 5.72,-5.98 -0.06,-3.23 -2.74,-5.8 -5.97,-5.73 -3.24,0.07 -5.8,2.75 -5.73,5.98z"/>
   <path class="fil6" d="M1511.45 1761.12l0.67 64.59c0,0 -65.43,22.38 -66.47,34.32l125.29 3.2 3.09 -100.68 -62.58 -1.43z"/>
   <path class="fil8" d="M1551 1821.27c2.41,0.73 4.01,3.5 3.39,5.93 -0.63,2.44 -3.43,4.09 -5.85,3.41 -2.42,-0.68 -4.45,-3.95 -3.56,-6.3 0.9,-2.35 4.29,-4.11 6.48,-2.87l-0.46 -0.17z"/>
   <path class="fil8" d="M1570.94 1863.23l-0.09 -10.16 -120.09 0.73c0,0 -5.64,2.29 -5.11,6.23l125.29 3.2z"/>
   <path class="fil4" d="M1510.11 1825.02c0,0.61 3.05,0.97 6.01,3.01 3.01,1.97 4.5,4.66 5.07,4.43 0.56,-0.1 -0.25,-3.78 -3.88,-6.19 -3.61,-2.45 -7.32,-1.81 -7.2,-1.25z"/>
   <path class="fil4" d="M1496.82 1830.12c-0.15,0.59 2.47,1.7 4.48,4.34 2.09,2.58 2.55,5.39 3.16,5.38 0.57,0.11 1.08,-3.46 -1.48,-6.7 -2.53,-3.25 -6.13,-3.6 -6.16,-3.02z"/>
   <path class="fil4" d="M1488.96 1845.66c0.55,0.14 1.48,-2.89 0,-6.28 -1.47,-3.4 -4.32,-4.8 -4.59,-4.3 -0.36,0.5 1.45,2.34 2.63,5.15 1.24,2.77 1.35,5.35 1.96,5.43z"/>
   <path class="fil4" d="M1511.59 1810.28c0.24,0.57 3.07,-0.2 6.52,0.12 3.46,0.25 6.12,1.48 6.45,0.96 0.36,-0.43 -2.2,-2.76 -6.28,-3.08 -4.06,-0.36 -6.98,1.52 -6.69,2z"/>
   <polygon class="fil9" points="1511.6,1773.91 1511.7,1785.42 1573.29,1786.43 1573.64,1776.07 "/>
   <path class="fil4" d="M1511.69 1797.25c-0.01,0.25 2.4,0.69 6.28,0.13 1.93,-0.29 4.21,-0.86 6.61,-1.85 1.2,-0.5 2.43,-1.1 3.65,-1.82 0.59,-0.36 1.29,-0.71 1.94,-1.43 0.69,-0.62 1.12,-2.23 0.36,-3.25 -0.62,-0.98 -1.74,-1.42 -2.64,-1.46 -0.93,-0.06 -1.68,0.11 -2.37,0.26 -1.4,0.31 -2.72,0.73 -3.93,1.24 -2.42,1.03 -4.4,2.36 -5.88,3.65 -2.98,2.62 -4.03,4.88 -3.82,5 0.27,0.21 1.73,-1.67 4.75,-3.81 1.5,-1.07 3.41,-2.17 5.67,-3.01 1.14,-0.42 2.35,-0.78 3.63,-1.02 1.34,-0.32 2.47,-0.3 2.79,0.3 0.12,0.23 0.14,0.32 -0.15,0.7 -0.3,0.35 -0.84,0.69 -1.42,1.04 -1.13,0.7 -2.26,1.3 -3.37,1.81 -2.21,1.03 -4.32,1.72 -6.12,2.17 -3.62,0.91 -5.98,1.02 -5.98,1.35z"/>
   <path class="fil4" d="M1512.47 1798.15c0.21,0.1 1.48,-2.06 1.8,-6.02 0.16,-1.96 0.02,-4.35 -0.68,-6.89 -0.35,-1.27 -0.84,-2.57 -1.5,-3.85 -0.7,-1.26 -1.55,-2.94 -3.92,-3.27 -1.24,-0.08 -2.29,0.86 -2.66,1.68 -0.44,0.84 -0.54,1.56 -0.71,2.28 -0.26,1.46 -0.27,2.9 -0.11,4.23 0.33,2.68 1.36,4.92 2.52,6.55 2.36,3.31 4.89,4.11 4.95,3.9 0.21,-0.3 -1.89,-1.54 -3.68,-4.71 -0.89,-1.56 -1.66,-3.61 -1.84,-5.94 -0.09,-1.17 -0.04,-2.4 0.21,-3.62 0.23,-1.33 0.76,-2.39 1.25,-2.24 0.63,0 1.66,1.03 2.15,2.11 0.61,1.14 1.09,2.3 1.46,3.44 0.73,2.28 1.02,4.46 1.06,6.29 0.08,3.68 -0.64,5.96 -0.3,6.06z"/>
   <polygon class="fil4" points="1802.7,1728.2 1658.43,1674.55 1810.09,1653.26 1817.73,1579.37 1534.11,1604.13 1494.06,1661.78 1504.61,1734.14 1780.93,1804.39 "/>
   <path class="fil4" d="M1496.8 1779.91l-13.81 -264.05c0.75,-25.72 14.75,-49.22 37.02,-62.11 18.42,-10.66 40.52,-12.91 60.7,-6.18l184.01 61.35 101 25.97c0,0 17.2,42.44 7.09,75.41 -9.9,32.28 -45.27,53.74 -76.39,44.52 -38.65,-11.46 -216.12,-87.78 -216.12,-87.78l0 215.02 -83.5 -2.15z"/>
   <path class="fil5" d="M1793.75 1655.52c-0.01,0.03 -0.39,-0.09 -1.1,-0.36 -0.79,-0.3 -1.84,-0.7 -3.16,-1.21 -2.85,-1.15 -6.9,-2.77 -12.06,-4.83 -10.55,-4.3 -25.65,-10.46 -44.26,-18.05 -37.39,-15.43 -88.89,-36.69 -145.77,-60.16 -2.55,-1.05 -5.08,-2.1 -7.42,-3.08l1.18 -0.78c-0.1,59.74 -0.2,113.45 -0.26,152.34 -0.12,19.33 -0.21,34.96 -0.27,45.89 -0.07,5.32 -0.12,9.49 -0.16,12.44 -0.03,1.35 -0.06,2.42 -0.08,3.24 -0.03,0.72 -0.06,1.1 -0.09,1.1 -0.03,0 -0.05,-0.38 -0.08,-1.1 -0.02,-0.82 -0.05,-1.89 -0.09,-3.24 -0.03,-2.95 -0.09,-7.12 -0.15,-12.44 -0.07,-10.92 -0.16,-26.56 -0.27,-45.89 -0.07,-38.89 -0.16,-92.6 -0.26,-152.34l0 -1.29 1.18 0.49c2.35,0.98 4.88,2.03 7.42,3.08 56.81,23.65 108.24,45.07 145.58,60.62 18.53,7.8 33.55,14.13 44.05,18.55 5.11,2.2 9.12,3.92 11.95,5.13 1.29,0.57 2.31,1.03 3.09,1.37 0.69,0.32 1.04,0.5 1.03,0.52z"/>
   <path class="fil5" d="M1623.8 1655.82c0.05,-0.41 9.11,1.2 18.9,6.67 9.83,5.4 16.01,12.23 15.68,12.49 -0.35,0.39 -6.91,-5.73 -16.51,-10.99 -9.55,-5.34 -18.22,-7.65 -18.07,-8.17z"/>
   <path class="fil5" d="M1564.3 1531.32c0.39,-0.22 5.13,7.59 9.72,17.86 4.62,10.27 7.3,19 6.87,19.15 -0.46,0.16 -3.84,-8.26 -8.43,-18.45 -4.56,-10.2 -8.6,-18.32 -8.16,-18.56z"/>
   <polygon class="fil10" points="1564.71,1414.97 1532.16,1408.89 1497.97,1443.76 1504.28,1465.97 1544.14,1451.29 "/>
   <path class="fil10" d="M1264.04 1335.37l37.02 -8.21 59.57 9.33 -2.31 37.99c0,0 -18.46,2.67 -25.13,0.51 -6.67,-2.17 -12.19,-0.28 -12.19,-0.28 0,0 3.63,7.49 -2.64,8.71 -6.27,1.22 -16.48,3.82 -18.38,-5.04 0,0 -4.75,0.72 -6.97,-5.08 0,0 -4.85,1.74 -7,-6.73 -2.15,-8.46 -0.94,-21.17 15.81,-25.22 0.88,-0.19 1.27,-2.23 -0.37,-2.14l-26.47 4.96c0,0 -17.62,0.68 -10.94,-8.8z"/>
   <path class="fil11" d="M1295.54 1361.88c-0.02,-0.22 2.39,-0.64 6.31,-1.13 1.99,-0.19 4.19,-0.67 7.01,-0.63 1.39,0.1 3.03,0.58 4.14,1.98 1.15,1.44 1.05,3.54 0.24,5.06 -1.76,3.19 -5.18,3.98 -7.55,4.64 -2.53,0.7 -4.86,1.2 -6.84,1.48 -3.95,0.57 -6.42,0.39 -6.43,0.2 -0.01,-0.25 2.42,-0.47 6.24,-1.31 1.9,-0.41 4.15,-1.01 6.62,-1.79 1.25,-0.41 2.57,-0.74 3.72,-1.34 1.14,-0.61 2.27,-1.49 2.84,-2.62 0.6,-1.15 0.62,-2.5 -0.06,-3.36 -0.68,-0.9 -1.88,-1.36 -3.04,-1.47 -2.4,-0.12 -4.86,0.24 -6.79,0.28 -3.94,0.21 -6.39,0.23 -6.41,0.01z"/>
   <path class="fil11" d="M1301.91 1353.72c0.14,0.43 -1.87,1.39 -3.29,3.59 -1.48,2.15 -1.61,4.41 -2.06,4.44 -0.41,0.13 -1.05,-2.65 0.76,-5.34 1.78,-2.7 4.56,-3.13 4.59,-2.69z"/>
   <path class="fil11" d="M1312.05 1367.25c0.04,-0.09 0.38,-0.12 0.99,0.11 0.71,0.21 1.26,1.21 1.75,2.02 0.63,0.98 1.09,2.49 0.62,4.13 -0.43,1.74 -2.27,2.88 -3.85,3.28 -3.12,0.85 -5.95,1.59 -8.11,1.8 -2.14,0.21 -3.47,0 -3.47,-0.21 -0.01,-0.23 1.28,-0.42 3.29,-0.91 2,-0.46 4.77,-1.37 7.84,-2.21 1.48,-0.42 2.57,-1.11 2.92,-2.21 0.39,-1.09 0.19,-2.27 -0.21,-3.12 -0.48,-1.06 -0.65,-1.73 -1.09,-2.03 -0.42,-0.35 -0.72,-0.54 -0.68,-0.65z"/>
   <path class="fil11" d="M1314.54 1373.71c-0.1,-0.16 0.41,-0.76 1.58,-0.92 1.16,-0.17 2.72,0.25 4.12,1.11 1.68,1.09 2.03,2.87 2.12,3.9 0.07,1.1 -0.13,1.75 -0.34,1.76 -0.23,0.01 -0.43,-0.61 -0.75,-1.53 -0.33,-0.9 -0.84,-2.15 -1.84,-2.76 -1.24,-0.76 -2.43,-1.22 -3.3,-1.35 -0.88,-0.14 -1.48,0.01 -1.59,-0.21z"/>
   <path class="fil10" d="M1332.96 1344.19l-16.72 6.64 -15.77 11.1c0,0 -0.04,3.81 8.88,2.42 8.92,-1.4 15.68,-6.12 15.68,-6.12 0,0 11.67,7.36 21.97,5.66l-14.04 -19.7z"/>
   <path class="fil11" d="M1347 1363.89c0.01,0.07 -0.56,0.21 -1.64,0.4 -1.09,0.15 -2.72,0.25 -4.76,0.05 -4.1,-0.37 -9.82,-1.98 -15.93,-5.51l0.76 -0.02c-5.19,3.36 -11.9,6.35 -19.68,6.63 -1.15,-0.01 -2.32,-0.1 -3.48,-0.53 -1.1,-0.45 -2.41,-1.24 -2.57,-2.99l-0.04 -0.39 0.37 -0.25c5.82,-4.04 11.2,-7.76 15.84,-10.98l0.07 -0.05 0.06 -0.02c5.12,-1.95 9.33,-3.52 12.28,-4.57 2.95,-1.06 4.63,-1.59 4.68,-1.47 0.05,0.13 -1.55,0.89 -4.42,2.15 -2.87,1.26 -7.01,3 -12.07,5.09l0.13 -0.07c-4.6,3.29 -9.92,7.09 -15.68,11.22l0.33 -0.64c0.03,0.48 0.71,1.2 1.57,1.47 0.87,0.34 1.91,0.43 2.94,0.43 7.22,-0.23 13.93,-3.1 18.88,-6.19l0.39 -0.24 0.37 0.23c5.81,3.5 11.38,5.29 15.3,5.87 3.95,0.64 6.27,0.15 6.3,0.38z"/>
   <path class="fil11" d="M1308.7 1343.37c-0.07,0.42 -1.96,0.4 -3.9,-0.78 -1.94,-1.18 -2.85,-2.86 -2.51,-3.12 0.34,-0.29 1.64,0.74 3.32,1.75 1.67,1.03 3.18,1.71 3.09,2.15z"/>
   <path class="fil6" d="M1357.41 1384.42l141.25 20.48c14.04,4.46 29.26,3.19 42.36,-3.53l125.79 -64.54 -37.67 -83.05c-5.34,1.97 -11.53,4.37 -14.17,5.99l-103.5 74.59 -150.35 -5.27 -3.71 55.33z"/>
   <polygon class="fil10" points="1862.91,1534.28 1853.91,1518.49 1757.61,1494.38 1768.95,1513.96 "/>
   <path class="fil6" d="M1629.14 1253.78c0.13,3.37 -14.13,107.88 -14.13,129.23 0,21.34 40.88,44.52 40.88,44.52l44.77 95.05 159.45 0 -54.51 -102.35 -24.64 -81.99c-9.34,-31.07 -8.38,-47.1 -31.51,-69.86l-44.6 -30.01 -75.71 15.41z"/>
   <path class="fil6" d="M1675.45 1336.31l26.78 112.36 -135.06 -38.06 -23.03 40.68 175.75 80.05c21.65,9.86 47.25,2.89 60.91,-16.58 8.29,-11.81 11,-26.65 7.42,-40.63l-39.35 -153.74c-5.42,-21.16 -27.68,-33.27 -48.38,-26.31 -17.66,5.93 -28.31,23.89 -25.04,42.23z"/>
   <path class="fil4" d="M1658.39 1432.84c-0.02,0.05 -3.06,-5.49 -4.05,-5.97 -0.99,-0.49 -2.43,-1.25 -4.26,-2.28 -3.64,-2.07 -8.86,-5.21 -14.81,-9.82 -5.81,-4.67 -12.86,-10.68 -17.43,-19.81 -4.33,-9.35 -4.02,-20.86 -2.44,-32.12 1.63,-11.37 3.96,-21.95 5.34,-31.75 1.5,-9.76 2.53,-18.59 3.08,-26.03 0.57,-7.44 0.66,-13.49 0.64,-17.66 -0.01,-4.18 -0.13,-6.49 0.02,-6.5 0.05,0 0.15,0.57 0.27,1.67 0.13,1.09 0.27,2.72 0.38,4.81 0.23,4.19 0.32,10.26 -0.1,17.76 -0.4,7.49 -1.31,16.38 -2.73,26.19 -1.29,9.82 -3.6,20.51 -5.21,31.75 -1.57,11.16 -1.85,22.33 2.18,31.21 4.27,8.74 11.1,14.81 16.75,19.53 5.79,4.68 10.88,7.96 14.4,10.2 3.54,2.22 8.04,8.7 7.97,8.82z"/>
   <path class="fil4" d="M1712.1 1245.88c0.08,0.09 -0.79,1.05 -2.43,2.73 -1.65,1.67 -4.09,4.03 -7.16,6.9 -6.13,5.73 -14.84,13.39 -24.83,21.41 -10.01,8.01 -19.39,14.84 -26.32,19.58 -3.46,2.37 -6.3,4.24 -8.29,5.48 -1.99,1.24 -3.13,1.88 -3.19,1.78 -0.07,-0.09 0.94,-0.92 2.81,-2.33 2.18,-1.62 4.84,-3.59 7.97,-5.91 6.73,-4.99 15.97,-11.95 25.95,-19.94 9.96,-7.99 18.77,-15.49 25.1,-20.97 2.94,-2.55 5.45,-4.72 7.5,-6.49 1.79,-1.52 2.81,-2.33 2.89,-2.24z"/>
   <path class="fil4" d="M1675.45 1336.31c0.05,-0.01 0.28,0.72 0.66,2.14 0.41,1.56 0.96,3.64 1.64,6.27 1.4,5.63 3.38,13.56 5.84,23.44 4.88,20.14 11.66,48.15 19.45,80.32l0.34 1.38 -1.37 -0.39c-10.93,-3.07 -22.52,-6.33 -34.44,-9.68 -39.04,-11.09 -74.48,-21.17 -100.57,-28.58l0.71 -0.29c-7.16,12.41 -12.98,22.5 -17.09,29.63 -2,3.38 -3.57,6.05 -4.73,8.01 -0.51,0.83 -0.92,1.51 -1.26,2.06 -0.3,0.46 -0.46,0.69 -0.49,0.67 -0.02,-0.01 0.09,-0.27 0.33,-0.76 0.3,-0.57 0.67,-1.28 1.12,-2.14 1.08,-2 2.56,-4.73 4.44,-8.18 3.99,-7.19 9.65,-17.37 16.6,-29.9l0.24 -0.42 0.47 0.13c26.12,7.3 61.6,17.21 100.69,28.13 11.92,3.36 23.51,6.64 34.43,9.72l-1.03 0.99c-7.56,-32.22 -14.14,-60.28 -18.88,-80.46 -2.26,-9.92 -4.07,-17.89 -5.36,-23.55 -0.57,-2.65 -1.02,-4.75 -1.36,-6.33 -0.3,-1.44 -0.43,-2.2 -0.38,-2.21z"/>
   <path class="fil4" d="M1749.46 1329.31c0.06,-0.01 0.29,0.65 0.66,1.93 0.41,1.46 0.93,3.32 1.56,5.61 1.35,5.11 3.19,12.13 5.45,20.71 4.48,17.72 10.57,41.83 17.31,68.47 3.31,13.4 6.55,26.12 9.28,37.79 2.71,11.66 3.9,22.63 2.58,31.71 -1.22,9.09 -4.56,15.95 -7.55,20.05 -2.98,4.17 -5.39,5.74 -5.39,5.74 -0.15,-0.14 2.09,-1.91 4.84,-6.11 2.77,-4.15 5.85,-10.92 6.9,-19.83 1.14,-8.9 -0.15,-19.65 -2.92,-31.21 -2.89,-11.62 -6.06,-24.35 -9.4,-37.72 -6.55,-26.69 -12.47,-50.85 -16.83,-68.6 -2.04,-8.64 -3.7,-15.7 -4.91,-20.84 -0.51,-2.32 -0.93,-4.21 -1.25,-5.69 -0.27,-1.3 -0.38,-1.99 -0.33,-2.01z"/>
   <path class="fil9" d="M1773.97 1522.58c19.78,1.82 31.25,-9.46 33.37,-24.89 1.17,-8.5 -1.64,-16.98 -4.41,-25.11 -12.13,-35.54 -24.38,-71.38 -43.62,-103.64 7.26,32.28 16.53,63.27 23.8,95.54 2.37,10.54 3.24,16.68 3.07,27.49 -0.18,10.8 -5.02,22.55 -12.21,30.61z"/>
   <path class="fil4" d="M1703.08 1093.18c2.76,14.14 23.08,19.76 25.09,34.03 0.86,6.12 -2.07,12.21 -1.85,18.39 0.29,8.3 6.06,15.28 9.01,23.05 6.08,16.01 -0.79,34.99 -13.64,46.31 -12.85,11.32 -30.51,15.89 -47.63,16.24l29.02 -138.02z"/>
   <path class="fil4" d="M1588.03 1107.77c1.77,7.55 -2.2,15.17 -6.38,21.7 -4.17,6.53 -8.88,13.39 -8.78,21.14 0.17,13.74 15.29,24.13 14.68,37.85 -0.33,7.35 -5.26,14 -5.16,21.36 0.09,7.12 4.9,13.34 10.36,17.92 5.46,4.56 10.69,2.94 15.69,8.02 5.26,5.35 13.17,10.43 20.23,12.97 16.01,5.74 31.85,-8.73 38.63,-11.95l-79.27 -129.01z"/>
   <path class="fil4" d="M1707.22 1100.91c-0.89,-6.95 -8.14,-11.29 -14.99,-12.81 -6.84,-1.52 -14.16,-1.34 -20.52,-4.3 -5.63,-2.62 -9.89,-7.42 -14.89,-11.11 -12.26,-9.04 -29.45,-10.88 -43.34,-4.62 -13.89,6.25 -23.92,20.34 -25.28,35.51 -0.92,10.25 2.61,21.65 11.42,26.97 10.22,6.18 23.33,2.38 34.52,-1.81 11.19,-4.19 23.9,-8.59 34.63,-3.33 6.46,3.18 10.85,9.31 15.38,14.91 4.54,5.6 9.99,11.19 17.09,12.44 7.09,1.26 15.6,-4.19 14.74,-11.34l-8.76 -40.51z"/>
   <path class="fil10" d="M1709.67 1248.61l-16.88 -135.09c-0.82,-6.04 -6.12,-10.44 -12.2,-10.15l-63.94 -5.97c-20.02,0.99 -29.34,27.28 -27.51,47.25 2.03,22.18 5.39,49.18 10.55,65.16 10.36,32.14 36.27,32.41 36.27,32.41 0,-0.05 4.84,47.46 6.73,59.21l66.98 -52.82z"/>
   <path class="fil4" d="M1597.9 1169.31c0.27,2.24 2.39,3.87 4.74,3.63 2.34,-0.24 4.03,-2.25 3.76,-4.49 -0.27,-2.24 -2.39,-3.87 -4.73,-3.63 -2.35,0.23 -4.04,2.24 -3.77,4.49z"/>
   <path class="fil4" d="M1596.7 1160.99c0.61,0.47 3.44,-2.39 7.99,-3.09 4.54,-0.76 8.24,1.06 8.64,0.43 0.21,-0.29 -0.48,-1.2 -2.1,-2.03 -1.59,-0.83 -4.19,-1.48 -7.02,-1.03 -2.83,0.46 -5.05,1.88 -6.26,3.16 -1.23,1.29 -1.55,2.36 -1.25,2.56z"/>
   <path class="fil4" d="M1643.72 1162.62c0.27,2.24 2.39,3.87 4.74,3.63 2.35,-0.24 4.03,-2.24 3.77,-4.49 -0.27,-2.24 -2.39,-3.87 -4.74,-3.63 -2.35,0.23 -4.03,2.24 -3.77,4.49z"/>
   <path class="fil4" d="M1641.53 1154.88c0.62,0.47 3.45,-2.4 8,-3.09 4.53,-0.76 8.24,1.06 8.64,0.42 0.21,-0.28 -0.48,-1.19 -2.1,-2.02 -1.6,-0.83 -4.19,-1.48 -7.03,-1.03 -2.83,0.46 -5.05,1.87 -6.25,3.16 -1.23,1.29 -1.55,2.36 -1.26,2.56z"/>
   <path class="fil4" d="M1630.28 1191.18c-0.02,-0.26 -2.92,-0.31 -7.59,-0.18 -1.18,0.06 -2.32,0 -2.64,-0.76 -0.4,-0.8 -0.11,-2.13 0.24,-3.56 0.66,-2.99 1.34,-6.11 2.06,-9.38 2.81,-13.34 4.65,-24.23 4.11,-24.34 -0.54,-0.1 -3.25,10.62 -6.06,23.95 -0.66,3.28 -1.3,6.41 -1.91,9.41 -0.23,1.39 -0.75,3 0.11,4.65 0.45,0.82 1.4,1.31 2.18,1.4 0.78,0.11 1.43,0.02 2.01,-0.03 4.65,-0.47 7.51,-0.9 7.49,-1.16z"/>
   <path class="fil11" d="M1635.96 1242.22c0,0 22.04,-1.49 41.95,-18.11 -0.36,0.14 -8.92,25.4 -41.03,26.94l-0.92 -8.83z"/>
   <path class="fil11" d="M1633.91 1201.84c1.3,-2.41 3.98,-4.05 6.87,-4.18 2.01,-0.1 4.15,0.54 5.6,1.96 1.45,1.42 2.06,3.67 1.21,5.37 -0.96,1.91 -3.47,2.71 -5.73,2.43 -2.27,-0.28 -4.36,-1.41 -6.35,-2.56 -0.56,-0.32 -1.12,-0.65 -1.51,-1.14 -0.39,-0.49 -0.57,-1.19 -0.26,-1.7l0.17 -0.18z"/>
   <path class="fil4" d="M1644.16 1192.24c-0.75,0.08 0.01,5.01 -3.67,9.18 -3.67,4.17 -9.02,4.43 -8.95,5.13 -0.02,0.32 1.32,0.78 3.55,0.49 2.19,-0.26 5.26,-1.46 7.51,-4.01 2.25,-2.55 2.91,-5.58 2.76,-7.64 -0.13,-2.09 -0.87,-3.23 -1.2,-3.15z"/>
   <path class="fil4" d="M1637.46 1142.48c0.65,1.17 5.1,-0.12 10.53,-0.31 5.43,-0.3 9.98,0.59 10.52,-0.63 0.23,-0.58 -0.7,-1.62 -2.63,-2.55 -1.91,-0.92 -4.84,-1.63 -8.1,-1.49 -3.25,0.15 -6.11,1.11 -7.93,2.21 -1.83,1.09 -2.67,2.22 -2.39,2.77z"/>
   <path class="fil4" d="M1596.32 1147.57c0.96,0.91 3.93,-0.65 7.69,-1.29 3.73,-0.77 7.06,-0.39 7.63,-1.58 0.24,-0.58 -0.42,-1.53 -1.97,-2.29 -1.53,-0.76 -3.95,-1.2 -6.53,-0.72 -2.57,0.48 -4.67,1.77 -5.81,3.03 -1.17,1.27 -1.44,2.4 -1.01,2.85z"/>
   <path class="fil4" d="M1711.49 1214.66c-8.77,3.26 -10.3,-1.23 -18.07,-6.45 -7.76,-5.22 -12.78,-14.31 -13.07,-23.66 -0.25,-8.25 2.81,-17.17 -1.2,-24.39 -5.31,-9.54 -20,-10.41 -25.36,-19.92 -3.11,-5.53 -2.24,-12.71 -5.63,-18.07 -3.18,-5.04 -9.37,-7.26 -15.23,-8.39 -5.86,-1.13 -12.02,-1.57 -17.24,-4.45 -5.22,-2.88 -9.2,-9.25 -7,-14.8 25.04,-0.93 50.19,1.13 74.75,6.12 5.69,1.16 11.72,2.68 15.65,6.96 4.17,4.53 5.04,11.08 5.71,17.2 3.29,29.79 6.59,59.59 9.88,89.39l-3.19 0.46z"/>
   <path class="fil4" d="M1721.6 1144.18c-0.67,-11.02 6.65,-22.06 17.07,-25.71 10.42,-3.66 23.03,0.37 29.4,9.4 6.05,8.58 6.25,20.15 3.47,30.28 -3.31,12.03 -12.09,23.93 -24.49,25.31 -11.67,1.31 -22.6,-7.39 -27.69,-17.97 -5.09,-10.57 -5.63,-22.69 -6.07,-34.42l8.31 13.11z"/>
   <path class="fil5" d="M1735.18 1188.28c0.04,0.04 0.71,-0.64 1.42,-2.18 0.73,-1.52 1.43,-3.94 1.42,-6.98 0.02,-3.04 -0.64,-6.62 -1.94,-10.36 -1.29,-3.78 -3.23,-7.63 -4.87,-11.79 -1.65,-4.15 -2.76,-8.28 -2.64,-12.08 0.09,-3.77 1.33,-7.16 1.63,-10.18 0.37,-3.02 -0.13,-5.55 -0.92,-7.08 -0.77,-1.54 -1.59,-2.1 -1.63,-2.04 -0.1,0.08 0.55,0.76 1.11,2.27 0.57,1.49 0.89,3.86 0.41,6.71 -0.4,2.86 -1.75,6.19 -1.95,10.28 -0.21,4.06 0.95,8.43 2.63,12.65 1.67,4.25 3.65,8.08 4.95,11.7 1.34,3.63 2.07,7.05 2.18,9.94 0.3,5.88 -2.11,9.04 -1.8,9.14z"/>
   <path class="fil5" d="M1729.41 1148.64c-0.1,0.11 1.82,2.15 5.83,4.15 3.95,2 10.19,3.71 17.03,2.75 6.85,-0.96 12.38,-4.31 15.62,-7.32 3.31,-3.03 4.6,-5.52 4.47,-5.59 -0.2,-0.16 -1.78,2.08 -5.14,4.8 -3.31,2.71 -8.66,5.75 -15.15,6.66 -6.5,0.9 -12.47,-0.54 -16.4,-2.24 -3.98,-1.69 -6.11,-3.41 -6.26,-3.21z"/>
   <path class="fil5" d="M1731.86 1153.55c-0.13,0.09 1.01,2.09 3.61,4.73 2.57,2.64 6.74,5.78 12,7.92 5.27,2.12 10.45,2.77 14.13,2.67 3.71,-0.1 5.92,-0.74 5.89,-0.89 -0.04,-0.25 -2.28,0.02 -5.87,-0.15 -3.58,-0.16 -8.52,-0.95 -13.6,-2.99 -5.06,-2.06 -9.16,-4.93 -11.84,-7.31 -2.7,-2.38 -4.13,-4.13 -4.32,-3.98z"/>
   <path class="fil5" d="M1730.74 1200.29c0.02,0.01 0.12,-0.15 0.3,-0.47 0.15,-0.33 0.45,-0.79 0.7,-1.46 0.55,-1.31 1.14,-3.38 1.26,-6.1 0.11,-2.71 -0.38,-6.13 -2.07,-9.65 -1.61,-3.52 -4.8,-7.07 -9.29,-9.1 -4.35,-2.14 -9.74,-3.25 -13.67,-7.13 -1.95,-1.88 -3.07,-4.56 -3.01,-7.45 0,-2.9 0.85,-5.87 1.52,-9 1.58,-6.3 0.44,-13.68 -3.53,-19.6 -2,-2.95 -4.69,-5.56 -8,-7.25 -3.3,-1.77 -7.09,-2.35 -10.77,-2.6 -3.69,-0.25 -7.33,-0.16 -10.79,-0.63 -3.45,-0.47 -6.83,-1.45 -9.49,-3.4 -2.71,-1.92 -4.2,-4.93 -5.15,-8.04 -0.95,-3.12 -1.72,-6.39 -3.07,-9.34 -2.58,-5.92 -6.59,-10.9 -11.35,-14.18 -4.76,-3.3 -10.19,-4.77 -15.09,-4.73 -4.92,0.01 -9.31,1.61 -12.43,3.94 -3.17,2.29 -5.17,5.1 -6.36,7.54 -1.18,2.47 -1.58,4.58 -1.69,6 -0.13,1.42 0.01,2.17 0.01,2.17 0.23,0.05 -0.23,-3.14 2.19,-7.91 1.23,-2.33 3.24,-4.99 6.32,-7.13 3.04,-2.17 7.24,-3.63 11.96,-3.58 4.69,0.03 9.88,1.5 14.4,4.7 4.52,3.18 8.34,7.99 10.81,13.72 1.28,2.86 1.99,5.97 2.96,9.22 0.95,3.19 2.61,6.63 5.64,8.77 2.95,2.18 6.56,3.2 10.15,3.69 3.62,0.5 7.27,0.41 10.89,0.66 3.6,0.24 7.16,0.8 10.19,2.42 3.07,1.56 5.59,4 7.48,6.76 3.75,5.59 4.88,12.47 3.4,18.52 -0.63,3.07 -1.51,6.13 -1.49,9.29 -0.06,3.15 1.28,6.28 3.44,8.3 4.34,4.16 9.87,5.17 14.08,7.21 4.35,1.9 7.37,5.16 9.01,8.53 1.69,3.34 2.25,6.63 2.23,9.27 -0.08,5.35 -1.92,7.98 -1.69,8.04z"/>
   <path class="fil5" d="M1714.01 1108.66c0,0 0.23,-0.53 0.16,-1.59 -0.05,-1.04 -0.46,-2.65 -1.78,-4.2 -1.29,-1.54 -3.4,-3.06 -6.23,-3.69 -2.86,-0.61 -6.19,-0.05 -9.51,1.18 -3.35,1.2 -6.71,3.15 -10.51,4.53 -3.73,1.35 -8.31,2.18 -12.21,0 -3.93,-2.1 -6.41,-6.44 -8.93,-10.74 -2.5,-4.4 -5.74,-8.72 -9.76,-12.36 -8.03,-7.3 -18.04,-11.6 -27.48,-12.19 -4.71,-0.27 -9.3,0.55 -13.11,2.42 -3.8,1.87 -6.8,4.66 -8.65,7.76 -1.9,3.08 -2.52,6.47 -2.27,9.3 0.21,2.86 1.15,5.2 2.21,6.89 1.05,1.71 2.23,2.77 3.07,3.37 0.85,0.62 1.36,0.83 1.37,0.8 0.15,-0.15 -2.02,-1.09 -3.95,-4.46 -0.94,-1.66 -1.76,-3.93 -1.88,-6.65 -0.16,-2.7 0.49,-5.83 2.33,-8.71 1.8,-2.88 4.68,-5.48 8.3,-7.2 3.62,-1.73 7.98,-2.47 12.5,-2.17 9.06,0.63 18.79,4.84 26.57,11.92 3.91,3.55 7.02,7.67 9.51,12.01 2.54,4.26 5.11,8.85 9.53,11.21 2.15,1.18 4.62,1.56 6.89,1.41 2.29,-0.13 4.41,-0.76 6.37,-1.47 3.94,-1.49 7.23,-3.47 10.47,-4.7 3.19,-1.25 6.34,-1.83 8.98,-1.34 2.65,0.5 4.69,1.87 5.96,3.25 1.3,1.41 1.77,2.88 1.92,3.86 0.16,1 0.04,1.55 0.13,1.56z"/>
   <path class="fil12" d="M1663.82 1350.17l0.59 5.46c1.72,-0.11 3.3,0.67 4.28,1.96 0.16,-0.03 0.32,-0.06 0.48,-0.08 1.8,-0.19 3.47,0.6 4.49,1.95 0.16,-0.04 0.33,-0.06 0.5,-0.08 2.71,-0.3 5.15,1.67 5.45,4.38 0.29,2.71 0.58,5.42 0.87,8.13 0.82,7.6 -4.68,14.44 -12.29,15.26 -3.91,0.42 -7.78,-0.83 -10.71,-3.45 -0.29,-0.26 -0.57,-0.53 -0.84,-0.81l-9.11 -8.89c-0.09,-0.07 -0.18,-0.14 -0.27,-0.22 -1.99,-1.71 -2.14,-4.56 -0.69,-6.67 0.39,-0.58 0.9,-1.06 1.51,-1.4 2.21,-1.26 5.01,-0.44 7.56,0.82l-1.65 -15.3c-0.01,-0.06 -0.01,-0.13 -0.02,-0.19 -0.29,-2.72 1.67,-5.16 4.39,-5.45 2.71,-0.29 5.15,1.67 5.44,4.39 0.01,0.06 0.02,0.13 0.02,0.19zm-5.19 -2.03c1.31,-0.14 2.48,0.81 2.62,2.11 0.01,0.05 0.01,0.09 0.01,0.14l1.1 10.17c0,-1.2 0.91,-2.23 2.13,-2.36 1.3,-0.14 2.48,0.81 2.62,2.11 0,0.05 0,0.09 0.01,0.14l0.2 1.92c0.03,-1.17 0.93,-2.18 2.13,-2.31 1.31,-0.14 2.48,0.81 2.62,2.12 0.01,0.04 0.01,0.09 0.01,0.13 0.06,0.53 0.17,1.51 0.22,1.97 0.04,0.39 0.01,0.26 0.01,0 0.01,-1.19 0.91,-2.22 2.13,-2.35 1.3,-0.14 2.47,0.8 2.61,2.11 0.3,2.7 0.59,5.41 0.88,8.12 0.67,6.2 -3.81,11.77 -10.01,12.43 -3.31,0.36 -6.43,-0.75 -8.73,-2.8 -0.25,-0.23 -0.49,-0.46 -0.72,-0.7l-9.29 -9.07c-0.08,-0.06 -0.17,-0.12 -0.25,-0.19 -0.97,-0.83 -0.97,-2.22 -0.24,-3.28 1.82,-2.67 7.59,1.24 10.05,2.76l-2.2 -20.41c-0.01,-0.05 -0.02,-0.09 -0.02,-0.14 -0.14,-1.3 0.8,-2.48 2.11,-2.62z"/>
  </g>
  <g id="_2747715658960">
   <path class="fil6" d="M924.56 743.85c-32.06,15.22 -46.55,59.12 -29.86,90.44 6.58,12.36 17.32,23.24 18.74,37.16 2.19,21.36 -18.02,38.07 -24.26,58.6 -7.32,24.09 8.67,52.65 33.02,59.01 10.97,2.87 24.11,2.37 31.46,11 9.38,11.02 2.61,29.33 10.63,41.37 7.24,10.88 24.14,11.41 35.02,4.19 10.89,-7.23 16.89,-19.8 21.18,-32.14 4.29,-12.33 7.52,-25.32 14.93,-36.08 8.16,-11.84 20.65,-19.89 30.57,-30.3 23.87,-25.05 31.16,-62.63 25.79,-96.81 -5.36,-34.18 -21.93,-65.58 -40.66,-94.67l-126.56 -11.77z"/>
   <path class="fil13" d="M924.56 743.85c-32.06,15.22 -46.55,59.12 -29.86,90.44 6.58,12.36 17.32,23.24 18.74,37.16 2.19,21.36 -18.02,38.07 -24.26,58.6 -7.32,24.09 8.67,52.65 33.02,59.01 10.97,2.87 24.11,2.37 31.46,11 9.38,11.02 2.61,29.33 10.63,41.37 7.24,10.88 24.14,11.41 35.02,4.19 10.89,-7.23 16.89,-19.8 21.18,-32.14 4.29,-12.33 7.52,-25.32 14.93,-36.08 8.16,-11.84 20.65,-19.89 30.57,-30.3 23.87,-25.05 31.16,-62.63 25.79,-96.81 -5.36,-34.18 -21.93,-65.58 -40.66,-94.67l-126.56 -11.77z"/>
   <path class="fil6" d="M952.71 761.9c-27.15,11.95 -39.05,49.62 -23.71,75 9.38,15.51 27.58,29.51 23.17,47.09 -2.99,11.92 -15.78,19.22 -19.45,30.95 -4.89,15.61 9.9,32.17 26.14,34.14 16.24,1.97 31.98,-6.73 44.27,-17.52 42.61,-37.43 52.98,-110.97 26.43,-161.09l-76.85 -8.57z"/>
   <path class="fil6" d="M1092.72 523.11c0,0 139.49,92.28 124.25,251.83l-128.25 -57.55 4 -194.28z"/>
   <polygon class="fil4" points="860.94,714.24 892.62,766.76 1057.04,766.76 1088.72,717.25 "/>
   <path class="fil6" d="M966.32 184.35c-64.99,4.35 -115.07,59.02 -113.73,124.13l8.35 408.77 227.78 0 7.61 -409.01c1.33,-71.41 -58.75,-128.66 -130.01,-123.89z"/>
   <path class="fil7" d="M966.32 190.99c-64.99,4.34 -115.07,59.01 -113.73,124.13l8.35 408.77 227.78 0 7.61 -409.01c1.33,-71.41 -58.75,-128.66 -130.01,-123.89z"/>
   <path class="fil6" d="M856.94 523.11c0,0 -139.49,92.28 -124.25,251.83l128.25 -57.55 -4 -194.28z"/>
   <path class="fil6" d="M853.86 294.93c48.15,-42.17 199.37,-41.25 239.97,-6.94 -10.45,-151.75 -126.31,-208.5 -126.31,-208.5 -118.57,82.04 -113.66,215.44 -113.66,215.44z"/>
   <path class="fil1" d="M979.15 327.52c30.15,6.65 48.78,38.34 41.62,70.77 -7.16,32.43 -37.4,53.32 -67.55,46.67 -30.15,-6.66 -48.78,-38.35 -41.62,-70.78 7.16,-32.43 37.41,-53.32 67.55,-46.66z"/>
   <path class="fil6" d="M957.27 539.89l4.86 244.07c0.14,7.07 5.98,12.7 13.05,12.58 6.95,-0.11 12.55,-5.71 12.62,-12.66 0.49,-43.96 2.1,-192.07 2.37,-244.32 0.05,-10.08 -8.9,-17.75 -18.87,-16.27 -8.19,1.22 -14.2,8.33 -14.03,16.6z"/>
   <path class="fil9" d="M957.27 539.89l4.86 244.07c0.14,7.07 5.98,12.7 13.05,12.58 6.95,-0.11 12.55,-5.71 12.62,-12.66 0.49,-43.96 2.1,-192.07 2.37,-244.32 0.05,-10.08 -8.9,-17.75 -18.87,-16.27 -8.19,1.22 -14.2,8.33 -14.03,16.6z"/>
   <path class="fil14" d="M964.79 93.41c0.74,0.82 -7.38,8.69 -19.16,22.45 -5.93,6.84 -12.57,15.34 -19.5,25.05 -6.81,9.81 -13.85,20.89 -20.42,32.99 -6.47,12.16 -11.84,24.14 -16.26,35.23 -4.28,11.15 -7.7,21.37 -10.15,30.08 -4.98,17.42 -7.06,28.53 -8.16,28.37 -0.8,-0.09 -0.45,-11.52 3.38,-29.57 1.88,-9.02 4.87,-19.61 8.92,-31.13 4.19,-11.46 9.51,-23.83 16.14,-36.28 6.72,-12.39 14.1,-23.65 21.36,-33.46 7.37,-9.73 14.55,-18.06 21.05,-24.6 12.94,-13.15 22.28,-19.75 22.8,-19.13z"/>
   <path class="fil14" d="M851.61 547.39c0.67,1.03 -10.87,8.53 -26.96,23.45 -1.99,1.89 -4.07,3.87 -6.23,5.92 -2.16,2.07 -4.19,4.44 -6.42,6.77 -4.53,4.57 -8.79,9.98 -13.43,15.52 -8.87,11.42 -17.79,24.61 -25.67,39.31 -7.71,14.8 -13.57,29.61 -18,43.38 -1.97,6.95 -4.03,13.52 -5.26,19.85 -0.66,3.14 -1.48,6.16 -1.97,9.1 -0.48,2.95 -0.94,5.78 -1.38,8.49 -3.25,21.71 -2.94,35.46 -4.17,35.49 -0.48,0.02 -0.94,-3.39 -1.37,-9.63 -0.09,-1.6 -0.2,-3.33 -0.31,-5.2 -0.04,-1.9 0.06,-3.97 0.1,-6.19 0.16,-4.43 0.11,-9.52 0.86,-15.08 0.31,-2.79 0.63,-5.71 0.97,-8.75 0.36,-3.04 1.06,-6.15 1.61,-9.4 1.01,-6.53 2.91,-13.33 4.77,-20.52 4.2,-14.24 10.05,-29.57 17.99,-44.79 8.1,-15.13 17.46,-28.6 26.85,-40.1 4.89,-5.59 9.44,-10.98 14.26,-15.5 2.38,-2.29 4.55,-4.62 6.86,-6.64 2.32,-1.98 4.55,-3.89 6.68,-5.72 4.16,-3.75 8.4,-6.58 11.97,-9.22 1.81,-1.29 3.46,-2.53 5.05,-3.56 1.61,-0.97 3.1,-1.86 4.47,-2.68 5.4,-3.17 8.48,-4.71 8.73,-4.3z"/>
  </g>
  <g id="_2747715671872">
   <g>
    <g>
     <path class="fil6" d="M1123.4 1449.88l-259.27 0c-45.48,0 -82.35,-36.87 -82.35,-82.36l0 -11.54c0,-45.48 36.87,-82.35 82.35,-82.35l259.27 0c45.48,0 82.35,36.87 82.35,82.35l0 11.54c0,45.49 -36.87,82.36 -82.35,82.36z"/>
    </g>
   </g>
   <g>
    <path class="fil15" d="M854.84 1397.57l0 -52.31c0,-0.06 0,-0.13 0,-0.2 0,-2.15 -1.77,-3.88 -3.95,-3.88 -2.19,0 -3.96,1.73 -3.96,3.88 0,0.07 0.01,0.14 0.01,0.2l0 52.31c0,0.07 -0.01,0.14 -0.01,0.21 0,2.14 1.77,3.88 3.96,3.88 2.18,0 3.95,-1.74 3.95,-3.88 0,-0.07 0,-0.14 0,-0.21z"/>
    <path class="fil15" d="M909.93 1398l0 0c0,2.04 -1.66,3.7 -3.7,3.7 -2.05,0 -3.7,-1.66 -3.7,-3.7l-0.01 0 0 -32.48c0,-4.68 -1.72,-8.71 -5.15,-12.09 -3.43,-3.39 -7.43,-5.08 -12.01,-5.08 -4.65,0 -8.69,1.69 -12.12,5.08 -3.42,3.38 -5.15,7.41 -5.15,12.09l0 32.2c0.01,0.09 0.01,0.18 0.01,0.28 0,2.05 -1.66,3.71 -3.71,3.71 -2.06,0 -3.72,-1.66 -3.72,-3.71 0,-0.1 0,-0.19 0.01,-0.28l0 -31.42c0,-7.22 2.34,-13.22 7.02,-17.99 4.68,-4.78 10.57,-7.17 17.66,-7.17 7.02,0 12.87,2.39 17.55,7.17 4.68,4.77 7.02,10.77 7.02,17.99l0 31.7z"/>
    <path class="fil15" d="M1083.65 1394.69c4.39,5.47 -3.2,9.46 -6.25,5.11l-15.25 -23.31 -15.14 23.31c-2.85,4.32 -10.13,0.54 -5.92,-4.9l16.35 -24.78 -16.54 -23.76c-2.69,-4.08 2.97,-8.28 6,-4.13l15.32 21.59 14.83 -21.6c2.89,-4.25 9.47,0.03 6.58,4.15l-16.84 23.94 16.86 24.38z"/>
    <path class="fil15" d="M1034.57 1373.89l-44.98 0c0.62,5.85 3.1,10.68 7.45,14.49 4.35,3.81 9.49,5.68 15.41,5.61 9.18,-0.14 15.74,-4.39 19.69,-12.75 2.68,-6.74 10.06,-3.36 7.57,1.81 -2.53,5.27 -5.67,9.77 -10.33,13.08 -5.17,3.67 -10.91,5.54 -17.24,5.61 -7.96,0.14 -15,-2.77 -21.12,-8.72 -6.12,-5.95 -9.25,-13.04 -9.38,-21.27 -0.21,-8.71 2.87,-16.21 9.23,-22.5 6.36,-6.29 13.86,-9.2 22.5,-8.72 7.75,0.48 14.48,3.67 20.2,9.59 4.53,4.81 7.2,10.09 8,15.82 0.46,2.49 -0.49,8 -7,7.95zm-0.39 -7.14c-1.09,-5.44 -3.64,-9.85 -7.65,-13.21 -4.02,-3.37 -8.81,-5.09 -14.39,-5.15 -5.58,-0.07 -10.46,1.59 -14.64,4.99 -4.18,3.4 -6.82,7.86 -7.91,13.37l44.59 0z"/>
    <path class="fil15" d="M975.51 1371.3c0,8.35 -2.78,15.56 -8.96,21.64 -6.18,6.07 -13.44,8.98 -21.79,8.71 -8.08,-0.21 -14.92,-3.26 -20.52,-9.17 -5.6,-5.91 -8.41,-12.93 -8.41,-21.08 0,-8.49 3.03,-15.77 9.05,-21.85 6.03,-6.07 13.21,-8.97 21.54,-8.7 8.56,0.34 15.67,3.77 21.35,10.28l0 -25.51 0.01 0c0,-2.13 1.73,-3.86 3.86,-3.86 2.14,0 3.87,1.73 3.87,3.86l0 0 0 45.68zm-7.74 -0.61c-0.13,-6.15 -2.29,-11.39 -6.48,-15.75 -4.18,-4.37 -9.27,-6.56 -15.26,-6.56 -6.13,-0.06 -11.39,2.11 -15.77,6.51 -4.39,4.39 -6.62,9.69 -6.69,15.9 -0.06,6.13 1.97,11.51 6.13,16.11 4.14,4.6 9.22,7.01 15.21,7.21 6.4,0.34 11.86,-1.88 16.38,-6.65 4.53,-4.77 6.69,-10.37 6.48,-16.77z"/>
    <circle class="fil16" cx="850.89" cy="1327.73" r="5.68"/>
    <path class="fil16" d="M1142.32 1371.36c0,8.32 -3.02,15.51 -9.08,21.56 -6.05,6.05 -13.23,8.94 -21.55,8.67 -8.05,-0.2 -14.86,-3.24 -20.44,-9.13 -5.58,-5.88 -8.37,-12.88 -8.37,-21 0,-8.45 3.01,-15.7 9.03,-21.75 6.02,-6.06 13.18,-8.95 21.5,-8.68 8.05,0.27 14.88,3.37 20.49,9.28 5.62,5.92 8.42,12.94 8.42,21.05zm-7.71 -0.61c-0.2,-6.12 -2.38,-11.34 -6.56,-15.68 -4.15,-4.35 -9.19,-6.53 -15.09,-6.53 -6.17,-0.07 -11.43,2.1 -15.76,6.47 -4.35,4.38 -6.54,9.66 -6.61,15.85 -0.14,6.1 1.86,11.46 6,16.04 4.13,4.58 9.18,6.98 15.15,7.19 6.37,0.33 11.82,-1.88 16.31,-6.63 4.52,-4.75 6.7,-10.33 6.56,-16.71z"/>
   </g>
  </g>
 </g>
</svg>
