<?xml version="1.0" encoding="UTF-8"?>
<!DOCTYPE svg PUBLIC "-//W3C//DTD SVG 1.1//EN" "http://www.w3.org/Graphics/SVG/1.1/DTD/svg11.dtd">

<svg xmlns="http://www.w3.org/2000/svg" xml:space="preserve" width="2084px" height="1706px" version="1.1" style="shape-rendering:geometricPrecision; text-rendering:geometricPrecision; image-rendering:optimizeQuality; fill-rule:evenodd; clip-rule:evenodd"
viewBox="0 0 2241.07 1834.82"
 xmlns:xlink="http://www.w3.org/1999/xlink">
 <defs>
  <style type="text/css">
   <![CDATA[
    .fil9 {fill:white}
    .fil5 {fill:#263138;fill-rule:nonzero}
    .fil2 {fill:#3880FF;fill-rule:nonzero}
    .fil6 {fill:#445964;fill-rule:nonzero}
    .fil0 {fill:#DFDFDF;fill-rule:nonzero}
    .fil4 {fill:#EB996E;fill-rule:nonzero}
    .fil1 {fill:#EBEBEB;fill-rule:nonzero}
    .fil8 {fill:#F9F9F9;fill-rule:nonzero}
    .fil3 {fill:#FFBD9C;fill-rule:nonzero}
    .fil7 {fill:black;fill-rule:nonzero;fill-opacity:0.301961}
   ]]>
  </style>
 </defs>
 <g id="Capa_x0020_1">

  <g id="_2402809340992">
   <g>
    <g>
     <g>
      <path class="fil0" d="M1851.13 1066.17c13.45,-47.65 75.38,-43.02 75.38,-43.02l-1.71 33.13c-35.79,-6.17 -58.04,35.78 -58.04,35.78l-15.63 -25.89z"/>
     </g>
    </g>
    <g>
     <g>
      <path class="fil0" d="M941.89 516.12c-71.82,21.76 -116.51,-61.08 -116.51,-61.08l43.7 -24.91c21.36,50.75 93.1,44.88 93.1,44.88l-20.29 41.11z"/>
     </g>
    </g>
    <g>
     <g>
      <path class="fil0" d="M345.66 960.79c13.9,-39.61 66.05,-32.43 66.05,-32.43l-3.19 27.95c-29.96,-7.11 -51,27.22 -51,27.22l-11.86 -22.74z"/>
     </g>
    </g>
    <g>
     <g>
      <path class="fil0" d="M1169.5 32.94c13.9,-39.61 66.05,-32.43 66.05,-32.43l-3.19 27.95c-29.96,-7.11 -51,27.21 -51,27.21l-11.86 -22.73z"/>
     </g>
    </g>
    <g>
     <g>
      <path class="fil1" d="M1791.8 539.8c13.9,-39.62 66.05,-32.43 66.05,-32.43l-3.18 27.95c-29.97,-7.12 -51.01,27.21 -51.01,27.21l-11.86 -22.73z"/>
     </g>
    </g>
    <g>
     <g>
      <path class="fil1" d="M1922.56 169.49c41.42,6.8 43.42,59.41 43.42,59.41l-28.08 1.72c1.79,-30.74 -35.67,-45.5 -35.67,-45.5l20.33 -15.63z"/>
     </g>
    </g>
    <g>
     <g>
      <path class="fil1" d="M2220.78 1401.72c-71.82,21.76 -116.51,-61.08 -116.51,-61.08l43.7 -24.9c21.36,50.75 93.1,44.88 93.1,44.88l-20.29 41.1z"/>
     </g>
    </g>
    <g>
     <g>
      <path class="fil0" d="M174.6 520.69c-4.86,-33.26 34.81,-47.54 34.81,-47.54l8.12 21.01c-23.9,6.09 -26.07,38.25 -26.07,38.25l-16.86 -11.72z"/>
     </g>
    </g>
    <g>
     <g>
      <path class="fil1" d="M413.39 155.39c28.01,18.58 12.16,57.65 12.16,57.65l-21.07 -7.98c11.43,-21.86 -11.07,-44.95 -11.07,-44.95l19.98 -4.72z"/>
     </g>
    </g>
   </g>
   <g>
    <g>
     <path class="fil2" d="M667.63 1149.17c13.45,-47.65 75.37,-43.02 75.37,-43.02l-1.7 33.13c-35.8,-6.17 -58.04,35.78 -58.04,35.78l-15.63 -25.89z"/>
    </g>
   </g>
   <g>
    <g>
     <path class="fil2" d="M1276.88 594.88c33.43,3.54 37.42,45.51 37.42,45.51l-22.37 2.66c0.04,-24.67 -30.58,-34.75 -30.58,-34.75l15.53 -13.42z"/>
    </g>
   </g>
   <g>
    <g>
     <path class="fil2" d="M965.63 150.23c-20.39,51.96 -89.34,39.88 -89.34,39.88l5.59 -36.99c39.47,10.92 69.1,-33.67 69.1,-33.67l14.65 30.78z"/>
    </g>
   </g>
   <g>
    <g>
     <path class="fil2" d="M1743.21 1027.92c33.43,3.54 37.42,45.51 37.42,45.51l-22.37 2.66c0.04,-24.66 -30.59,-34.75 -30.59,-34.75l15.54 -13.42z"/>
    </g>
   </g>
   <g>
    <g>
     <path class="fil2" d="M1605.48 316.25c-4.85,-33.26 34.81,-47.55 34.81,-47.55l8.13 21.02c-23.91,6.08 -26.08,38.25 -26.08,38.25l-16.86 -11.72z"/>
    </g>
   </g>
   <g>
    <g>
     <path class="fil2" d="M2176.95 826.76c6.01,52.15 -63.08,64.78 -63.08,64.78l-12.46 -34.12c41.45,-3.75 47.43,-52.57 47.43,-52.57l28.11 21.91z"/>
    </g>
   </g>
   <g>
    <g>
     <path class="fil2" d="M534.98 575.09c-33.56,1.91 -44.31,-38.85 -44.31,-38.85l21.65 -6.25c3.96,24.35 35.81,29.34 35.81,29.34l-13.15 15.76z"/>
    </g>
   </g>
  </g>
  <g id="_2402696906912">
   <path class="fil3" d="M212.52 1026.05c0,0 -54.39,-33.09 -66.64,-23.37 -17.7,14.03 -23.59,37.73 -23.59,37.73 0,0 -28.73,-109.58 -56.14,-105.42 -15.73,2.38 -8.01,14.63 -0.97,30.02 6.55,14.28 17.71,66.7 17.71,66.7 0,0 -51.98,-61.67 -67.26,-60.56 -11.81,0.87 -13.51,11.26 3.48,27.93 17,16.67 45.24,69.19 45.24,69.19 0,0 -36.41,-33.95 -51.45,-34.13 -12,-0.15 -19.75,8.18 -4.22,21.66 15.52,13.48 39.02,23.59 51.55,47.98 15.45,30.05 48.39,104.98 48.39,104.98l115.29 -40.82c0,0 18.76,-76.48 19.51,-95.06 0,0 -1.58,-39.27 -1.35,-46.26 0.22,-6.99 -18.32,-8.78 -23.95,4.64 -5.63,13.42 -3.08,27.5 -5.36,36.43 -2.28,8.93 -6.34,17.2 -12.87,21.19 -6.53,4 -23.14,4.27 -27.38,-0.67 -4.24,-4.93 -9.39,-19.29 -10.51,-28.13 -1.12,-8.84 0.33,-22.79 0.33,-22.79 0,0 47.86,19.45 50.19,-11.24z"/>
   <path class="fil3" d="M1507.9 1382.9l80.11 -30.01c0,0 81.56,-47.76 96.66,-30.8 0,0 16.14,-7.68 23.3,9.52 4.16,9.97 -9.55,24.44 -9.55,24.44 0,0 4.27,4.33 -2.49,18.96 -6.75,14.64 -84.17,60.81 -84.17,60.81 0,0 -100.66,54.88 -141.36,81.14l-70.22 -95.51 9.76 -3.65c0,0 5.8,-47.6 25.28,-60.29 21.2,-13.81 46.78,-51.18 52.41,-65.82 5.63,-14.63 32.65,-7.88 28.15,22.52 -4.5,30.4 -28.15,38.28 -25.9,58.55 2.25,20.27 18.02,10.14 18.02,10.14z"/>
   <path class="fil4" d="M1630.71 1394c0.31,0.57 15.92,-7.58 34.85,-18.19 18.94,-10.62 34.03,-19.67 33.72,-20.24 -0.32,-0.56 -15.92,7.59 -34.86,18.2 -18.93,10.61 -34.03,19.67 -33.71,20.23z"/>
   <path class="fil4" d="M1591.61 1371.48c0.14,0.29 5.61,-1.93 14.38,-5.72 8.76,-3.81 20.78,-9.28 33.77,-15.92 12.99,-6.65 24.44,-13.3 32.45,-18.54 3.99,-2.65 7.18,-4.84 9.3,-6.49 2.13,-1.63 3.26,-2.58 3.16,-2.72 -0.21,-0.29 -5.14,2.94 -13.33,7.8 -8.19,4.87 -19.7,11.24 -32.64,17.87 -12.95,6.62 -24.83,12.31 -33.4,16.5 -8.59,4.18 -13.83,6.93 -13.69,7.22z"/>
   <path class="fil4" d="M1574.76 1415.61c0.08,0.15 2.61,-1.23 7.1,-3.85 4.8,-2.87 11.17,-6.67 18.87,-11.27l0.22 -0.13 0.12 -0.26c3.53,-7.64 7.93,-16.64 13.6,-26.03 2.86,-4.62 6.01,-9.61 10.19,-13.47 4.16,-3.87 10.79,-4.54 15.78,-1.19 1.07,0.61 2.36,1.89 2.51,2.3 -0.12,0.19 -0.1,0.23 -0.18,0.54l-0.32 0.99c-0.2,0.66 -0.46,1.33 -0.7,2 -0.98,2.67 -2.03,5.31 -3.06,7.89 -2.12,5.16 -4.16,10.16 -6.13,14.97 -3.99,9.5 -7.64,18.21 -10.84,25.84l0.15 -0.23c-6.58,7.71 -12.03,14.09 -16.11,18.87 -1.71,2.08 -3.13,3.81 -4.3,5.25 -0.96,1.22 -1.44,1.89 -1.37,1.95 0.06,0.05 0.67,-0.5 1.76,-1.61 1.27,-1.35 2.81,-2.97 4.66,-4.93 4.23,-4.65 9.87,-10.86 16.69,-18.36l0.09 -0.09 0.06 -0.14c3.34,-7.48 7.14,-16.16 11.22,-25.71 2.01,-4.8 4.09,-9.79 6.25,-14.95 1.05,-2.6 2.11,-5.23 3.11,-7.95 0.25,-0.69 0.51,-1.36 0.73,-2.09l0.35 -1.07c0.13,-0.39 0.21,-1.08 0.24,-1.6 -0.42,-1.41 -1.06,-1.7 -1.64,-2.38 -0.61,-0.54 -1.24,-1.03 -1.91,-1.45 -2.88,-1.83 -6.29,-2.78 -9.66,-2.48 -3.39,0.21 -6.47,1.84 -8.87,3.89 -4.63,4.33 -7.65,9.34 -10.56,14.09 -5.65,9.59 -9.91,18.67 -13.3,26.48l0.33 -0.38c-7.54,4.86 -13.78,8.88 -18.48,11.91 -4.33,2.86 -6.69,4.51 -6.6,4.65z"/>
   <path class="fil4" d="M1494.44 1416.38c0.1,0.33 3.84,-0.72 9.84,-2.41 5.99,-1.63 14.32,-3.95 23.68,-4.18 9.35,-0.21 17.66,2.41 22.84,5.59 5.25,3.14 7.57,6.35 7.9,6.07 0.19,-0.09 -1.7,-3.76 -7.01,-7.46 -5.22,-3.72 -13.97,-6.76 -23.77,-6.53 -9.78,0.24 -18.23,2.9 -24.13,4.94 -5.92,2.1 -9.45,3.7 -9.35,3.98z"/>
   <path class="fil4" d="M1500.46 1395.22c-0.54,0.4 1.46,3.87 3.39,8.32 1.97,4.44 3.17,8.25 3.83,8.13 0.61,-0.09 0.4,-4.34 -1.69,-9.07 -2.07,-4.73 -5.05,-7.77 -5.53,-7.38z"/>
   <path class="fil5" d="M1038.72 1014.37c-5.52,-37.76 -49.49,-91.9 -88.4,-91.96 22.3,-32.32 22.65,-77.8 0.84,-110.45 -15.01,-22.47 -39.23,-38.99 -49.49,-63.89 -11.62,-28.17 -2.71,-60.01 -3.81,-90.38 -1.62,-44.46 -24.75,-85.06 -47.28,-123.67 -20.63,-35.36 -45.79,-74.12 -86.38,-82.81 -25.68,-5.5 -52.32,2.61 -76.43,12.88 -115.38,49.14 -205.11,152.72 -235.9,272.3 -7.38,28.63 -12.32,59.6 -32.26,81.72 -21.13,23.43 -58.13,36.14 -64.47,66.79 -4.55,21.97 9.56,44.07 7.44,66.4 -1.77,18.7 -36.81,73.23 -44.88,90.26 -13.92,29.35 -8.89,61.06 5.28,90.29 14.17,29.23 50.23,57.7 82.22,65.66l357.65 -119.17c33.65,19.15 67.16,93.25 105.79,97.8 38.63,4.56 85.76,21.37 122.92,-19.3 38.96,-42.63 52.69,-104.71 47.16,-142.47z"/>
   <path class="fil5" d="M445.7 658.65c4,29.92 -4.2,79.41 -20.56,104.98 -10.98,17.16 -29.3,28.32 -47.37,38.14 -18.08,9.82 -37,19.23 -50.71,34.4 -13.7,15.16 -21.05,37.89 -11.89,56.05 -32.22,12.01 -46.67,53.06 -34.85,84.8 11.82,31.74 44.23,53.1 78.09,59.44l147.51 -44.37 32.39 -188.24 -85.15 -145.2 -7.46 0z"/>
   <path class="fil6" d="M427.6 850.55c-0.03,-0.06 -1.02,0.37 -2.89,1.26 -1.82,0.97 -4.71,2.06 -8.05,4.18 -6.84,3.95 -16.29,10.8 -25.86,21.56 -4.87,5.29 -9.38,11.83 -13.77,19.13 -4.05,7.48 -8.14,15.75 -10.74,25.09 -5.74,18.43 -7,40.81 -0.4,62.82l0.54 -1.35c-8.49,4.73 -16.69,10.91 -24,18.24 -18.84,18.68 -29.59,42.96 -32.17,65.68 -2.51,22.89 2.94,43.63 10.56,59.02 7.67,15.53 17.18,26.1 24.22,32.59 3.59,3.21 6.49,5.58 8.59,6.99 2.06,1.47 3.16,2.21 3.2,2.14 0.05,-0.06 -0.96,-0.93 -2.92,-2.51 -2,-1.53 -4.78,-4 -8.24,-7.28 -6.79,-6.64 -16,-17.25 -23.37,-32.64 -7.32,-15.27 -12.48,-35.68 -9.91,-58.07 2.64,-22.22 13.24,-45.98 31.69,-64.27 7.16,-7.18 15.17,-13.23 23.47,-17.87l0.81 -0.46 -0.27 -0.9c-6.48,-21.47 -5.37,-43.4 0.15,-61.55 2.48,-9.2 6.45,-17.37 10.35,-24.78 4.26,-7.23 8.63,-13.73 13.36,-19.02 9.29,-10.75 18.48,-17.72 25.14,-21.85 3.24,-2.22 6.06,-3.42 7.81,-4.51 1.8,-1.01 2.73,-1.57 2.7,-1.64z"/>
   <path class="fil2" d="M863.97 1045.49c0,0 65.9,20.04 89.01,53.65 16.34,23.77 183.69,386.17 183.69,386.17l254.03 -76.38 90.82 119.97 -282.64 156.66c-52.4,29.05 -116.14,28.77 -168.28,-0.74 -28.91,-16.36 -52.48,-40.74 -67.85,-70.19l-71.87 -137.7 -26.91 -431.44z"/>
   <path class="fil2" d="M931.41 1834.82l-39.67 -170.97 30.06 -124.14c19.33,-63.93 35.93,-168.05 14.89,-251.92l-70.25 -241.16 -77.24 -35.53 -176.77 -30.4c-6.8,2.26 -184.83,52.55 -184.83,52.55 -24.65,5.72 -34.54,9.65 -34.54,9.65l-20.41 132.02 61.38 217.59 26.73 216.81 -58.73 225.5 529.38 0z"/>
   <path class="fil3" d="M829.26 1029.52l-51.26 -22.94 -231.03 3.22 -54.64 31.72c0,0 190.86,210.65 238.76,217.62 120.48,17.52 98.17,-229.62 98.17,-229.62z"/>
   <path class="fil2" d="M398.08 1041.07c0,0 -34.61,7.79 -64.27,71.07 -29.66,63.28 -77.62,239.4 -77.62,239.4l-20.5 -186.64 -167.03 18.38 32.33 446.06c0,0 59.11,85.72 157.98,77.81 98.88,-7.91 224.41,-320.46 224.41,-320.46l-85.3 -345.62z"/>
   <path class="fil5" d="M282.26 1579.45c0.04,0 0.05,-0.37 0.03,-1.08 -0.03,-0.85 -0.08,-1.89 -0.13,-3.16 -0.18,-2.97 -0.42,-7.02 -0.73,-12.14 -0.64,-10.54 -1.9,-25.77 -3.64,-44.57 -3.48,-37.61 -9.86,-89.4 -17.66,-146.47 -7.8,-57.09 -14.43,-108.8 -18.33,-146.34 -1.95,-18.77 -3.46,-33.97 -4.37,-44.48 -0.5,-5.1 -0.89,-9.14 -1.17,-12.1 -0.15,-1.26 -0.27,-2.3 -0.37,-3.14 -0.09,-0.71 -0.16,-1.07 -0.2,-1.07 -0.04,0.01 -0.05,0.37 -0.03,1.09 0.03,0.85 0.07,1.88 0.13,3.16 0.18,2.96 0.42,7.01 0.73,12.13 0.63,10.54 1.89,25.77 3.64,44.57 3.48,37.61 9.85,89.41 17.66,146.49 7.8,57.07 14.43,108.78 18.33,146.32 1.95,18.77 3.46,33.97 4.37,44.48 0.49,5.1 0.88,9.14 1.17,12.1 0.15,1.27 0.26,2.3 0.36,3.14 0.1,0.71 0.16,1.07 0.21,1.07z"/>
   <path class="fil5" d="M1133.78 1581.57c0.15,0.06 0.8,-1.13 1.85,-3.34 1.07,-2.2 2.41,-5.49 3.88,-9.61 2.94,-8.25 6,-20.07 7.31,-33.42 1.28,-13.36 0.54,-25.54 -0.76,-34.2 -0.64,-4.34 -1.33,-7.82 -1.96,-10.18 -0.61,-2.38 -1.02,-3.67 -1.18,-3.63 -0.37,0.08 0.64,5.38 1.5,14.01 0.87,8.62 1.34,20.62 0.08,33.77 -1.29,13.15 -4.05,24.84 -6.56,33.14 -2.5,8.3 -4.51,13.31 -4.16,13.46z"/>
   <path class="fil5" d="M1105.68 1585.71c0.13,0.09 1.17,-1.1 2.95,-3.34 1.8,-2.22 4.2,-5.59 6.97,-9.89 5.55,-8.57 12.24,-21.15 17.4,-35.92 5.13,-14.78 7.69,-28.79 8.66,-38.97 0.49,-5.08 0.71,-9.22 0.67,-12.08 0,-2.85 -0.08,-4.43 -0.24,-4.43 -0.39,-0.02 -0.68,6.28 -2.07,16.32 -1.38,10.03 -4.16,23.79 -9.22,38.4 -5.1,14.58 -11.46,27.1 -16.61,35.82 -5.14,8.74 -8.82,13.85 -8.51,14.09z"/>
   <path class="fil5" d="M907.94 1187.18c-0.07,0.02 0.22,1.26 0.85,3.61 0.7,2.55 1.65,5.96 2.85,10.24 2.58,9.11 6.2,21.9 10.65,37.61 8.68,31.78 20.76,75.91 26.55,125.89 2.89,24.95 3.47,48.98 0.98,70.59 -2.3,21.63 -7.07,40.73 -11.77,56.5 -4.72,15.79 -9.2,28.37 -12.26,37.08 -1.47,4.19 -2.65,7.53 -3.52,10.02 -0.79,2.3 -1.17,3.52 -1.09,3.55 0.07,0.03 0.6,-1.14 1.53,-3.38 0.98,-2.46 2.29,-5.75 3.94,-9.88 3.32,-8.61 8.04,-21.13 12.98,-36.91 4.92,-15.76 9.89,-34.95 12.33,-56.74 2.63,-21.78 2.1,-46.03 -0.8,-71.1 -5.82,-50.21 -18.19,-94.39 -27.28,-126.07 -4.63,-15.85 -8.59,-28.61 -11.37,-37.42 -1.37,-4.23 -2.46,-7.6 -3.27,-10.11 -0.78,-2.31 -1.22,-3.51 -1.3,-3.48z"/>
   <path class="fil5" d="M440.86 1481.08c0.04,0.01 0.24,-0.36 0.6,-1.1 0.42,-0.87 0.93,-1.96 1.57,-3.31 1.4,-3.1 3.35,-7.39 5.82,-12.84 2.47,-5.6 5.63,-12.39 8.99,-20.41 3.24,-8.1 6.91,-17.29 10.97,-27.43 3.94,-10.21 7.73,-21.59 12.08,-33.71 1.91,-6.16 3.87,-12.52 5.9,-19.07 1.01,-3.28 2.03,-6.61 3.06,-9.98 0.96,-3.39 1.8,-6.87 2.73,-10.37 7.51,-27.95 13.91,-59.35 15.8,-92.81 2.04,-33.41 -1.14,-65.69 -9.66,-93.51 -7.99,-28.01 -22.03,-50.99 -37,-67.04 -14.95,-16.23 -30.54,-25.6 -41.69,-30.58 -5.63,-2.45 -10.11,-4.1 -13.24,-4.91 -1.44,-0.4 -2.61,-0.73 -3.53,-0.99 -0.8,-0.21 -1.22,-0.29 -1.23,-0.25 -0.01,0.03 0.39,0.2 1.16,0.48 0.91,0.32 2.04,0.72 3.46,1.21 3.07,0.95 7.47,2.73 13,5.28 10.95,5.2 26.22,14.68 40.86,30.87 14.65,16.04 28.35,38.77 36.15,66.54 8.33,27.61 11.41,59.57 9.39,92.77 -1.87,33.23 -8.18,64.51 -15.55,92.39 -0.9,3.5 -1.79,6.95 -2.67,10.35 -1.02,3.37 -2.02,6.69 -3,9.97 -1.99,6.54 -3.91,12.9 -5.78,19.04 -4.26,12.12 -7.95,23.51 -11.79,33.74 -3.93,10.17 -7.49,19.39 -10.62,27.52 -3.25,8.05 -6.29,14.89 -8.62,20.54 -2.3,5.52 -4.11,9.87 -5.42,13 -0.55,1.4 -1,2.52 -1.35,3.41 -0.3,0.77 -0.43,1.18 -0.39,1.2z"/>
   <path class="fil7" d="M504.52 1279.03c21.83,103.3 22.12,209.57 -15.47,308.22 -2.18,5.73 -10.81,26.07 -16.93,26.38 -7.76,0.38 -11.44,-9.28 -12.78,-16.92 -2.76,-15.73 -4.44,-41.6 -7.2,-57.33 -3.46,-19.69 -8.14,-65.26 -8.14,-65.26 0,0 18.06,-41.34 26,-63.5 14.73,-41.13 27.18,-80.38 34.07,-128.33l0.45 -3.26z"/>
   <path class="fil5" d="M522.35 1679.22c-0.07,0.04 0.53,0.97 1.74,2.69 1.36,1.9 3.14,4.39 5.36,7.49 1.2,1.63 2.51,3.43 3.93,5.37 1.5,1.92 3.29,3.87 5.14,6.03 3.77,4.24 7.79,9.36 13.06,14.21 2.57,2.51 5.25,5.13 8.03,7.86 2.82,2.71 6.06,5.19 9.25,7.94 6.28,5.63 13.73,10.7 21.41,16.24 15.79,10.46 34.12,20.53 54.46,28.61 20.45,7.82 40.77,12.81 59.47,15.8 9.41,1.12 18.33,2.42 26.77,2.52 4.2,0.14 8.26,0.51 12.17,0.42 3.9,-0.13 7.65,-0.24 11.23,-0.36 7.17,0 13.59,-1.05 19.24,-1.62 2.82,-0.34 5.46,-0.57 7.86,-0.96 2.36,-0.47 4.54,-0.9 6.53,-1.3 3.73,-0.78 6.72,-1.4 9.01,-1.88 2.05,-0.45 3.12,-0.73 3.1,-0.81 -0.02,-0.07 -1.12,0.05 -3.2,0.35 -2.3,0.37 -5.31,0.85 -9.07,1.45 -1.98,0.33 -4.16,0.69 -6.53,1.09 -2.4,0.33 -5.03,0.48 -7.85,0.77 -5.63,0.44 -12.02,1.37 -19.15,1.26 -3.56,0.07 -7.28,0.14 -11.16,0.21 -3.88,0.04 -7.91,-0.37 -12.08,-0.55 -8.38,-0.18 -17.22,-1.55 -26.54,-2.72 -18.54,-3.08 -38.67,-8.09 -58.95,-15.84 -20.17,-8.02 -38.38,-17.95 -54.11,-28.22 -7.65,-5.45 -15.09,-10.43 -21.38,-15.96 -3.19,-2.69 -6.44,-5.12 -9.27,-7.77 -2.8,-2.68 -5.5,-5.25 -8.08,-7.7 -5.31,-4.75 -9.39,-9.76 -13.24,-13.9 -1.88,-2.11 -3.71,-4.01 -5.26,-5.87 -1.47,-1.89 -2.83,-3.64 -4.07,-5.23 -2.36,-2.98 -4.25,-5.37 -5.7,-7.2 -1.32,-1.63 -2.05,-2.47 -2.12,-2.42z"/>
   <path class="fil5" d="M558.8 1610.86c-0.16,0.03 0.06,1.77 0.6,4.9 0.49,3.13 1.54,7.61 3.13,13.06 3.14,10.91 9.11,25.61 18.55,40.22 9.48,14.59 20.46,26.05 29.13,33.38 4.33,3.67 7.99,6.46 10.65,8.19 2.63,1.77 4.13,2.68 4.22,2.54 0.25,-0.34 -5.48,-4.38 -13.77,-11.97 -8.31,-7.57 -18.92,-19.03 -28.27,-33.41 -9.3,-14.4 -15.43,-28.77 -18.94,-39.44 -3.54,-10.68 -4.88,-17.55 -5.3,-17.47z"/>
   <path class="fil2" d="M640.16 422.64c-62.54,0.43 -123.7,35.73 -155.36,89.67 -31.65,53.94 -32.63,124.56 -2.5,179.36 10.27,18.69 25.04,36.37 45.34,42.89 -6.91,-107.18 35.81,-216.55 113.54,-290.67l-1.02 -21.25z"/>
   <path class="fil2" d="M566.97 438.83c9.29,-19.31 -0.65,-43.46 -17.21,-57.06 -16.56,-13.59 -38.13,-19.09 -58.97,-24.07 -20.84,-4.97 -42.43,-10.14 -59.35,-23.27 2.43,33.56 10.78,68.1 32.5,93.81 21.73,25.7 59.37,40.02 90.39,26.96l12.64 -16.37z"/>
   <path class="fil2" d="M545.44 460.95c14.27,6 31.27,2.25 44.03,-6.5 12.77,-8.74 21.9,-21.84 29.39,-35.38 9.2,-16.63 16.43,-34.6 18.88,-53.45 2.45,-18.84 -0.13,-38.67 -9.46,-55.23 -24.53,26.13 -51.55,48.09 -65.57,81.08 -8.24,19.38 -7.24,50.45 1.59,69.56l-18.86 -0.08z"/>
   <path class="fil5" d="M475.96 569.62c-0.16,-0.02 -0.58,2.19 -1.22,6.23 -0.34,2.02 -0.7,4.5 -0.92,7.4 -0.25,2.89 -0.66,6.18 -0.73,9.84 -0.4,7.31 -0.27,16.05 0.46,25.71 0.86,9.64 2.39,20.21 4.94,31.1 2.63,10.88 6.02,21 9.6,30 3.69,8.96 7.51,16.82 11.17,23.16 1.71,3.24 3.55,5.99 5.08,8.46 1.51,2.49 2.94,4.54 4.15,6.19 2.39,3.32 3.77,5.11 3.9,5.01 0.13,-0.09 -1,-2.05 -3.14,-5.51 -1.09,-1.72 -2.4,-3.83 -3.8,-6.36 -1.41,-2.52 -3.14,-5.32 -4.74,-8.58 -3.44,-6.4 -7.07,-14.25 -10.63,-23.16 -3.43,-8.96 -6.71,-18.99 -9.32,-29.75 -2.52,-10.78 -4.1,-21.21 -5.07,-30.75 -0.84,-9.56 -1.14,-18.21 -0.95,-25.46 -0.03,-3.64 0.25,-6.91 0.38,-9.8 0.1,-2.89 0.32,-5.37 0.52,-7.39 0.36,-4.05 0.48,-6.31 0.32,-6.34z"/>
   <path class="fil5" d="M489.96 449.43c-0.1,0.12 1.64,1.51 4.96,3.95 3.57,1.96 8.91,4.83 16.18,6.27 14.43,3.28 35.25,2.6 57.23,-3.27l0.66 -0.17 0.15 -0.67c0.3,-1.34 0.62,-2.78 0.94,-4.23 2.36,-11.63 2.91,-23.1 1.48,-33.34 -1.3,-10.26 -4.85,-19.18 -9.41,-25.57 -4.4,-6.57 -9.78,-10.23 -13.3,-12.69 -3.83,-2.07 -5.96,-3.14 -6.03,-2.99 -0.08,0.14 1.91,1.48 5.53,3.74 3.3,2.66 8.36,6.41 12.43,12.87 4.23,6.29 7.5,14.93 8.65,24.92 1.28,9.97 0.67,21.19 -1.63,32.59 -0.32,1.42 -0.64,2.83 -0.93,4.15l0.81 -0.84c-21.57,5.78 -42.12,6.73 -56.24,3.92 -7.16,-1.2 -12.44,-3.77 -16.08,-5.45 -3.37,-2.16 -5.3,-3.31 -5.4,-3.19z"/>
   <path class="fil5" d="M471.6 391.35c-0.07,0.43 6.55,1.36 16.83,4.4 5.14,1.49 11.13,3.69 17.6,6.52 6.43,2.94 13.31,6.57 20.16,11.01 6.8,4.5 12.88,9.37 18.13,14.09 5.19,4.8 9.6,9.42 13.01,13.54 6.89,8.21 10.39,13.91 10.75,13.68 0.14,-0.09 -0.64,-1.56 -2.18,-4.17 -1.49,-2.64 -3.97,-6.27 -7.29,-10.55 -3.29,-4.31 -7.64,-9.11 -12.82,-14.08 -5.26,-4.88 -11.4,-9.88 -18.32,-14.47 -6.96,-4.51 -14,-8.14 -20.57,-11.02 -6.63,-2.77 -12.77,-4.84 -18.03,-6.14 -5.25,-1.34 -9.57,-2.16 -12.58,-2.48 -3.01,-0.36 -4.67,-0.49 -4.69,-0.33z"/>
   <path class="fil5" d="M546.41 460.41c-0.08,0.02 -0.02,0.48 0.17,1.35 0.15,0.88 0.56,2.12 1.2,3.7 1.3,3.12 4.05,7.4 8.86,11.21 4.8,3.68 11.88,6.92 20.15,6.5 8.28,-0.28 16.85,-5.29 22.18,-13.06 5.33,-7.78 6.9,-17.58 4.17,-25.41 -2.59,-7.86 -8.16,-13.29 -13.33,-16.44 -5.3,-3.11 -10.28,-4.13 -13.65,-4.22 -1.7,-0.02 -3.01,0.04 -3.89,0.22 -0.88,0.14 -1.33,0.25 -1.32,0.33 0.02,0.24 1.87,-0.02 5.13,0.36 3.25,0.35 7.94,1.58 12.85,4.71 4.8,3.16 9.89,8.41 12.17,15.69 2.39,7.2 0.89,16.19 -4.06,23.44 -4.97,7.23 -12.81,11.87 -20.39,12.23 -7.6,0.51 -14.34,-2.33 -19.02,-5.67 -4.69,-3.46 -7.53,-7.39 -9.03,-10.28 -1.53,-2.91 -1.96,-4.73 -2.19,-4.66z"/>
   <path class="fil5" d="M600.74 461.53c0.21,0.23 1.55,-2.44 -0.57,-5.93 -1,-1.65 -2.88,-3.34 -5.32,-4.16 -2.42,-0.88 -5.22,-1.03 -8,-0.83 -11.19,0.79 -19.32,5.15 -19.02,5.66 0.25,0.65 8.5,-2.6 19.17,-3.34 5.29,-0.54 9.87,0.86 11.82,3.61 2.08,2.61 1.55,4.96 1.92,4.99z"/>
   <path class="fil5" d="M628.28 310.39c-0.43,0.2 4.96,6.54 6.85,19.17 1.03,6.24 1.16,13.8 1.06,22.24 -0.11,8.41 -0.48,17.68 -2.39,27.13 -4.25,18.82 -11.95,35.02 -19.14,45.37 -3.64,5.22 -6.85,9.26 -9.12,12 -2.27,2.74 -3.69,4.1 -3.58,4.23 0.27,0.34 6.37,-4.93 14.04,-15.27 7.7,-10.37 15.73,-26.59 20.09,-45.86 1.95,-9.71 2.26,-19.12 2.25,-27.59 -0.01,-8.46 -0.32,-16.18 -1.59,-22.54 -1.19,-6.38 -3.29,-11.28 -5.12,-14.39 -1.84,-3.13 -3.26,-4.57 -3.35,-4.49z"/>
   <path class="fil5" d="M605.06 363.55c-0.24,-0.17 -2.76,2.66 -6.3,7.66 -3.53,5 -8,12.25 -11.91,20.77 -3.91,8.53 -6.45,16.66 -7.87,22.62 -1.41,5.97 -1.82,9.74 -1.54,9.8 0.73,0.17 3.78,-14.66 11.54,-31.45 7.68,-16.81 16.71,-28.96 16.08,-29.4z"/>
   <path class="fil5" d="M612.64 391.47c-0.47,-0.4 -8.01,7.24 -17.9,16.11 -9.86,8.9 -17.75,16.31 -17.3,16.82 0.4,0.45 8.96,-6.14 18.87,-15.1 9.95,-8.92 16.85,-17.4 16.33,-17.83z"/>
   <path class="fil8" d="M590.6 476.52c-0.12,0.23 2.55,1.95 5.98,3.83 3.42,1.89 6.3,3.24 6.42,3.02 0.13,-0.23 -2.55,-1.94 -5.97,-3.83 -3.43,-1.89 -6.3,-3.24 -6.43,-3.02z"/>
   <path class="fil5" d="M857.76 494.16c-1.75,23.76 13.94,44.98 29.75,62.79 15.8,17.82 33.39,36.39 36.8,59.97 6.06,41.77 -34.84,80.56 -26.41,121.92 4.52,22.17 22.67,39.98 25.91,62.37 3.13,21.65 -8.48,42.85 -22.87,59.34 -14.38,16.49 -31.05,14.07 -43.77,31.88 -13.41,18.75 -34.99,37.99 -55.21,49.06 -45.83,25.1 -100.85,-11.22 -122.96,-17.73l178.76 -429.6z"/>
   <path class="fil5" d="M511.12 591.51c-21.13,-9.19 -22.78,-84.91 30.23,-93.66 21.26,-3.51 38.97,-13.88 56.85,-25.92 15.83,-10.65 20.52,-37.69 33.92,-51.28 32.88,-33.32 84.2,-47.13 129.36,-34.82 45.16,12.32 82.36,50.29 93.75,95.69 7.7,30.68 2.44,66.95 -21.74,87.34 -28.07,23.66 -69.68,18.41 -105.64,11.05 -35.97,-7.36 -76.67,-14.63 -106.7,6.49 -18.11,12.74 -28.49,33.46 -39.56,52.63 -11.07,19.18 -24.96,38.76 -45.9,45.96 0,0 -15.94,37.46 -2.92,63.53 13.01,26.08 -15.3,-18.39 -15.3,-18.39 0,0 -51.62,-91.78 -6.35,-138.62z"/>
   <path class="fil3" d="M779.64 1122.94c0.29,-49.43 -0.02,-188.25 0,-187.99 0,0 78.53,-13.22 94.57,-115.75 7.99,-50.98 5.24,-134.55 0.78,-202.85 -4.01,-61.48 -44.91,-136.83 -106.16,-130.21l-191.2 48.77c-18.61,2.01 -32.59,17.93 -32.18,36.64l11.64 474.84 222.55 76.55z"/>
   <path class="fil5" d="M842.45 674.92c0.26,6.94 -5.4,12.89 -12.65,13.29 -7.23,0.4 -13.31,-4.88 -13.57,-11.82 -0.26,-6.94 5.4,-12.89 12.63,-13.3 7.24,-0.41 13.33,4.89 13.59,11.83z"/>
   <path class="fil5" d="M856.96 659.86c-1.62,1.72 -11.6,-5.63 -25.74,-5.56 -14.13,-0.13 -24.5,7.17 -26.04,5.44 -0.75,-0.77 0.9,-3.86 5.42,-7.17 4.44,-3.28 12.02,-6.49 20.83,-6.47 8.81,0.03 16.23,3.26 20.5,6.57 4.35,3.33 5.83,6.42 5.03,7.19z"/>
   <path class="fil5" d="M717.93 682.4c-1.62,1.72 -11.61,-5.63 -25.74,-5.56 -14.13,-0.13 -24.5,7.17 -26.04,5.44 -0.75,-0.77 0.88,-3.86 5.42,-7.16 4.44,-3.29 12.02,-6.5 20.83,-6.48 8.81,0.03 16.22,3.26 20.5,6.57 4.34,3.33 5.83,6.42 5.03,7.19z"/>
   <path class="fil5" d="M769.5 767.59c-0.07,-0.8 8.72,-2.34 22.96,-4.2 3.61,-0.38 7.03,-1.1 7.63,-3.57 0.85,-2.61 -0.67,-6.5 -2.43,-10.7 -3.42,-8.73 -6.99,-17.88 -10.74,-27.47 -14.92,-39.13 -25.73,-71.3 -24.15,-71.89 1.58,-0.59 14.96,30.65 29.87,69.77 3.59,9.65 7.03,18.85 10.3,27.65 1.37,4.1 3.74,8.75 1.9,14.17 -0.96,2.7 -3.61,4.66 -5.92,5.29 -2.32,0.71 -4.35,0.76 -6.14,0.87 -14.33,0.8 -23.23,0.89 -23.28,0.08z"/>
   <path class="fil4" d="M779.64 934.95c0,0 -68.94,4.6 -137.34,-36.31 1.15,0.24 37.79,71.25 136.01,60.51l1.33 -24.2z"/>
   <path class="fil5" d="M720.03 650.8c-1.38,3.85 -15.51,2.06 -32.1,4.1 -16.63,1.7 -30,6.59 -32.21,3.14 -0.99,-1.65 1.34,-5.27 6.74,-9 5.35,-3.73 13.9,-7.28 23.86,-8.42 9.96,-1.11 19.09,0.45 25.14,2.9 6.1,2.44 9.17,5.45 8.57,7.28z"/>
   <path class="fil5" d="M854.99 610.94c-2.48,3.22 -12.23,-0.1 -23.95,-0.23 -11.71,-0.54 -21.63,2.21 -23.92,-1.15 -1.01,-1.63 0.55,-4.85 4.88,-7.9 4.26,-3.04 11.4,-5.53 19.46,-5.31 8.05,0.24 15.03,3.14 19.11,6.42 4.15,3.29 5.52,6.6 4.42,8.17z"/>
   <path class="fil5" d="M534.25 877.79c28.18,5.68 30.7,-8.66 51.75,-28.24 21.07,-19.57 31.94,-49.56 28.33,-78.08 -3.19,-25.18 -16.76,-50.79 -8.03,-74.61 11.54,-31.5 55.69,-41.19 67.41,-72.63 6.81,-18.26 0.7,-39.64 8.42,-57.54 7.26,-16.84 24.97,-26.53 42.21,-32.76 17.24,-6.24 35.73,-10.54 50.2,-21.79 14.48,-11.26 23.51,-32.49 14.17,-48.27 -76.46,9.16 -151.82,27.47 -223.96,54.42 -16.73,6.25 -34.3,13.75 -44.19,28.62 -10.46,15.73 -9.96,36.06 -9.08,54.93 4.29,92.03 8.59,184.06 12.88,276.09l9.89 -0.14z"/>
   <path class="fil6" d="M468.94 843.4c-0.07,0.04 -0.44,-0.39 -1.13,-1.28 -0.63,-0.92 -1.77,-2.18 -2.82,-4.1 -2.32,-3.71 -5.1,-9.69 -6.76,-17.92 -1.64,-8.18 -1.79,-18.78 1.65,-30.27 3.21,-11.45 11.19,-23.76 23.85,-32.08 12.16,-8.57 28,-14.54 38.06,-28.18 5.02,-6.67 7.14,-15.31 5.56,-24.07 -1.37,-8.8 -5.39,-17.42 -8.92,-26.6 -7.83,-18.36 -7.91,-41.3 1.32,-61.19 4.66,-9.89 11.56,-19.11 20.8,-25.84 9.18,-6.94 20.39,-10.52 31.44,-13.03 11.1,-2.53 22.17,-4 32.45,-7.1 10.25,-3.07 20.05,-7.66 27.17,-14.87 7.31,-7.11 10.4,-16.96 11.79,-26.89 1.4,-9.91 2.14,-20.2 4.83,-29.79 5.01,-19.23 14.78,-36.26 27.66,-48.49 12.87,-12.32 28.65,-19.38 43.54,-21.6 14.95,-2.33 29.03,0.44 39.62,5.99 10.71,5.45 18.14,13.01 22.92,19.84 4.76,6.93 6.98,13.15 8.02,17.4 1.06,4.26 0.99,6.59 0.99,6.59 -0.66,0.28 -0.8,-9.62 -10.43,-22.96 -4.86,-6.48 -12.23,-13.59 -22.62,-18.61 -10.27,-5.12 -23.71,-7.53 -38,-5.11 -14.23,2.33 -29.28,9.28 -41.45,21.15 -12.22,11.82 -21.51,28.25 -26.24,46.84 -2.53,9.28 -3.18,19.07 -4.59,29.39 -1.33,10.15 -4.74,21.4 -12.89,29.35 -7.9,8.01 -18.38,12.85 -29.03,16.06 -10.77,3.25 -21.88,4.71 -32.75,7.2 -10.81,2.46 -21.34,5.87 -29.78,12.26 -8.56,6.21 -15.04,14.8 -19.45,24.08 -8.72,18.79 -8.83,40.21 -1.43,57.86 3.38,9.03 7.5,17.88 8.95,27.47 1.71,9.54 -0.86,19.69 -6.46,26.86 -11.19,14.71 -27.48,20.43 -39.28,28.62 -12.28,7.85 -19.88,19.21 -23.25,30.21 -3.53,10.96 -3.66,21.22 -2.32,29.21 2.81,16.21 9.65,23.31 8.98,23.6z"/>
   <path class="fil5" d="M602.29 741.55c23.21,53.41 27.51,114.81 11.98,170.94 -4.65,16.76 -11.05,34.15 -7.09,51.09 4.29,18.34 19.62,31.6 30.81,46.75 19.26,26.09 26.76,60.52 20.11,92.25 -6.66,31.73 -27.37,60.24 -55.48,76.38 -2.96,-16.85 -18.64,-28.34 -34.11,-35.67 -15.46,-7.33 -32.55,-12.76 -44.34,-25.16 -11.8,-12.4 -15.14,-35.13 -1.42,-45.37 -39.46,-10.31 -61.82,-57.18 -53.51,-97.1 8.3,-39.93 40.77,-71.47 77.7,-88.76l55.35 -145.35z"/>
   <path class="fil5" d="M560.22 1139.54c7.06,3.87 13.9,7.33 14.77,15.33 1.02,9.39 -7.98,25.86 -11.21,34.73 -6.33,17.36 -1.56,38.22 11.68,51.1 13.23,12.89 34.21,17.09 51.39,10.31 -12.63,0.96 -23.34,-11.36 -24.46,-23.97 -1.13,-12.61 4.99,-24.79 12.52,-34.97 7.52,-10.19 16.64,-19.24 23.02,-30.17 12.99,-22.27 32.28,-82.84 17.43,-116.77l-95.14 94.41z"/>
   <path class="fil6" d="M524.35 1074.31c0.05,-0.06 -0.79,-0.77 -2.42,-2.04 -1.65,-1.26 -4.03,-3.17 -7.04,-5.7 -5.97,-5.07 -14.45,-12.75 -23.04,-23.82 -8.53,-11.02 -17.27,-25.63 -21.83,-43.55 -4.48,-17.77 -4.81,-38.99 2.89,-58.85 3.84,-9.91 9.55,-18.68 16.22,-26.19 6.59,-7.59 13.78,-14.2 20.52,-20.63 6.75,-6.41 13.12,-12.65 18.39,-19.14 5.29,-6.49 9.29,-13.27 12.06,-19.82 5.73,-13.11 5.96,-25.27 3.95,-32.94 -1.02,-3.86 -2.3,-6.7 -3.35,-8.49 -1.07,-1.8 -1.67,-2.71 -1.73,-2.66 -0.31,0.14 2.43,3.74 4.19,11.35 1.69,7.56 1.22,19.33 -4.58,32.08 -2.8,6.37 -6.79,12.96 -12.03,19.25 -5.24,6.32 -11.6,12.45 -18.38,18.81 -6.77,6.37 -14.03,12.99 -20.77,20.68 -6.79,7.62 -12.73,16.67 -16.66,26.85 -7.92,20.43 -7.49,42.13 -2.8,60.23 4.78,18.27 13.81,33.02 22.61,44.04 8.86,11.08 17.58,18.62 23.77,23.51 3.11,2.43 5.59,4.23 7.33,5.37 1.72,1.16 2.65,1.73 2.7,1.66z"/>
  </g>
  <path class="fil9" d="M870.67 1240.4l1.4 11.91c3.75,-0.29 7.23,1.38 9.39,4.18 0.34,-0.07 0.69,-0.13 1.05,-0.18 3.92,-0.46 7.59,1.24 9.83,4.15 0.36,-0.08 0.73,-0.14 1.1,-0.18 5.92,-0.7 11.28,3.54 11.98,9.45 0.69,5.91 1.39,11.82 2.08,17.72 1.95,16.59 -9.91,31.62 -26.5,33.57 -8.52,1.01 -17.02,-1.63 -23.47,-7.29 -0.64,-0.56 -1.25,-1.14 -1.84,-1.76l-20.07 -19.21c-0.2,-0.15 -0.4,-0.3 -0.6,-0.47 -4.39,-3.7 -4.76,-9.91 -1.66,-14.55 0.85,-1.27 1.95,-2.32 3.27,-3.09 4.82,-2.79 10.94,-1.07 16.53,1.64l-3.92 -33.37c-0.02,-0.14 -0.04,-0.28 -0.06,-0.42 -0.7,-5.92 3.54,-11.29 9.46,-11.98 5.92,-0.7 11.29,3.54 11.99,9.46 0.02,0.14 0.03,0.28 0.04,0.42zm-11.37 -4.32c2.85,-0.33 5.43,1.7 5.77,4.56 0.01,0.09 0.02,0.19 0.02,0.29l2.61 22.17c-0.01,-2.61 1.94,-4.87 4.59,-5.18 2.85,-0.34 5.43,1.7 5.77,4.55 0.01,0.1 0.02,0.2 0.02,0.29l0.5 4.2c0.04,-2.57 1.97,-4.78 4.59,-5.08 2.85,-0.34 5.43,1.7 5.77,4.55 0.01,0.1 0.02,0.19 0.02,0.29 0.14,1.16 0.4,3.29 0.52,4.31 0.1,0.84 0.04,0.55 0.03,0 -0.02,-2.61 1.93,-4.88 4.58,-5.19 2.85,-0.34 5.43,1.7 5.76,4.55 0.7,5.9 1.39,11.81 2.09,17.72 1.59,13.51 -8.08,25.76 -21.6,27.35 -7.2,0.85 -14.05,-1.51 -19.11,-5.94 -0.55,-0.49 -1.07,-0.98 -1.58,-1.51l-20.48 -19.6c-0.18,-0.12 -0.36,-0.26 -0.54,-0.4 -2.14,-1.81 -2.17,-4.83 -0.61,-7.16 3.92,-5.87 16.61,2.55 22,5.8l-5.23 -44.51c-0.02,-0.1 -0.04,-0.19 -0.05,-0.29 -0.33,-2.85 1.71,-5.43 4.56,-5.77z"/>
 </g>
</svg>
