<?xml version="1.0" encoding="UTF-8"?>
<!DOCTYPE svg PUBLIC "-//W3C//DTD SVG 1.1//EN" "http://www.w3.org/Graphics/SVG/1.1/DTD/svg11.dtd">
<!-- Creator: CorelDRAW 2018 (64 Bit) -->
<svg xmlns="http://www.w3.org/2000/svg" xml:space="preserve" width="500px" height="138px" version="1.1" style="shape-rendering:geometricPrecision; text-rendering:geometricPrecision; image-rendering:optimizeQuality; fill-rule:evenodd; clip-rule:evenodd"
viewBox="0 0 331.16 91.23"
 xmlns:xlink="http://www.w3.org/1999/xlink">
 <defs>
  <style type="text/css">
   <![CDATA[
    .fil2 {fill:#3880FF}
    .fil1 {fill:#424242}
    .fil0 {fill:#424242;fill-rule:nonzero}
   ]]>
  </style>
 </defs>
 <g id="Layer_x0020_1">
  <metadata id="CorelCorpID_0Corel-Layer"/>
  <path class="fil0" d="M244.94 22.52c-1.16,1.17 -2.63,1.75 -4.41,1.75 -1.79,0 -3.26,-0.58 -4.41,-1.75 -1.16,-1.17 -1.74,-2.64 -1.74,-4.39 0,-1.74 0.59,-3.19 1.75,-4.37 1.16,-1.18 2.63,-1.77 4.4,-1.77 1.78,0 3.25,0.59 4.41,1.77 1.15,1.18 1.73,2.63 1.73,4.37 0,1.75 -0.58,3.22 -1.73,4.39zm-7.6 -1.12c0.81,0.85 1.87,1.27 3.19,1.27 1.32,0 2.38,-0.42 3.18,-1.27 0.81,-0.84 1.21,-1.93 1.21,-3.27 0,-1.33 -0.4,-2.42 -1.21,-3.27 -0.8,-0.84 -1.86,-1.27 -3.18,-1.27 -1.32,0 -2.38,0.43 -3.19,1.27 -0.81,0.85 -1.21,1.94 -1.21,3.27 0,1.34 0.4,2.43 1.21,3.27z"/>
  <path class="fil0" d="M243.23 21.16l-1.75 0 -0.81 -1.75c-0.19,0.02 -0.3,0.02 -0.33,0.02l-0.56 0 0 1.73 -1.53 0 0 -6.03 2.3 0c0.85,0 1.5,0.19 1.94,0.58 0.44,0.39 0.67,0.91 0.67,1.56 0,0.85 -0.35,1.47 -1.03,1.84l1.1 2.05zm-2.52 -4.59l-0.93 0 0 1.42 0.93 0c0.58,0 0.86,-0.24 0.86,-0.72 0,-0.46 -0.28,-0.7 -0.86,-0.7z"/>
  <g id="_2504947270880">
   <path class="fil0" d="M8 74.85l0 -43.46c0,-0.06 0,-0.11 0,-0.17 0,-1.78 -1.47,-3.22 -3.28,-3.22 -1.81,0 -3.29,1.44 -3.29,3.22 0,0.06 0.01,0.11 0.01,0.17l0 43.46c0,0.06 -0.01,0.12 -0.01,0.17 0,1.78 1.48,3.23 3.29,3.23 1.81,0 3.28,-1.45 3.28,-3.23 0,-0.05 0,-0.11 0,-0.17z"/>
   <path class="fil0" d="M53.78 75.2l-0.01 0c0,1.7 -1.38,3.08 -3.07,3.08 -1.7,0 -3.08,-1.38 -3.08,-3.08l0 0 0 -26.98c0,-3.89 -1.43,-7.24 -4.28,-10.05 -2.85,-2.81 -6.18,-4.21 -9.98,-4.21 -3.87,0 -7.22,1.4 -10.07,4.21 -2.85,2.81 -4.28,6.16 -4.28,10.05l0 26.76c0.01,0.07 0.01,0.15 0.01,0.22 0,1.71 -1.38,3.09 -3.09,3.09 -1.7,0 -3.08,-1.38 -3.08,-3.09 0,-0.07 0,-0.15 0,-0.22l0 -26.11c0,-6 1.95,-10.98 5.84,-14.95 3.89,-3.97 8.78,-5.96 14.67,-5.96 5.83,0 10.69,1.99 14.58,5.96 3.89,3.97 5.84,8.95 5.84,14.95l0 26.33z"/>
   <path class="fil0" d="M198.11 72.45c3.65,4.55 -2.66,7.86 -5.19,4.25l-12.68 -19.36 -12.57 19.36c-2.37,3.59 -8.42,0.45 -4.92,-4.07l13.58 -20.59 -13.74 -19.73c-2.24,-3.4 2.47,-6.89 4.98,-3.44l12.73 17.94 12.32 -17.95c2.4,-3.53 7.87,0.03 5.47,3.45l-13.99 19.89 14.01 20.25z"/>
   <path class="fil0" d="M157.33 55.18l-37.37 0c0.51,4.86 2.57,8.87 6.19,12.03 3.62,3.17 7.88,4.72 12.8,4.66 7.63,-0.11 13.08,-3.64 16.36,-10.59 2.23,-5.6 8.36,-2.79 6.29,1.5 -2.11,4.38 -4.71,8.12 -8.58,10.87 -4.3,3.06 -9.07,4.61 -14.33,4.67 -6.61,0.11 -12.46,-2.31 -17.54,-7.25 -5.09,-4.95 -7.69,-10.84 -7.8,-17.67 -0.17,-7.24 2.39,-13.47 7.67,-18.69 5.28,-5.23 11.51,-7.65 18.69,-7.25 6.44,0.39 12.04,3.05 16.78,7.97 3.77,4 5.99,8.38 6.65,13.14 0.39,2.07 -0.4,6.64 -5.81,6.61zm-0.33 -5.94c-0.9,-4.52 -3.02,-8.18 -6.35,-10.97 -3.34,-2.8 -7.32,-4.23 -11.96,-4.28 -4.63,-0.06 -8.68,1.32 -12.16,4.15 -3.47,2.82 -5.66,6.53 -6.57,11.1l37.04 0z"/>
   <path class="fil0" d="M108.26 53.02c0,6.94 -2.31,12.93 -7.44,17.98 -5.14,5.05 -11.17,7.46 -18.11,7.24 -6.71,-0.17 -12.4,-2.71 -17.05,-7.62 -4.65,-4.91 -6.98,-10.74 -6.98,-17.51 0,-7.05 2.51,-13.1 7.52,-18.15 5,-5.05 10.97,-7.46 17.89,-7.24 7.11,0.28 13.02,3.13 17.74,8.55l0 -21.2 0 0c0,-1.77 1.44,-3.21 3.22,-3.21 1.77,0 3.21,1.44 3.21,3.21l0 0 0 37.95zm-6.43 -0.51c-0.11,-5.1 -1.9,-9.46 -5.39,-13.08 -3.46,-3.63 -7.7,-5.45 -12.67,-5.45 -5.09,-0.05 -9.47,1.75 -13.1,5.41 -3.66,3.65 -5.5,8.05 -5.56,13.21 -0.06,5.09 1.64,9.56 5.09,13.38 3.44,3.82 7.66,5.83 12.64,5.99 5.31,0.29 9.85,-1.56 13.6,-5.52 3.77,-3.97 5.56,-8.62 5.39,-13.94z"/>
   <circle class="fil1" cx="4.72" cy="16.83" r="4.72"/>
   <path class="fil1" d="M246.86 53.08c0,6.91 -2.52,12.88 -7.55,17.91 -5.03,5.02 -11,7.43 -17.91,7.2 -6.68,-0.17 -12.35,-2.7 -16.98,-7.58 -4.64,-4.89 -6.95,-10.71 -6.95,-17.45 0,-7.02 2.5,-13.05 7.5,-18.08 5,-5.03 10.95,-7.43 17.86,-7.2 6.69,0.22 12.37,2.79 17.03,7.71 4.66,4.91 7,10.74 7,17.49zm-6.41 -0.51c-0.17,-5.08 -1.98,-9.43 -5.45,-13.04 -3.46,-3.61 -7.64,-5.42 -12.54,-5.42 -5.13,-0.05 -9.5,1.74 -13.1,5.38 -3.61,3.64 -5.43,8.02 -5.49,13.16 -0.11,5.08 1.55,9.53 4.99,13.34 3.43,3.8 7.63,5.8 12.58,5.97 5.3,0.28 9.82,-1.56 13.56,-5.51 3.75,-3.95 5.56,-8.58 5.45,-13.88z"/>
  </g>
  <path class="fil2" d="M300.36 11.04l0.03 11.83c3.7,0.14 6.93,2.17 8.73,5.16 0.34,-0.04 0.7,-0.06 1.05,-0.06 3.89,-0.01 7.3,2.07 9.17,5.18 0.36,-0.04 0.73,-0.06 1.1,-0.06 5.87,-0.02 10.65,4.74 10.67,10.62 0.02,5.86 0.03,11.73 0.05,17.6 0.04,16.47 -13.29,29.87 -29.76,29.91 -8.47,0.03 -16.5,-3.51 -22.18,-9.78 -0.56,-0.63 -1.1,-1.27 -1.61,-1.94l-17.5 -21.09c-0.19,-0.17 -0.37,-0.34 -0.54,-0.53 -3.88,-4.11 -3.55,-10.25 0.02,-14.45 0.97,-1.15 2.17,-2.05 3.55,-2.65 5.03,-2.2 10.83,0.18 16.02,3.47l-0.09 -33.15c-0.01,-0.14 -0.01,-0.28 -0.01,-0.42 -0.02,-5.88 4.74,-10.66 10.62,-10.68 5.89,-0.02 10.67,4.74 10.69,10.63 0,0.13 -0.01,0.27 -0.01,0.41zm-10.66 -5.51c2.83,-0.01 5.13,2.28 5.14,5.11 0,0.1 0,0.19 -0.01,0.29l0.06 22.03c0.28,-2.56 2.45,-4.56 5.08,-4.57 2.83,0 5.14,2.28 5.14,5.12 0,0.09 0,0.19 0,0.29l0.01 4.16c0.32,-2.51 2.47,-4.45 5.07,-4.46 2.83,-0.01 5.13,2.28 5.14,5.11 0,0.1 -0.01,0.2 -0.01,0.29 0.01,1.15 0.02,3.27 0.02,4.28 0.01,0.84 -0.02,0.55 0.03,0 0.28,-2.56 2.44,-4.56 5.08,-4.57 2.83,0 5.13,2.28 5.13,5.11 0.02,5.87 0.03,11.73 0.05,17.6 0.04,13.43 -10.82,24.34 -24.25,24.38 -7.16,0.02 -13.6,-3.06 -18.07,-7.98 -0.48,-0.54 -0.93,-1.08 -1.37,-1.66l-17.86 -21.52c-0.17,-0.13 -0.33,-0.28 -0.49,-0.45 -1.9,-2.01 -1.58,-4.97 0.21,-7.08 4.5,-5.31 15.99,4.37 20.91,8.16l-0.12 -44.21c0,-0.1 0,-0.2 -0.01,-0.29 0,-2.83 2.29,-5.14 5.12,-5.14z"/>
 </g>
</svg>
