<?xml version="1.0" encoding="UTF-8"?>
<!DOCTYPE svg PUBLIC "-//W3C//DTD SVG 1.1//EN" "http://www.w3.org/Graphics/SVG/1.1/DTD/svg11.dtd">

<svg xmlns="http://www.w3.org/2000/svg" xml:space="preserve" width="2906px" height="1809px" version="1.1" style="shape-rendering:geometricPrecision; text-rendering:geometricPrecision; image-rendering:optimizeQuality; fill-rule:evenodd; clip-rule:evenodd"
viewBox="0 0 2796.4 1740.7"
 xmlns:xlink="http://www.w3.org/1999/xlink"
 >
 <defs>
  <style type="text/css">
   <![CDATA[
    .fil6 {fill:#263138;fill-rule:nonzero}
    .fil8 {fill:#3880FF;fill-rule:nonzero}
    .fil7 {fill:#445964;fill-rule:nonzero}
    .fil1 {fill:#DFDFDF;fill-rule:nonzero}
    .fil0 {fill:#EBEBEB;fill-rule:nonzero}
    .fil2 {fill:#F4F4F4;fill-rule:nonzero}
    .fil3 {fill:#F9F9F9;fill-rule:nonzero}
    .fil10 {fill:white;fill-rule:nonzero}
    .fil5 {fill:white;fill-rule:nonzero;fill-opacity:0.200000}
    .fil9 {fill:black;fill-rule:nonzero;fill-opacity:0.301961}
    .fil4 {fill:white;fill-rule:nonzero;fill-opacity:0.301961}
   ]]>
  </style>
 </defs>
 <g id="Capa_x0020_1">

  <g id="_1671748231328">
   <g>
    <g>
     <g>
      <path class="fil0" d="M1303.14 1311.21c9.68,-6.87 20.12,-12.31 31.02,-16.3l4.25 -32.21 53.53 -4.91 10.04 30.9c11.44,1.94 22.7,5.39 33.47,10.39l25.77 -19.76 41.32 34.38 -14.74 28.93c6.88,9.69 12.32,20.14 16.3,31.03l32.21 4.26 4.9 53.52 -30.89 10.05c-1.94,11.43 -5.39,22.69 -10.39,33.46l19.76 25.78 -34.38 41.32 -28.94 -14.75c-9.68,6.88 -20.13,12.32 -31.02,16.3l-4.26 32.21 -53.52 4.91 -10.04 -30.9c-11.44,-1.94 -22.7,-5.39 -33.47,-10.39l-25.77 19.76 -41.32 -34.38 14.74 -28.93c-6.88,-9.69 -12.32,-20.13 -16.3,-31.03l-32.21 -4.25 -4.91 -53.53 30.9 -10.04c1.94,-11.44 5.39,-22.7 10.39,-33.47l-19.76 -25.77 34.38 -41.32 28.94 14.74zm33.85 69.29l0 0c-20.37,24.48 -17.03,60.84 7.45,81.2 24.48,20.37 60.83,17.04 81.2,-7.44 20.37,-24.48 17.04,-60.84 -7.44,-81.21 -24.48,-20.37 -60.84,-17.03 -81.21,7.45z"/>
     </g>
    </g>
   </g>
  </g>
  <g id="_1671748233536">
   <g>
    <g>
     <g>
      <path class="fil0" d="M1620.81 1486.99c6.07,-4.31 12.61,-7.72 19.44,-10.22l2.67 -20.2 33.56 -3.07 6.3 19.37c7.17,1.21 14.23,3.38 20.98,6.51l16.16 -12.39 25.91 21.56 -9.25 18.14c4.31,6.07 7.73,12.62 10.22,19.45l20.2 2.67 3.07 33.56 -19.37 6.3c-1.21,7.16 -3.38,14.22 -6.51,20.98l12.38 16.16 -21.55 25.9 -18.14 -9.24c-6.07,4.31 -12.62,7.72 -19.45,10.22l-2.67 20.19 -33.56 3.08 -6.3 -19.37c-7.16,-1.22 -14.22,-3.38 -20.98,-6.52l-16.16 12.39 -25.9 -21.55 9.24 -18.14c-4.31,-6.07 -7.72,-12.62 -10.22,-19.45l-20.19 -2.67 -3.08 -33.56 19.37 -6.3c1.22,-7.17 3.38,-14.23 6.52,-20.98l-12.39 -16.16 21.55 -25.91 18.15 9.25zm21.22 43.44l0 0c-12.77,15.35 -10.68,38.14 4.67,50.91 15.35,12.77 38.14,10.68 50.91,-4.67 12.77,-15.35 10.68,-38.14 -4.67,-50.91 -15.34,-12.77 -38.14,-10.68 -50.91,4.67z"/>
     </g>
    </g>
   </g>
  </g>
  <g id="_1671748233008">
   <g>
    <g>
     <g>
      <path class="fil1" d="M701.2 277.56c7.05,-5 14.65,-8.96 22.58,-11.86l3.09 -23.45 38.96 -3.57 7.31 22.49c8.32,1.41 16.52,3.92 24.36,7.56l18.76 -14.38 30.07 25.02 -10.73 21.06c5.01,7.05 8.97,14.65 11.86,22.58l23.45 3.1 3.57 38.96 -22.49 7.31c-1.41,8.32 -3.92,16.51 -7.56,24.35l14.38 18.76 -25.02 30.08 -21.06 -10.73c-7.05,5 -14.65,8.96 -22.58,11.86l-3.1 23.44 -38.96 3.57 -7.31 -22.49c-8.32,-1.41 -16.51,-3.92 -24.35,-7.56l-18.76 14.38 -30.07 -25.02 10.72 -21.06c-5,-7.05 -8.96,-14.65 -11.86,-22.58l-23.44 -3.09 -3.57 -38.96 22.49 -7.31c1.41,-8.32 3.92,-16.52 7.56,-24.36l-14.38 -18.76 25.02 -30.07 21.06 10.73zm24.64 50.43l0 0c-14.83,17.82 -12.4,44.28 5.42,59.1 17.81,14.83 44.28,12.4 59.1,-5.42 14.82,-17.82 12.4,-44.28 -5.42,-59.1 -17.81,-14.83 -44.28,-12.4 -59.1,5.42z"/>
     </g>
    </g>
   </g>
  </g>
  <g id="_1671748238000">
   <g>
    <g>
     <g>
      <path class="fil2" d="M1438.69 38.69c7.01,-4.98 14.57,-8.92 22.46,-11.8l3.09 -23.34 38.77 -3.55 7.27 22.38c8.29,1.4 16.44,3.9 24.24,7.53l18.67 -14.32 29.93 24.91 -10.68 20.95c4.99,7.02 8.93,14.59 11.81,22.48l23.33 3.08 3.56 38.77 -22.39 7.28c-1.4,8.28 -3.9,16.43 -7.52,24.24l14.31 18.67 -24.9 29.93 -20.96 -10.68c-7.01,4.98 -14.58,8.92 -22.47,11.8l-3.08 23.34 -38.78 3.55 -7.27 -22.38c-8.28,-1.41 -16.44,-3.91 -24.24,-7.53l-18.67 14.32 -29.93 -24.91 10.68 -20.96c-4.98,-7.01 -8.92,-14.58 -11.81,-22.47l-23.33 -3.08 -3.55 -38.77 22.38 -7.28c1.4,-8.28 3.9,-16.44 7.52,-24.24l-14.31 -18.67 24.9 -29.93 20.97 10.68zm24.52 50.19l0 0c-14.76,17.73 -12.34,44.07 5.39,58.82 17.73,14.75 44.07,12.34 58.82,-5.39 14.75,-17.73 12.34,-44.07 -5.39,-58.82 -17.73,-14.76 -44.07,-12.34 -58.82,5.39z"/>
     </g>
    </g>
   </g>
  </g>
  <g id="_1671748239824">
   <g>
    <g>
     <g>
      <path class="fil2" d="M1796.88 93.02c3.99,-2.83 8.29,-5.08 12.78,-6.72l1.75 -13.27 22.06 -2.02 4.14 12.73c4.71,0.8 9.35,2.22 13.79,4.28l10.62 -8.14 17.02 14.16 -6.07 11.93c2.83,3.98 5.07,8.29 6.71,12.78l13.27 1.75 2.03 22.06 -12.74 4.13c-0.79,4.72 -2.22,9.36 -4.27,13.79l8.14 10.62 -14.17 17.03 -11.92 -6.08c-3.99,2.84 -8.3,5.08 -12.78,6.72l-1.76 13.27 -22.05 2.02 -4.14 -12.73c-4.71,-0.8 -9.35,-2.22 -13.79,-4.28l-10.62 8.14 -17.02 -14.16 6.07 -11.92c-2.83,-3.99 -5.07,-8.3 -6.72,-12.79l-13.27 -1.75 -2.02 -22.06 12.73 -4.13c0.8,-4.72 2.22,-9.35 4.28,-13.79l-8.14 -10.62 14.17 -17.03 11.92 6.08zm13.95 28.55l0 0c-8.39,10.08 -7.02,25.06 3.07,33.46 10.08,8.39 25.06,7.01 33.46,-3.07 8.39,-10.09 7.02,-25.07 -3.07,-33.46 -10.09,-8.39 -25.07,-7.02 -33.46,3.07z"/>
     </g>
    </g>
   </g>
  </g>
  <g id="_1671748208240">
   <g>
    <g>
     <g>
      <path class="fil1" d="M491.76 727.92c6.5,-4.61 13.51,-8.27 20.82,-10.94l2.86 -21.62 35.93 -3.29 6.74 20.74c7.68,1.3 15.23,3.61 22.46,6.97l17.3 -13.26 27.74 23.07 -9.9 19.42c4.62,6.5 8.27,13.52 10.94,20.83l21.62 2.85 3.3 35.93 -20.74 6.75c-1.3,7.67 -3.62,15.23 -6.97,22.46l13.26 17.3 -23.08 27.73 -19.42 -9.89c-6.5,4.61 -13.51,8.27 -20.83,10.94l-2.85 21.62 -35.93 3.29 -6.74 -20.74c-7.68,-1.3 -15.24,-3.62 -22.46,-6.97l-17.31 13.26 -27.73 -23.07 9.89 -19.43c-4.61,-6.5 -8.26,-13.51 -10.94,-20.82l-21.62 -2.86 -3.29 -35.92 20.74 -6.75c1.3,-7.67 3.62,-15.23 6.97,-22.46l-13.26 -17.3 23.08 -27.74 19.42 9.9zm22.73 46.51l0 0c-13.68,16.43 -11.44,40.83 4.99,54.51 16.44,13.67 40.84,11.43 54.51,-5 13.67,-16.43 11.44,-40.84 -5,-54.51 -16.43,-13.67 -40.83,-11.43 -54.5,5z"/>
     </g>
    </g>
   </g>
  </g>
  <g id="_1671748210160">
   <g>
    <g>
     <path class="fil0" d="M271.25 740.67l-141.6 0c-9.79,0 -17.72,-7.93 -17.72,-17.72l0 -196c0,-9.79 7.93,-17.72 17.72,-17.72l89.8 0 69.52 71.65 0 142.07c0,9.79 -7.93,17.72 -17.72,17.72z"/>
    </g>
   </g>
   <g>
    <g>
     <path class="fil1" d="M266.03 740.67l-131.16 0c-12.67,0 -22.94,-10.27 -22.94,-22.94l0 -47.28 177.04 0 0 47.28c0,12.67 -10.27,22.94 -22.94,22.94z"/>
    </g>
   </g>
   <g>
    <g>
     <path class="fil3" d="M174.67 715.74l4.46 -5.34c1.88,2.52 3.96,3.81 6.43,3.81 3.22,0 4.9,-1.93 4.9,-5.74l0 -16.49 -12.17 0 0 -6.43 20.14 0 0 22.47c0,8.56 -4.3,12.77 -12.47,12.77 -4.65,0 -8.76,-1.78 -11.29,-5.05z"/>
    </g>
    <g>
     <path class="fil3" d="M203.22 717.72l2.58 -5.54c2.37,1.53 5.99,2.57 9.25,2.57 3.57,0 4.9,-0.94 4.9,-2.42 0,-4.36 -16.08,0.1 -16.08,-10.55 0,-5.05 4.55,-8.61 12.32,-8.61 3.67,0 7.72,0.84 10.25,2.33l-2.57 5.49c-2.63,-1.48 -5.25,-1.98 -7.68,-1.98 -3.46,0 -4.95,1.09 -4.95,2.48 0,4.55 16.09,0.15 16.09,10.64 0,4.95 -4.6,8.46 -12.57,8.46 -4.51,0 -9.06,-1.23 -11.54,-2.87z"/>
    </g>
   </g>
   <g>
    <g>
     <path class="fil3" d="M149.44 633.59l5.55 -6.51c3.64,5.17 8.33,7.94 13.97,7.94 7.57,0 11.49,-4.59 11.49,-13.59l0 -37.61 -24.22 0 0 -8.33 33.7 0 0 45.46c0,14.93 -7.28,22.3 -20.97,22.3 -7.94,0 -15.21,-3.44 -19.52,-9.66z"/>
    </g>
    <g>
     <path class="fil3" d="M201.71 637.13l3.83 -7.28c4.3,3.07 11.19,5.27 17.8,5.27 8.52,0 12.06,-2.59 12.06,-6.89 0,-11.39 -32.06,-1.53 -32.06,-21.73 0,-9.09 8.13,-15.22 21.15,-15.22 6.6,0 14.07,1.73 18.47,4.6l-3.93 7.27c-4.59,-2.97 -9.66,-4.02 -14.64,-4.02 -8.04,0 -11.96,2.97 -11.96,6.99 0,11.96 32.16,2.2 32.16,21.92 0,9.18 -8.43,15.02 -21.92,15.02 -8.42,0 -16.75,-2.58 -20.96,-5.93z"/>
    </g>
   </g>
   <g>
    <g>
     <path class="fil4" d="M219.45 509.23l0 55.16c0,9.1 7.38,16.48 16.48,16.48l53.04 0.01 -69.52 -71.65z"/>
    </g>
   </g>
   <g>
    <g>
     <path class="fil1" d="M220.18 569.24c0,0 -0.7,13.37 14.53,17.77 0.57,0.17 1.16,0.29 1.74,0.4 6.93,1.23 52.52,9.34 52.52,8.3 0,-1.14 0,-14.83 0,-14.83l-53.04 0c0,0 -13.24,-0.45 -15.75,-11.64z"/>
    </g>
   </g>
  </g>
  <g id="_1671748216448">
   <g>
    <g>
     <g>
      <path class="fil0" d="M495.44 441.62l-174.95 0c-12.08,0 -21.89,-9.81 -21.89,-21.9l0 -242.14c0,-12.09 9.81,-21.89 21.89,-21.89l110.96 0 85.88 88.52 0 175.51c0,12.09 -9.8,21.9 -21.89,21.9z"/>
     </g>
    </g>
    <g>
     <g>
      <path class="fil1" d="M491.35 441.62l-166.77 0c-14.34,0 -25.98,-11.64 -25.98,-25.98l0 -55.81c0,-2.75 2.23,-4.97 4.97,-4.97l208.79 0c2.75,0 4.97,2.22 4.97,4.97l0 55.81c0,14.34 -11.63,25.98 -25.98,25.98z"/>
     </g>
    </g>
    <g>
     <g>
      <path class="fil5" d="M431.45 155.69l0 68.15c0,11.24 9.11,20.36 20.35,20.36l65.53 0.01 -85.88 -88.52z"/>
     </g>
    </g>
    <g>
     <g>
      <path class="fil1" d="M432.34 229.82c0,0 -0.86,16.53 17.95,21.96 0.71,0.21 1.43,0.36 2.16,0.49 8.55,1.53 64.88,11.55 64.88,10.25 0,-1.4 0,-18.31 0,-18.31l-65.53 0c0,0 -16.36,-0.56 -19.46,-14.39z"/>
     </g>
    </g>
   </g>
   <g>
    <g>
     <path class="fil3" d="M361.22 392.66c0,-10.26 7.87,-17.59 18.46,-17.59 5.88,0 10.79,2.14 14,6.03l-5.05 4.66c-2.29,-2.62 -5.15,-3.99 -8.56,-3.99 -6.36,0 -10.88,4.48 -10.88,10.89 0,6.41 4.52,10.89 10.88,10.89 3.41,0 6.27,-1.37 8.56,-4.04l5.05 4.67c-3.21,3.93 -8.12,6.07 -14.04,6.07 -10.55,0 -18.42,-7.33 -18.42,-17.59z"/>
    </g>
    <g>
     <path class="fil3" d="M395.99 406.32l2.68 -5.93c2.86,2.09 7.14,3.54 11.22,3.54 4.67,0 6.56,-1.55 6.56,-3.64 0,-6.37 -19.77,-1.99 -19.77,-14.63 0,-5.78 4.66,-10.59 14.33,-10.59 4.28,0 8.65,1.02 11.81,3.01l-2.43 5.98c-3.16,-1.8 -6.41,-2.67 -9.43,-2.67 -4.66,0 -6.46,1.75 -6.46,3.88 0,6.27 19.78,1.95 19.78,14.44 0,5.68 -4.72,10.54 -14.44,10.54 -5.39,0 -10.83,-1.6 -13.85,-3.93z"/>
    </g>
    <g>
     <path class="fil3" d="M426.98 406.32l2.68 -5.93c2.86,2.09 7.14,3.54 11.22,3.54 4.67,0 6.56,-1.55 6.56,-3.64 0,-6.37 -19.78,-1.99 -19.78,-14.63 0,-5.78 4.67,-10.59 14.34,-10.59 4.28,0 8.65,1.02 11.81,3.01l-2.43 5.98c-3.16,-1.8 -6.42,-2.67 -9.43,-2.67 -4.66,0 -6.46,1.75 -6.46,3.88 0,6.27 19.78,1.95 19.78,14.44 0,5.68 -4.72,10.54 -14.43,10.54 -5.4,0 -10.84,-1.6 -13.86,-3.93z"/>
    </g>
   </g>
   <g>
    <g>
     <path class="fil3" d="M372.33 282.57c3.59,1.09 5.23,3.36 5.23,8.75l0 12.5c0,3.67 1.88,5.79 5.71,5.79l1.4 0 0 9.53 -4.53 0c-9.77,0 -14.77,-5 -14.77,-13.99l0 -14.14c0,-2.5 -1.32,-3.68 -3.43,-3.68l-2.58 0 0 -9.53 2.58 0c2.11,0 3.43,-1.17 3.43,-3.67l0 -14.15c0,-8.98 5,-13.99 14.77,-13.99l4.53 0 0 9.54 -1.4 0c-3.83,0 -5.71,2.11 -5.71,5.78l0 12.51c0,5.39 -1.64,7.65 -5.23,8.75z"/>
    </g>
    <g>
     <path class="fil3" d="M456.58 277.8l0 9.53 -2.58 0c-2.11,0 -3.44,1.18 -3.44,3.68l0 14.14c0,8.99 -5,13.99 -14.77,13.99l-4.53 0 0 -9.53 1.4 0c3.83,0 5.71,-2.12 5.71,-5.79l0 -12.5c0,-5.39 1.64,-7.66 5.24,-8.75 -3.6,-1.1 -5.24,-3.36 -5.24,-8.75l0 -12.51c0,-3.67 -1.88,-5.78 -5.71,-5.78l-1.4 0 0 -9.54 4.53 0c9.77,0 14.77,5.01 14.77,13.99l0 14.15c0,2.5 1.33,3.67 3.44,3.67l2.58 0z"/>
    </g>
   </g>
  </g>
  <g id="_1671748220336">
   <path class="fil2" d="M860.75 108.58c0,36.16 -29.31,65.48 -65.48,65.48 -36.16,0 -65.47,-29.32 -65.47,-65.48 0,-36.16 29.31,-65.48 65.47,-65.48 36.17,0 65.48,29.32 65.48,65.48z"/>
  </g>
  <g id="_1671748229648">
   <path class="fil2" d="M430.04 1056.75c0,36.16 -29.32,65.48 -65.48,65.48 -36.16,0 -65.47,-29.32 -65.47,-65.48 0,-36.16 29.31,-65.47 65.47,-65.47 36.16,0 65.48,29.31 65.48,65.47z"/>
  </g>
  <g id="_1671795897520">
   <g>
    <path class="fil6" d="M2796.4 1739.66c0,0.58 -626.05,1.04 -1398.13,1.04 -772.36,0 -1398.27,-0.46 -1398.27,-1.04 0,-0.58 625.91,-1.04 1398.27,-1.04 772.08,0 1398.13,0.46 1398.13,1.04z"/>
   </g>
  </g>
  <g id="_1671795899104">
   <g>
    <g>
     <g>
      <path class="fil6" d="M1947.29 1385.65l-1366.2 0c-20.27,0 -36.71,-16.43 -36.71,-36.71l0 -920.25c0,-21.47 17.41,-38.88 38.89,-38.88l1374.74 0c21.48,0 38.89,17.41 38.89,38.88l0 907.36c0,27.39 -22.21,49.6 -49.61,49.6z"/>
     </g>
    </g>
    <g>
     <g>
      <g>
       <polygon class="fil7" points="832.24,554.97 729.8,554.97 729.8,532.63 832.24,532.63 "/>
      </g>
     </g>
     <g>
      <g>
       <polygon class="fil8" points="781.02,655.03 729.8,655.03 729.8,632.69 781.02,632.69 "/>
      </g>
     </g>
     <g>
      <g>
       <polygon class="fil7" points="840.47,705.36 768.34,705.36 768.34,683.02 840.47,683.02 "/>
      </g>
     </g>
     <g>
      <g>
       <polygon class="fil7" points="893.97,705.36 851.95,705.36 851.95,683.02 893.97,683.02 "/>
      </g>
     </g>
     <g>
      <g>
       <polygon class="fil7" points="1270.79,705.36 1184.35,705.36 1184.35,683.02 1270.79,683.02 "/>
      </g>
     </g>
     <g>
      <g>
       <polygon class="fil7" points="1523.39,754.42 1377.37,754.42 1377.37,732.07 1523.39,732.07 "/>
      </g>
     </g>
     <g>
      <g>
       <polygon class="fil7" points="1748.64,705.36 1678.52,705.36 1678.52,683.02 1748.64,683.02 "/>
      </g>
     </g>
     <g>
      <g>
       <polygon class="fil7" points="1911.14,705.36 1770.15,705.36 1770.15,683.02 1911.14,683.02 "/>
      </g>
     </g>
     <g>
      <g>
       <polygon class="fil7" points="840.47,754.42 768.34,754.42 768.34,732.07 840.47,732.07 "/>
      </g>
     </g>
     <g>
      <g>
       <polygon class="fil8" points="796.16,803.34 724.03,803.34 724.03,781 796.16,781 "/>
      </g>
     </g>
     <g>
      <g>
       <polygon class="fil7" points="796.16,852.27 762.46,852.27 762.46,829.93 796.16,829.93 "/>
      </g>
     </g>
     <g>
      <g>
       <polygon class="fil7" points="919.86,955.35 886.17,955.35 886.17,933.01 919.86,933.01 "/>
      </g>
     </g>
     <g>
      <g>
       <polygon class="fil7" points="1415.56,1141.59 1349.73,1141.59 1349.73,1119.25 1415.56,1119.25 "/>
      </g>
     </g>
     <g>
      <g>
       <polygon class="fil7" points="1783.41,1141.59 1622.11,1141.59 1622.11,1119.25 1783.41,1119.25 "/>
      </g>
     </g>
     <g>
      <g>
       <polygon class="fil1" points="1167.67,1092.7 1101.83,1092.7 1101.83,1070.36 1167.67,1070.36 "/>
      </g>
     </g>
     <g>
      <g>
       <polygon class="fil7" points="929.09,1050.75 863.25,1050.75 863.25,1028.41 929.09,1028.41 "/>
      </g>
     </g>
     <g>
      <g>
       <polygon class="fil7" points="1336.07,1141.59 1232.25,1141.59 1232.25,1119.25 1336.07,1119.25 "/>
      </g>
     </g>
     <g>
      <g>
       <polygon class="fil7" points="817.14,902.11 762.46,902.11 762.46,879.77 817.14,879.77 "/>
      </g>
     </g>
     <g>
      <g>
       <polygon class="fil7" points="863.9,956.19 762.46,956.19 762.46,933.85 863.9,933.85 "/>
      </g>
     </g>
     <g>
      <g>
       <polygon class="fil7" points="910.88,997.59 762.46,997.59 762.46,975.25 910.88,975.25 "/>
      </g>
     </g>
     <g>
      <g>
       <polygon class="fil7" points="1179.78,997.59 1031.36,997.59 1031.36,975.25 1179.78,975.25 "/>
      </g>
     </g>
     <g>
      <g>
       <polygon class="fil7" points="1070.34,1092.7 861.95,1092.7 861.95,1070.36 1070.34,1070.36 "/>
      </g>
     </g>
     <g>
      <g>
       <polygon class="fil7" points="1214.42,1141.59 861.95,1141.59 861.95,1119.25 1214.42,1119.25 "/>
      </g>
     </g>
     <g>
      <g>
       <polygon class="fil7" points="1107.79,1190.47 755.31,1190.47 755.31,1168.13 1107.79,1168.13 "/>
      </g>
     </g>
     <g>
      <g>
       <polygon class="fil7" points="1015.58,997.59 926.54,997.59 926.54,975.25 1015.58,975.25 "/>
      </g>
     </g>
     <g>
      <g>
       <polygon class="fil7" points="901.33,852.27 809.46,852.27 809.46,829.93 901.33,829.93 "/>
      </g>
     </g>
     <g>
      <g>
       <polygon class="fil7" points="921.57,902.12 829.7,902.12 829.7,879.78 921.57,879.78 "/>
      </g>
     </g>
     <g>
      <g>
       <polygon class="fil7" points="1277.54,902.12 1034.27,902.12 1034.27,879.78 1277.54,879.78 "/>
      </g>
     </g>
     <g>
      <g>
       <polygon class="fil7" points="1565.13,902.12 1284.16,902.12 1284.16,879.78 1565.13,879.78 "/>
      </g>
     </g>
     <g>
      <g>
       <polygon class="fil7" points="1012.72,902.12 936.68,902.12 936.68,879.78 1012.72,879.78 "/>
      </g>
     </g>
     <g>
      <g>
       <polygon class="fil7" points="1034.36,852.27 913.92,852.27 913.92,829.93 1034.36,829.93 "/>
      </g>
     </g>
     <g>
      <g>
       <polygon class="fil1" points="1114.69,852.27 1047.65,852.27 1047.65,829.93 1114.69,829.93 "/>
      </g>
     </g>
     <g>
      <g>
       <polygon class="fil7" points="927.14,754.42 851.95,754.42 851.95,732.07 927.14,732.07 "/>
      </g>
     </g>
     <g>
      <g>
       <polygon class="fil7" points="1349.51,754.42 978.23,754.42 978.23,732.07 1349.51,732.07 "/>
      </g>
     </g>
     <g>
      <g>
       <polygon class="fil7" points="1766.3,902.12 1590.75,902.12 1590.75,879.78 1766.3,879.78 "/>
      </g>
     </g>
     <g>
      <g>
       <polygon class="fil7" points="1608.22,1141.59 1432.66,1141.59 1432.66,1119.25 1608.22,1119.25 "/>
      </g>
     </g>
     <g>
      <g>
       <polygon class="fil7" points="1651.22,705.36 1285.48,705.36 1285.48,683.02 1651.22,683.02 "/>
      </g>
     </g>
     <g>
      <g>
       <polygon class="fil7" points="1161.62,705.36 907.1,705.36 907.1,683.02 1161.62,683.02 "/>
      </g>
     </g>
     <g>
      <g>
       <polygon class="fil7" points="901.16,602.34 729.8,602.34 729.8,580 901.16,580 "/>
      </g>
     </g>
     <g>
      <g>
       <polygon class="fil7" points="1152.9,602.34 918.26,602.34 918.26,580 1152.9,580 "/>
      </g>
     </g>
     <g>
      <g>
       <polygon class="fil1" points="923.68,554.97 848.25,554.97 848.25,532.63 923.68,532.63 "/>
      </g>
     </g>
     <g>
      <g>
       <polygon class="fil7" points="651.6,554.97 629.96,554.97 629.96,532.63 651.6,532.63 "/>
      </g>
     </g>
     <g>
      <g>
       <polygon class="fil7" points="651.6,603.86 629.96,603.86 629.96,581.52 651.6,581.52 "/>
      </g>
     </g>
     <g>
      <g>
       <polygon class="fil7" points="651.6,652.74 629.96,652.74 629.96,630.4 651.6,630.4 "/>
      </g>
     </g>
     <g>
      <g>
       <polygon class="fil7" points="651.6,701.63 629.96,701.63 629.96,679.29 651.6,679.29 "/>
      </g>
     </g>
     <g>
      <g>
       <polygon class="fil7" points="651.6,750.51 629.96,750.51 629.96,728.17 651.6,728.17 "/>
      </g>
     </g>
     <g>
      <g>
       <polygon class="fil7" points="651.6,799.4 629.96,799.4 629.96,777.06 651.6,777.06 "/>
      </g>
     </g>
     <g>
      <g>
       <polygon class="fil7" points="651.6,848.28 629.96,848.28 629.96,825.94 651.6,825.94 "/>
      </g>
     </g>
     <g>
      <g>
       <polygon class="fil7" points="651.6,897.17 629.96,897.17 629.96,874.83 651.6,874.83 "/>
      </g>
     </g>
     <g>
      <g>
       <polygon class="fil7" points="651.6,946.05 629.96,946.05 629.96,923.71 651.6,923.71 "/>
      </g>
     </g>
     <g>
      <g>
       <polygon class="fil1" points="911.6,1296.08 877.9,1296.08 877.9,1273.73 911.6,1273.73 "/>
      </g>
     </g>
     <g>
      <g>
       <polygon class="fil8" points="857.41,1296.08 755.97,1296.08 755.97,1273.73 857.41,1273.73 "/>
      </g>
     </g>
     <g>
      <g>
       <polygon class="fil7" points="651.6,1293.6 629.96,1293.6 629.96,1271.26 651.6,1271.26 "/>
      </g>
     </g>
     <g>
      <g>
       <polygon class="fil7" points="651.6,994.93 629.96,994.93 629.96,972.59 651.6,972.59 "/>
      </g>
     </g>
     <g>
      <g>
       <polygon class="fil7" points="651.6,1043.82 629.96,1043.82 629.96,1021.48 651.6,1021.48 "/>
      </g>
     </g>
     <g>
      <g>
       <polygon class="fil7" points="651.6,1092.7 629.96,1092.7 629.96,1070.36 651.6,1070.36 "/>
      </g>
     </g>
     <g>
      <g>
       <polygon class="fil7" points="651.6,1141.59 629.96,1141.59 629.96,1119.25 651.6,1119.25 "/>
      </g>
     </g>
     <g>
      <g>
       <polygon class="fil7" points="651.6,1190.47 629.96,1190.47 629.96,1168.13 651.6,1168.13 "/>
      </g>
     </g>
     <g>
      <g>
       <polygon class="fil7" points="858.07,1241.92 755.31,1241.92 755.31,1219.58 858.07,1219.58 "/>
      </g>
     </g>
     <g>
      <g>
       <polygon class="fil7" points="1110.34,1241.92 877.9,1241.92 877.9,1219.58 1110.34,1219.58 "/>
      </g>
     </g>
     <g>
      <g>
       <polygon class="fil7" points="651.6,1241.92 629.96,1241.92 629.96,1219.58 651.6,1219.58 "/>
      </g>
     </g>
     <g>
      <g>
       <polygon class="fil1" points="1256.96,602.19 1181.53,602.19 1181.53,579.85 1256.96,579.85 "/>
      </g>
     </g>
    </g>
    <g>
     <path class="fil7" d="M640.78 454.21c0,8.48 -6.87,15.35 -15.35,15.35 -8.47,0 -15.34,-6.87 -15.34,-15.35 0,-8.47 6.87,-15.35 15.34,-15.35 8.48,0 15.35,6.88 15.35,15.35z"/>
    </g>
    <g>
     <path class="fil7" d="M683.37 454.21c0,8.48 -6.87,15.35 -15.34,15.35 -8.48,0 -15.35,-6.87 -15.35,-15.35 0,-8.47 6.87,-15.35 15.35,-15.35 8.47,0 15.34,6.88 15.34,15.35z"/>
    </g>
    <g>
     <path class="fil7" d="M725.97 454.21c0,8.48 -6.88,15.35 -15.35,15.35 -8.48,0 -15.35,-6.87 -15.35,-15.35 0,-8.47 6.87,-15.35 15.35,-15.35 8.47,0 15.35,6.88 15.35,15.35z"/>
    </g>
    <g>
     <path class="fil9" d="M1869.29 1333.13l-546.91 0c-16.03,0 -29.02,-12.99 -29.02,-29.02l0 -288.67c0,-16.03 12.99,-29.02 29.02,-29.02l546.91 0c16.02,0 29.01,12.99 29.01,29.02l0 288.67c0,16.03 -12.99,29.02 -29.01,29.02z"/>
    </g>
    <g>
     <path class="fil8" d="M1923.19 1296.08l-569.3 0c-9.85,0 -17.82,-7.98 -17.82,-17.83l0 -311.07c0,-9.84 7.97,-17.82 17.82,-17.82l569.3 0c9.84,0 17.82,7.98 17.82,17.82l0 311.07c0,9.85 -7.98,17.83 -17.82,17.83z"/>
    </g>
    <g>
     <path class="fil10" d="M1573.1 1165.1l-55.23 0 -10.27 25.37 -37.69 0 57.66 -130.62 36.39 0 57.85 130.62 -38.44 0 -10.27 -25.37zm-10.82 -27.25l0 0 -16.8 -41.8 -16.79 41.8 33.59 0z"/>
     <path class="fil10" d="M1722.76 1065.73c8.71,3.91 15.42,9.51 20.16,16.79 4.72,7.28 7.09,15.84 7.09,25.66 0,9.83 -2.37,18.35 -7.09,25.56 -4.74,7.22 -11.45,12.79 -20.16,16.71 -8.71,3.92 -18.97,5.87 -30.79,5.87l-22.76 0 0 34.15 -36.95 0 0 -130.62 59.71 0c11.82,0 22.08,1.96 30.79,5.88zm-15.86 56.54l0 0c3.85,-3.3 5.78,-7.99 5.78,-14.09 0,-6.09 -1.93,-10.82 -5.78,-14.18 -3.86,-3.36 -9.58,-5.04 -17.17,-5.04l-20.52 0 0 38.25 20.52 0c7.59,0 13.31,-1.64 17.17,-4.94z"/>
     <polygon class="fil10" points="1767.92,1059.85 1804.87,1059.85 1804.87,1190.47 1767.92,1190.47 "/>
    </g>
   </g>
   <g>
    <g>
     <path class="fil7" d="M689.82 526.26c0.58,0 1.05,192.3 1.05,429.47 0,237.24 -0.47,429.51 -1.05,429.51 -0.57,0 -1.04,-192.27 -1.04,-429.51 0,-237.17 0.47,-429.47 1.04,-429.47z"/>
    </g>
   </g>
  </g>
  <g id="_1671937388160">
   <g>
    <g>
     <g>
      <path class="fil8" d="M1151.17 1453.16c0.04,0 0.08,0.57 0.11,1.7 0.03,1.22 0.06,2.88 0.1,5 0.05,4.51 0.12,10.97 0.2,19.23 0.08,16.81 0.19,40.95 0.33,70.73 0.04,14.94 0.08,31.29 0.13,48.84 0.01,4.39 0.02,8.86 0.03,13.39 -0.07,4.55 0.22,9.09 -0.28,13.92 -1.1,9.54 -6.39,18.84 -14.62,24.79 -4.09,2.99 -8.87,5.16 -13.97,6.2 -5.16,1.08 -10.36,0.64 -15.48,0.74 -10.33,0.01 -20.89,0.02 -31.63,0.03 -21.48,0.01 -43.72,0.01 -66.5,0.02 -91.11,-0.12 -173.57,-0.23 -233.38,-0.3 -29.78,-0.14 -53.92,-0.26 -70.73,-0.34 -8.26,-0.08 -14.72,-0.15 -19.22,-0.19 -2.12,-0.05 -3.78,-0.08 -5,-0.11 -1.13,-0.03 -1.71,-0.07 -1.71,-0.1 0,-0.04 0.58,-0.08 1.71,-0.11 1.22,-0.03 2.88,-0.06 5,-0.1 4.5,-0.05 10.96,-0.12 19.22,-0.2 16.81,-0.08 40.95,-0.19 70.73,-0.33 59.81,-0.08 142.27,-0.19 233.38,-0.31 22.78,0.01 45.02,0.02 66.5,0.02 10.74,0.01 21.3,0.02 31.63,0.03 5.19,-0.09 10.31,0.34 15.09,-0.67 4.82,-0.98 9.35,-3.02 13.23,-5.84 7.81,-5.62 12.85,-14.41 13.92,-23.45 0.5,-4.48 0.24,-9.19 0.32,-13.7 0.01,-4.53 0.02,-9 0.03,-13.39 0.04,-17.55 0.09,-33.9 0.13,-48.84 0.14,-29.78 0.25,-53.92 0.33,-70.73 0.08,-8.26 0.15,-14.72 0.19,-19.23 0.05,-2.12 0.08,-3.78 0.11,-5 0.03,-1.13 0.07,-1.7 0.1,-1.7z"/>
     </g>
    </g>
    <g>
     <path class="fil8" d="M1165.16 1439.17c0,7.73 -6.26,13.99 -13.99,13.99 -7.72,0 -13.98,-6.26 -13.98,-13.99 0,-7.72 6.26,-13.98 13.98,-13.98 7.73,0 13.99,6.26 13.99,13.98z"/>
    </g>
    <g>
     <path class="fil8" d="M693.98 1654.51c0,7.72 -6.26,13.98 -13.98,13.98 -7.72,0 -13.98,-6.26 -13.98,-13.98 0,-7.73 6.26,-13.99 13.98,-13.99 7.72,0 13.98,6.26 13.98,13.99z"/>
    </g>
   </g>
   <g>
    <g>
     <path class="fil8" d="M2277.25 1329.28c0,10.78 -8.74,19.51 -19.51,19.51 -10.77,0 -19.5,-8.73 -19.5,-19.51 0,-10.77 8.73,-19.5 19.5,-19.5 10.77,0 19.51,8.73 19.51,19.5z"/>
    </g>
    <g>
     <path class="fil8" d="M2371.84 1242.8c0,10.77 -8.73,19.51 -19.51,19.51 -10.77,0 -19.5,-8.74 -19.5,-19.51 0,-10.77 8.73,-19.5 19.5,-19.5 10.78,0 19.51,8.73 19.51,19.5z"/>
    </g>
    <g>
     <path class="fil8" d="M2279.13 1156.32c0,10.77 -8.73,19.5 -19.5,19.5 -10.77,0 -19.5,-8.73 -19.5,-19.5 0,-10.77 8.73,-19.51 19.5,-19.51 10.77,0 19.5,8.74 19.5,19.51z"/>
    </g>
    <g>
     <g>
      <path class="fil8" d="M2349.64 1242.8c0,0.58 -75.99,1.05 -169.7,1.05 -93.75,0 -169.72,-0.47 -169.72,-1.05 0,-0.58 75.97,-1.04 169.72,-1.04 93.71,0 169.7,0.46 169.7,1.04z"/>
     </g>
    </g>
    <g>
     <g>
      <path class="fil8" d="M2257.74 1338.18c-0.57,0 -1.04,-39.89 -1.04,-89.1 0,-49.22 0.47,-89.1 1.04,-89.1 0.58,0 1.05,39.88 1.05,89.1 0,49.21 -0.47,89.1 -1.05,89.1z"/>
     </g>
    </g>
   </g>
  </g>
  <g id="_1671937391664">
   <g>
    <g>
     <path class="fil8" d="M1300.26 471.03l-293.91 0c-18.56,0 -33.61,-15.05 -33.61,-33.62l0 -171.55c0,-18.56 15.05,-33.61 33.61,-33.61l293.91 0c18.57,0 33.62,15.05 33.62,33.61l0 171.55c0,18.57 -15.05,33.62 -33.62,33.62z"/>
    </g>
    <g>
     <path class="fil9" d="M1300.26 471.03l-293.91 0c-18.56,0 -33.61,-15.05 -33.61,-33.62l0 -171.55c0,-18.56 15.05,-33.61 33.61,-33.61l293.91 0c18.57,0 33.62,15.05 33.62,33.61l0 171.55c0,18.57 -15.05,33.62 -33.62,33.62z"/>
    </g>
   </g>
   <g>
    <path class="fil8" d="M1272.86 471.03l-293.92 0c-18.56,0 -33.61,-15.05 -33.61,-33.62l0 -171.55c0,-18.56 15.05,-33.61 33.61,-33.61l293.92 0c18.56,0 33.61,15.05 33.61,33.61l0 171.55c0,18.57 -15.05,33.62 -33.61,33.62z"/>
   </g>
   <g>
    <polygon class="fil10" points="1090.05,338.22 1040.83,355.66 1090.05,373.09 1090.05,395.62 1013.98,367.54 1013.98,343.78 1090.05,315.7 "/>
    <polygon class="fil10" points="1144.2,279.75 1170.28,279.75 1119.36,425.09 1093.29,425.09 "/>
    <polygon class="fil10" points="1248.04,343.78 1248.04,367.54 1171.98,395.62 1171.98,373.09 1221.2,355.66 1171.98,338.22 1171.98,315.7 "/>
   </g>
  </g>
  <g id="_1671937394448">
   <g>
    <g>
     <g>
      <path class="fil1" d="M1627.15 289.32c12.12,-7.32 25.02,-12.88 38.33,-16.66l7.9 -37.94 64.11 -1.13 9.22 37.64c13.44,3.31 26.53,8.41 38.9,15.31l17.79 -21.24 14.61 0 46.13 44.54 -20.08 33.12c7.33,12.12 12.88,25.03 16.66,38.34l37.94 7.9 1.12 64.11 -37.64 9.23c-3.31,13.43 -8.4,26.52 -15.3,38.89l21.24 32.4 -44.54 46.13 -14.61 0 -18.51 -20.08c-12.13,7.33 -25.03,12.88 -38.34,16.66l-7.9 37.94 -64.11 1.13 -9.23 -37.65c-13.43,-3.31 -26.52,-8.41 -38.89,-15.3l-32.4 21.24 -14.62 0 -31.51 -44.54 20.08 -33.12c-7.32,-12.12 -12.88,-25.03 -16.66,-38.34l-37.94 -7.9 -1.13 -64.11 37.65 -9.23c3.31,-13.43 8.41,-26.52 15.3,-38.89l-21.24 -32.4 29.92 -46.13 14.61 0 33.14 20.08zm34.17 85.41l0 0c-26.39,27.33 -25.62,70.87 1.71,97.26 27.33,26.38 70.88,25.62 97.26,-1.71 26.38,-27.33 25.62,-70.88 -1.71,-97.26 -27.33,-26.39 -70.87,-25.62 -97.26,1.71z"/>
     </g>
    </g>
   </g>
   <g>
    <g>
     <g>
      <path class="fil9" d="M1627.15 289.32c12.12,-7.32 25.02,-12.88 38.33,-16.66l7.9 -37.94 64.11 -1.13 9.22 37.64c13.44,3.31 26.53,8.41 38.9,15.31l17.79 -21.24 14.61 0 46.13 44.54 -20.08 33.12c7.33,12.12 12.88,25.03 16.66,38.34l37.94 7.9 1.12 64.11 -37.64 9.23c-3.31,13.43 -8.4,26.52 -15.3,38.89l21.24 32.4 -44.54 46.13 -14.61 0 -18.51 -20.08c-12.13,7.33 -25.03,12.88 -38.34,16.66l-7.9 37.94 -64.11 1.13 -9.23 -37.65c-13.43,-3.31 -26.52,-8.41 -38.89,-15.3l-32.4 21.24 -14.62 0 -31.51 -44.54 20.08 -33.12c-7.32,-12.12 -12.88,-25.03 -16.66,-38.34l-37.94 -7.9 -1.13 -64.11 37.65 -9.23c3.31,-13.43 8.41,-26.52 15.3,-38.89l-21.24 -32.4 29.92 -46.13 14.61 0 33.14 20.08zm34.17 85.41l0 0c-26.39,27.33 -25.62,70.87 1.71,97.26 27.33,26.38 70.88,25.62 97.26,-1.71 26.38,-27.33 25.62,-70.88 -1.71,-97.26 -27.33,-26.39 -70.87,-25.62 -97.26,1.71z"/>
     </g>
    </g>
   </g>
   <g>
    <g>
     <g>
      <path class="fil1" d="M1612.53 289.32c12.12,-7.32 25.03,-12.88 38.34,-16.66l7.89 -37.94 64.11 -1.13 9.23 37.64c13.43,3.31 26.53,8.41 38.9,15.31l32.4 -21.24 46.13 44.54 -20.08 33.12c7.32,12.12 12.88,25.03 16.65,38.34l37.95 7.9 1.12 64.11 -37.64 9.23c-3.31,13.43 -8.41,26.52 -15.3,38.89l21.23 32.4 -44.53 46.13 -33.12 -20.08c-12.13,7.33 -25.03,12.88 -38.35,16.66l-7.89 37.94 -64.11 1.13 -9.23 -37.65c-13.43,-3.31 -26.52,-8.41 -38.9,-15.3l-32.4 21.24 -46.13 -44.54 20.09 -33.12c-7.33,-12.12 -12.88,-25.03 -16.66,-38.34l-37.95 -7.9 -1.12 -64.11 37.64 -9.23c3.31,-13.43 8.41,-26.52 15.3,-38.89l-21.23 -32.4 44.53 -46.13 33.13 20.08zm34.18 85.41l0 0c-26.39,27.33 -25.63,70.87 1.71,97.26 27.33,26.38 70.87,25.62 97.26,-1.71 26.38,-27.33 25.62,-70.88 -1.71,-97.26 -27.33,-26.39 -70.88,-25.62 -97.26,1.71z"/>
     </g>
    </g>
   </g>
  </g>
  <g id="_1671937394064">
   <g>
    <path class="fil10" d="M2745.56 1055.43l-608.31 0c-22.34,0 -40.46,-18.11 -40.46,-40.46l0 -866.69c0,-22.35 18.12,-40.46 40.46,-40.46l608.31 0c22.35,0 40.47,18.11 40.47,40.46l0 866.69c0,22.35 -18.12,40.46 -40.47,40.46z"/>
   </g>
   <g>
    <polygon class="fil1" points="2525.17,770.32 2357.64,770.32 2357.64,630.49 2525.17,630.49 "/>
   </g>
   <g>
    <polygon class="fil1" points="2737.14,772.1 2569.6,772.1 2569.6,632.27 2737.14,632.27 "/>
   </g>
   <g>
    <polygon class="fil1" points="2313.21,772.1 2145.68,772.1 2145.68,632.27 2313.21,632.27 "/>
   </g>
   <g>
    <polygon class="fil1" points="2786.03,564.62 2096.79,564.62 2096.79,309.08 2786.03,309.08 "/>
   </g>
   <g>
    <path class="fil1" d="M2786.03 202.45l-689.24 0 0 -57.43c0,-20.55 16.66,-37.2 37.2,-37.2l610.32 0c23.04,0 41.72,18.67 41.72,41.71l0 52.92z"/>
   </g>
   <g>
    <path class="fil8" d="M2192.58 255.76c0,16.58 -13.44,30.01 -30.01,30.01 -16.58,0 -30.01,-13.43 -30.01,-30.01 0,-16.57 13.43,-30.01 30.01,-30.01 16.57,0 30.01,13.44 30.01,30.01z"/>
   </g>
   <g>
    <polygon class="fil1" points="2462.23,268.13 2351.98,268.13 2351.98,242.44 2462.23,242.44 "/>
   </g>
   <g>
    <polygon class="fil1" points="2599.63,268.13 2489.38,268.13 2489.38,242.44 2599.63,242.44 "/>
   </g>
   <g>
    <polygon class="fil1" points="2737.02,268.13 2626.77,268.13 2626.77,242.44 2737.02,242.44 "/>
   </g>
   <g>
    <polygon class="fil1" points="2313.21,841.75 2145.68,841.75 2145.68,819.36 2313.21,819.36 "/>
   </g>
   <g>
    <polygon class="fil1" points="2313.21,890.63 2145.68,890.63 2145.68,868.24 2313.21,868.24 "/>
   </g>
   <g>
    <polygon class="fil1" points="2236.38,939.51 2145.68,939.51 2145.68,917.12 2236.38,917.12 "/>
   </g>
   <g>
    <polygon class="fil1" points="2528.57,841.75 2361.04,841.75 2361.04,819.36 2528.57,819.36 "/>
   </g>
   <g>
    <polygon class="fil1" points="2528.57,890.63 2361.04,890.63 2361.04,868.24 2528.57,868.24 "/>
   </g>
   <g>
    <polygon class="fil1" points="2451.74,939.51 2361.04,939.51 2361.04,917.12 2451.74,917.12 "/>
   </g>
   <g>
    <polygon class="fil1" points="2743.93,841.75 2576.4,841.75 2576.4,819.36 2743.93,819.36 "/>
   </g>
   <g>
    <polygon class="fil1" points="2743.93,890.63 2576.4,890.63 2576.4,868.24 2743.93,868.24 "/>
   </g>
   <g>
    <polygon class="fil1" points="2667.1,939.51 2576.4,939.51 2576.4,917.12 2667.1,917.12 "/>
   </g>
   <g>
    <g>
     <path class="fil10" d="M2164.11 160.09c0,6.34 -5.14,11.48 -11.48,11.48 -6.34,0 -11.48,-5.14 -11.48,-11.48 0,-6.35 5.14,-11.49 11.48,-11.49 6.34,0 11.48,5.14 11.48,11.49z"/>
    </g>
    <g>
     <path class="fil10" d="M2200.41 160.09c0,6.34 -5.14,11.48 -11.48,11.48 -6.34,0 -11.48,-5.14 -11.48,-11.48 0,-6.35 5.14,-11.49 11.48,-11.49 6.34,0 11.48,5.14 11.48,11.49z"/>
    </g>
    <g>
     <path class="fil10" d="M2236.71 160.09c0,6.34 -5.14,11.48 -11.48,11.48 -6.34,0 -11.48,-5.14 -11.48,-11.48 0,-6.35 5.14,-11.49 11.48,-11.49 6.34,0 11.48,5.14 11.48,11.49z"/>
    </g>
   </g>
   <g>
    <path class="fil10" d="M2393.66 442.09l0 -55.99c0,-10.51 11.72,-17.09 21.11,-11.83l49.95 28 49.95 27.99c9.39,5.26 9.39,18.4 0,23.66l-49.95 28 -49.95 27.99c-9.39,5.26 -21.11,-1.31 -21.11,-11.83l0 -55.99z"/>
   </g>
  </g>
  <g id="_1672278165568">
   <g>
    <g>
     <g>
      <g>
       <g>
        <g>
         <g>
          <g>
           <g>
            <path class="fil6" d="M2723.55 1739.66l-264.63 -1.15c-31.83,-0.14 -57.52,-24.57 -57.38,-54.58l2.8 -625.45c0.14,-30.02 26.07,-54.26 57.91,-54.12l264.64 1.15c31.83,0.14 57.51,24.57 57.38,54.58l-2.81 625.46c-0.13,30.02 -26.06,54.25 -57.91,54.11z"/>
           </g>
          </g>
         </g>
        </g>
        <g>
         <g>
          <path class="fil10" d="M2726.51 1027.1l-51.31 -0.22 -149.85 -0.65 -18.04 -0.08 -44.91 -0.2c-22.3,-0.1 -40.46,16.87 -40.55,37.9l-2.74 610.49c-0.1,21.01 17.89,38.12 40.18,38.22l264.11 1.15c22.3,0.1 40.46,-16.87 40.56,-37.9l2.73 -610.49c0.1,-21.01 -17.89,-38.12 -40.18,-38.22z"/>
         </g>
        </g>
       </g>
      </g>
     </g>
    </g>
   </g>
   <g>
    <g>
     <g>
      <g>
       <g>
        <g>
         <path class="fil6" d="M2728.77 1083.91c0,1.76 -1.47,3.17 -3.28,3.17 -1.81,-0.01 -3.27,-1.44 -3.26,-3.19 0,-1.76 1.48,-3.17 3.28,-3.17 1.81,0.01 3.27,1.44 3.26,3.19z"/>
        </g>
       </g>
      </g>
     </g>
     <g>
      <g>
       <g>
        <g>
         <path class="fil6" d="M2728.73 1095.34c-0.01,1.76 -1.48,3.17 -3.29,3.17 -1.8,-0.01 -3.26,-1.44 -3.26,-3.19 0.01,-1.76 1.48,-3.17 3.29,-3.17 1.81,0.01 3.27,1.44 3.26,3.19z"/>
        </g>
       </g>
      </g>
     </g>
     <g>
      <g>
       <g>
        <g>
         <path class="fil6" d="M2728.69 1106.77c-0.01,1.76 -1.48,3.17 -3.29,3.17 -1.81,-0.01 -3.27,-1.44 -3.26,-3.19 0.01,-1.76 1.48,-3.17 3.29,-3.17 1.8,0.01 3.26,1.44 3.26,3.19z"/>
        </g>
       </g>
      </g>
     </g>
    </g>
   </g>
   <g>
    <g>
     <path class="fil8" d="M2504.33 1098.51c0,11.58 -9.67,20.97 -21.61,20.97 -11.93,0 -21.61,-9.39 -21.61,-20.97 0,-11.59 9.68,-20.98 21.61,-20.98 11.94,0 21.61,9.39 21.61,20.98z"/>
    </g>
   </g>
   <g>
    <path class="fil1" d="M2664.9 1102.54l-110.8 0c-3.98,0 -7.21,-3.23 -7.21,-7.21 0,-3.98 3.23,-7.21 7.21,-7.21l110.8 0c3.98,0 7.2,3.23 7.2,7.21 0,3.98 -3.22,7.21 -7.2,7.21z"/>
   </g>
   <path class="fil8" d="M2527.86 1369.83l0 -61.99c0,-11.64 12.98,-18.92 23.37,-13.09l55.31 30.99 55.3 30.99c10.39,5.82 10.39,20.38 0,26.2l-55.3 30.99 -55.31 30.99c-10.39,5.83 -23.37,-1.45 -23.37,-13.09l0 -61.99z"/>
  </g>
  <g id="_1672181079968">
   <g>
    <g>
     <path class="fil8" d="M1843.47 1641.37c23.48,-37.33 63.22,-46.01 99.31,-37.79 -5.54,-53.14 18.36,-108.42 60.87,-140.78 42.51,-32.36 102.16,-40.68 151.9,-21.19 49.75,19.49 87.86,66.11 97.08,118.74 37.41,-26.52 93.55,-8.57 120.98,28.17 27.44,36.75 29.13,115.23 -3.03,152.18l-518.09 -2.96c0,0 -39.46,-47.97 -9.02,-96.37z"/>
    </g>
    <g>
     <g>
      <path class="fil9" d="M1843.47 1641.37c23.48,-37.33 63.22,-46.01 99.31,-37.79 -5.54,-53.14 18.36,-108.42 60.87,-140.78 42.51,-32.36 102.16,-40.68 151.9,-21.19 49.75,19.49 87.86,66.11 97.08,118.74 37.41,-26.52 93.55,-8.57 120.98,28.17 27.44,36.75 29.13,115.23 -3.03,152.18l-518.09 -2.96c0,0 -39.46,-47.97 -9.02,-96.37z"/>
     </g>
    </g>
   </g>
   <g>
    <path class="fil8" d="M1818.21 1641.37c23.48,-37.33 63.21,-46.01 99.3,-37.79 -5.54,-53.14 18.36,-108.42 60.87,-140.78 42.52,-32.36 102.16,-40.68 151.9,-21.19 49.75,19.49 87.87,66.11 97.08,118.74 37.42,-26.52 93.55,-8.57 120.99,28.17 27.43,36.75 29.12,115.23 -3.03,152.18l-518.1 -2.96c0,0 -39.46,-47.97 -9.01,-96.37z"/>
   </g>
  </g>
  <g id="_1672181074976">
   <g>
    <path class="fil1" d="M604.15 1739.67l-511.03 0c-8.57,0 -15.52,-6.95 -15.52,-15.52l0 -487.16c0,-8.58 6.95,-15.53 15.52,-15.53l511.03 0c8.57,0 15.52,6.95 15.52,15.53l0 487.16c0,8.57 -6.95,15.52 -15.52,15.52z"/>
   </g>
   <g>
    <g>
     <path class="fil6" d="M620.61 1386.88c0,0.58 -121.07,1.04 -270.39,1.04 -149.38,0 -270.43,-0.46 -270.43,-1.04 0,-0.58 121.05,-1.04 270.43,-1.04 149.32,0 270.39,0.46 270.39,1.04z"/>
    </g>
   </g>
   <g>
    <g>
     <path class="fil6" d="M620.61 1553.25c0,0.58 -121.07,1.05 -270.39,1.05 -149.38,0 -270.43,-0.47 -270.43,-1.05 0,-0.57 121.05,-1.04 270.43,-1.04 149.32,0 270.39,0.47 270.39,1.04z"/>
    </g>
   </g>
   <g>
    <path class="fil10" d="M187.93 1308.92c0,6.5 -5.28,11.78 -11.78,11.78 -6.51,0 -11.79,-5.28 -11.79,-11.78 0,-6.51 5.28,-11.79 11.79,-11.79 6.5,0 11.78,5.28 11.78,11.79z"/>
   </g>
   <g>
    <path class="fil10" d="M230.22 1308.92c0,6.5 -5.28,11.78 -11.79,11.78 -6.51,0 -11.78,-5.28 -11.78,-11.78 0,-6.51 5.27,-11.79 11.78,-11.79 6.51,0 11.79,5.28 11.79,11.79z"/>
   </g>
   <g>
    <path class="fil6" d="M485.37 1330.92l-2.03 0c-2.42,0 -4.38,-1.96 -4.38,-4.37l0 -31.4c0,-2.41 1.96,-4.37 4.38,-4.37l2.03 0c2.41,0 4.37,1.96 4.37,4.37l0 31.4c0,2.41 -1.96,4.37 -4.37,4.37z"/>
   </g>
   <g>
    <path class="fil6" d="M512.54 1330.92l-2.03 0c-2.42,0 -4.38,-1.96 -4.38,-4.37l0 -31.4c0,-2.41 1.96,-4.37 4.38,-4.37l2.03 0c2.41,0 4.37,1.96 4.37,4.37l0 31.4c0,2.41 -1.96,4.37 -4.37,4.37z"/>
   </g>
   <g>
    <path class="fil10" d="M537.59 1330.92l-2.03 0c-2.42,0 -4.38,-1.96 -4.38,-4.37l0 -31.4c0,-2.41 1.96,-4.37 4.38,-4.37l2.03 0c2.41,0 4.37,1.96 4.37,4.37l0 31.4c0,2.41 -1.96,4.37 -4.37,4.37z"/>
   </g>
   <g>
    <path class="fil8" d="M457.85 1330.92l-2.04 0c-2.41,0 -4.37,-1.96 -4.37,-4.37l0 -31.4c0,-2.41 1.96,-4.37 4.37,-4.37l2.04 0c2.41,0 4.37,1.96 4.37,4.37l0 31.4c0,2.41 -1.96,4.37 -4.37,4.37z"/>
   </g>
   <g>
    <path class="fil10" d="M187.93 1470.55c0,6.51 -5.28,11.79 -11.78,11.79 -6.51,0 -11.79,-5.28 -11.79,-11.79 0,-6.51 5.28,-11.78 11.79,-11.78 6.5,0 11.78,5.27 11.78,11.78z"/>
   </g>
   <g>
    <path class="fil10" d="M227.93 1470.55c0,6.51 -5.28,11.79 -11.79,11.79 -6.51,0 -11.78,-5.28 -11.78,-11.79 0,-6.51 5.27,-11.78 11.78,-11.78 6.51,0 11.79,5.27 11.79,11.78z"/>
   </g>
   <g>
    <path class="fil6" d="M485.37 1492.56l-2.03 0c-2.42,0 -4.38,-1.96 -4.38,-4.38l0 -31.39c0,-2.42 1.96,-4.38 4.38,-4.38l2.03 0c2.41,0 4.37,1.96 4.37,4.38l0 31.39c0,2.42 -1.96,4.38 -4.37,4.38z"/>
   </g>
   <g>
    <path class="fil6" d="M512.54 1492.56l-2.03 0c-2.42,0 -4.38,-1.96 -4.38,-4.38l0 -31.39c0,-2.42 1.96,-4.38 4.38,-4.38l2.03 0c2.41,0 4.37,1.96 4.37,4.38l0 31.39c0,2.42 -1.96,4.38 -4.37,4.38z"/>
   </g>
   <g>
    <path class="fil10" d="M537.59 1492.56l-2.03 0c-2.42,0 -4.38,-1.96 -4.38,-4.38l0 -31.39c0,-2.42 1.96,-4.38 4.38,-4.38l2.03 0c2.41,0 4.37,1.96 4.37,4.38l0 31.39c0,2.42 -1.96,4.38 -4.37,4.38z"/>
   </g>
   <g>
    <path class="fil8" d="M457.85 1492.56l-2.04 0c-2.41,0 -4.37,-1.96 -4.37,-4.38l0 -31.39c0,-2.42 1.96,-4.38 4.37,-4.38l2.04 0c2.41,0 4.37,1.96 4.37,4.38l0 31.39c0,2.42 -1.96,4.38 -4.37,4.38z"/>
   </g>
   <g>
    <path class="fil10" d="M187.93 1644.53c0,6.5 -5.28,11.78 -11.78,11.78 -6.51,0 -11.79,-5.28 -11.79,-11.78 0,-6.51 5.28,-11.79 11.79,-11.79 6.5,0 11.78,5.28 11.78,11.79z"/>
   </g>
   <g>
    <path class="fil10" d="M231.33 1644.53c0,6.5 -5.28,11.78 -11.78,11.78 -6.51,0 -11.79,-5.28 -11.79,-11.78 0,-6.51 5.28,-11.79 11.79,-11.79 6.5,0 11.78,5.28 11.78,11.79z"/>
   </g>
   <g>
    <path class="fil6" d="M485.37 1666.53l-2.03 0c-2.42,0 -4.38,-1.96 -4.38,-4.37l0 -31.4c0,-2.41 1.96,-4.37 4.38,-4.37l2.03 0c2.41,0 4.37,1.96 4.37,4.37l0 31.4c0,2.41 -1.96,4.37 -4.37,4.37z"/>
   </g>
   <g>
    <path class="fil6" d="M512.54 1666.53l-2.03 0c-2.42,0 -4.38,-1.96 -4.38,-4.37l0 -31.4c0,-2.41 1.96,-4.37 4.38,-4.37l2.03 0c2.41,0 4.37,1.96 4.37,4.37l0 31.4c0,2.41 -1.96,4.37 -4.37,4.37z"/>
   </g>
   <g>
    <path class="fil10" d="M537.59 1666.53l-2.03 0c-2.42,0 -4.38,-1.96 -4.38,-4.37l0 -31.4c0,-2.41 1.96,-4.37 4.38,-4.37l2.03 0c2.41,0 4.37,1.96 4.37,4.37l0 31.4c0,2.41 -1.96,4.37 -4.37,4.37z"/>
   </g>
   <g>
    <path class="fil8" d="M457.85 1666.53l-2.04 0c-2.41,0 -4.37,-1.96 -4.37,-4.37l0 -31.4c0,-2.41 1.96,-4.37 4.37,-4.37l2.04 0c2.41,0 4.37,1.96 4.37,4.37l0 31.4c0,2.41 -1.96,4.37 -4.37,4.37z"/>
   </g>
  </g>
 </g>
</svg>
