<?xml version="1.0" encoding="UTF-8"?>
<!DOCTYPE svg PUBLIC "-//W3C//DTD SVG 1.1//EN" "http://www.w3.org/Graphics/SVG/1.1/DTD/svg11.dtd">

<svg xmlns="http://www.w3.org/2000/svg" xml:space="preserve" width="600px" height="161px" version="1.1" style="shape-rendering:geometricPrecision; text-rendering:geometricPrecision; image-rendering:optimizeQuality; fill-rule:evenodd; clip-rule:evenodd"
viewBox="0 0 296.23 79.75"
 xmlns:xlink="http://www.w3.org/1999/xlink">
 <defs>
  <style type="text/css">
   <![CDATA[
    .fil1 {fill:#424242}
    .fil0 {fill:#424242;fill-rule:nonzero}
   ]]>
  </style>
 </defs>
 <g id="Layer_x0020_1">

  <g id="_2505174992768">
   <path class="fil0" d="M9.6 75.59l0 -52.15c0,-0.07 0.01,-0.14 0.01,-0.21 0,-2.14 -1.77,-3.87 -3.95,-3.87 -2.17,0 -3.94,1.73 -3.94,3.87 0,0.07 0,0.14 0.01,0.21l0 52.15c-0.01,0.07 -0.01,0.14 -0.01,0.2 0,2.14 1.77,3.87 3.94,3.87 2.18,0 3.95,-1.73 3.95,-3.87 0,-0.06 -0.01,-0.13 -0.01,-0.2z"/>
   <path class="fil0" d="M64.53 76.01l0 0c0,2.04 -1.66,3.69 -3.69,3.69 -2.04,0 -3.69,-1.65 -3.69,-3.69l-0.01 0 0 -32.38c0,-4.67 -1.72,-8.69 -5.14,-12.06 -3.42,-3.37 -7.4,-5.05 -11.97,-5.05 -4.64,0 -8.66,1.68 -12.08,5.05 -3.42,3.37 -5.13,7.39 -5.13,12.06l0 32.11c0,0.09 0.01,0.18 0.01,0.27 0,2.05 -1.66,3.71 -3.71,3.71 -2.05,0 -3.7,-1.66 -3.7,-3.71 0,-0.09 0,-0.18 0.01,-0.27l0 -31.33c0,-7.2 2.33,-13.18 7,-17.94 4.66,-4.77 10.53,-7.15 17.6,-7.15 7,0 12.83,2.38 17.5,7.15 4.67,4.76 7,10.74 7,17.94l0 31.6z"/>
   <path class="fil0" d="M237.73 72.71c4.38,5.45 -3.19,9.43 -6.23,5.09l-15.21 -23.23 -15.09 23.23c-2.84,4.32 -10.1,0.55 -5.9,-4.88l16.3 -24.7 -16.49 -23.69c-2.68,-4.07 2.96,-8.26 5.97,-4.12l15.28 21.53 14.78 -21.54c2.89,-4.24 9.45,0.03 6.57,4.14l-16.79 23.86 16.81 24.31z"/>
   <path class="fil0" d="M188.79 51.98l-44.84 0c0.61,5.83 3.09,10.64 7.43,14.44 4.34,3.8 9.46,5.66 15.36,5.6 9.15,-0.14 15.7,-4.38 19.63,-12.72 2.68,-6.72 10.03,-3.34 7.55,1.81 -2.53,5.25 -5.65,9.74 -10.3,13.04 -5.15,3.66 -10.88,5.53 -17.19,5.6 -7.93,0.13 -14.95,-2.77 -21.05,-8.7 -6.11,-5.93 -9.22,-13 -9.36,-21.21 -0.2,-8.68 2.86,-16.15 9.21,-22.43 6.34,-6.27 13.81,-9.17 22.42,-8.69 7.73,0.47 14.45,3.66 20.14,9.56 4.52,4.8 7.18,10.05 7.98,15.77 0.47,2.49 -0.49,7.97 -6.98,7.93zm-0.39 -7.12c-1.08,-5.43 -3.62,-9.82 -7.63,-13.17 -4,-3.36 -8.78,-5.07 -14.34,-5.14 -5.56,-0.07 -10.42,1.59 -14.59,4.98 -4.17,3.39 -6.8,7.83 -7.89,13.33l44.45 0z"/>
   <path class="fil0" d="M129.91 49.39c0,8.33 -2.77,15.52 -8.93,21.58 -6.16,6.06 -13.4,8.95 -21.73,8.68 -8.05,-0.2 -14.87,-3.25 -20.46,-9.14 -5.58,-5.89 -8.37,-12.89 -8.37,-21.02 0,-8.46 3.01,-15.72 9.02,-21.77 6,-6.06 13.16,-8.96 21.47,-8.69 8.53,0.34 15.62,3.76 21.29,10.26l0 -25.44 0 0c0,-2.12 1.73,-3.85 3.86,-3.85 2.13,0 3.85,1.73 3.85,3.85l0 0 0 45.54zm-7.71 -0.61c-0.14,-6.12 -2.29,-11.35 -6.47,-15.7 -4.16,-4.35 -9.24,-6.53 -15.21,-6.53 -6.11,-0.07 -11.35,2.1 -15.72,6.48 -4.38,4.38 -6.6,9.66 -6.67,15.85 -0.07,6.11 1.97,11.48 6.11,16.06 4.13,4.59 9.19,6.99 15.16,7.2 6.38,0.33 11.83,-1.88 16.33,-6.64 4.52,-4.75 6.67,-10.34 6.47,-16.72z"/>
   <circle class="fil1" cx="5.66" cy="5.96" r="5.66"/>
   <path class="fil1" d="M296.23 49.46c0,8.29 -3.02,15.45 -9.06,21.49 -6.03,6.03 -13.19,8.92 -21.49,8.65 -8.02,-0.21 -14.81,-3.24 -20.38,-9.11 -5.56,-5.86 -8.34,-12.84 -8.34,-20.93 0,-8.43 3,-15.66 9,-21.7 6,-6.03 13.15,-8.91 21.44,-8.64 8.03,0.27 14.84,3.35 20.43,9.25 5.6,5.9 8.4,12.9 8.4,20.99zm-7.69 -0.61c-0.2,-6.1 -2.38,-11.31 -6.54,-15.64 -4.15,-4.33 -9.17,-6.51 -15.05,-6.51 -6.16,-0.07 -11.4,2.09 -15.71,6.46 -4.34,4.36 -6.53,9.62 -6.59,15.79 -0.14,6.09 1.85,11.43 5.98,16 4.11,4.57 9.15,6.96 15.1,7.16 6.36,0.34 11.79,-1.87 16.27,-6.61 4.5,-4.73 6.67,-10.29 6.54,-16.65z"/>
  </g>
 </g>
</svg>
