<?xml version="1.0" encoding="UTF-8"?>
<!DOCTYPE svg PUBLIC "-//W3C//DTD SVG 1.1//EN" "http://www.w3.org/Graphics/SVG/1.1/DTD/svg11.dtd">

<svg xmlns="http://www.w3.org/2000/svg" xml:space="preserve" width="800px" height="570px" version="1.1" style="shape-rendering:geometricPrecision; text-rendering:geometricPrecision; image-rendering:optimizeQuality; fill-rule:evenodd; clip-rule:evenodd"
viewBox="0 0 798.93 568.89"
 xmlns:xlink="http://www.w3.org/1999/xlink">
 <defs>
  <style type="text/css">
   <![CDATA[
    .fil2 {fill:#3880FF}
    .fil1 {fill:#424242}
    .fil0 {fill:#424242;fill-rule:nonzero}
   ]]>
  </style>
 </defs>
 <g id="Layer_x0020_1">

  <g id="_2409107573712">
   <path class="fil0" d="M25.89 557.66l0 -140.66c0.01,-0.18 0.02,-0.36 0.02,-0.55 0,-5.76 -4.76,-10.43 -10.63,-10.43 -5.88,0 -10.64,4.67 -10.64,10.43 0,0.19 0.01,0.37 0.02,0.55l0 140.66c-0.01,0.19 -0.02,0.37 -0.02,0.55 0,5.77 4.76,10.44 10.64,10.44 5.87,0 10.63,-4.67 10.63,-10.44 0,-0.18 -0.01,-0.36 -0.02,-0.55z"/>
   <path class="fil0" d="M174.04 558.8l-0.01 0c0,5.5 -4.46,9.95 -9.95,9.95 -5.5,0 -9.95,-4.45 -9.95,-9.95l-0.02 0 0 -87.33c0,-12.59 -4.63,-23.43 -13.85,-32.52 -9.23,-9.09 -19.98,-13.64 -32.31,-13.64 -12.5,0 -23.34,4.55 -32.56,13.64 -9.22,9.09 -13.86,19.93 -13.86,32.52l0 86.6c0.02,0.24 0.03,0.48 0.03,0.73 0,5.52 -4.47,9.99 -9.99,9.99 -5.52,0 -9.99,-4.47 -9.99,-9.99 0,-0.25 0,-0.49 0.02,-0.73l0 -84.5c0,-19.41 6.3,-35.54 18.89,-48.39 12.58,-12.85 28.41,-19.27 47.46,-19.27 18.89,0 34.62,6.42 47.21,19.27 12.59,12.85 18.88,28.98 18.88,48.39l0 85.23z"/>
   <path class="fil0" d="M641.17 549.9c11.8,14.71 -8.61,25.43 -16.81,13.74l-41.01 -62.67 -40.7 62.67c-7.67,11.63 -27.25,1.46 -15.93,-13.17l43.97 -66.63 -44.48 -63.88c-7.23,-10.97 7.98,-22.28 16.12,-11.12l41.2 58.06 39.88 -58.08c7.77,-11.44 25.46,0.07 17.7,11.16l-45.29 64.37 45.35 65.55z"/>
   <path class="fil0" d="M509.18 493.98l-120.93 0c1.64,15.73 8.32,28.71 20.02,38.96 11.71,10.24 25.52,15.27 41.43,15.08 24.69,-0.36 42.34,-11.79 52.94,-34.29 7.23,-18.11 27.06,-9.01 20.38,4.87 -6.83,14.18 -15.25,26.28 -27.78,35.18 -13.9,9.88 -29.36,14.91 -46.37,15.09 -21.39,0.37 -40.32,-7.45 -56.78,-23.45 -16.46,-16.01 -24.87,-35.07 -25.24,-57.2 -0.55,-23.41 7.73,-43.57 24.83,-60.49 17.1,-16.92 37.26,-24.74 60.49,-23.46 20.85,1.28 38.95,9.88 54.31,25.79 12.19,12.94 19.37,27.13 21.53,42.55 1.24,6.69 -1.33,21.5 -18.83,21.37zm-1.05 -19.2c-2.93,-14.63 -9.78,-26.48 -20.58,-35.53 -10.79,-9.05 -23.68,-13.67 -38.68,-13.85 -14.99,-0.18 -28.11,4.3 -39.36,13.44 -11.25,9.14 -18.34,21.12 -21.26,35.94l119.88 0z"/>
   <path class="fil0" d="M350.38 487.01c0,22.46 -7.48,41.85 -24.09,58.19 -16.62,16.34 -36.15,24.14 -58.61,23.41 -21.72,-0.54 -40.11,-8.76 -55.18,-24.64 -15.06,-15.88 -22.59,-34.78 -22.59,-56.69 0,-22.82 8.13,-42.4 24.33,-58.74 16.2,-16.33 35.51,-24.14 57.92,-23.41 23,0.91 42.12,10.13 57.41,27.66l0 -68.6 0.01 0c0,-5.74 4.66,-10.39 10.4,-10.39 5.74,0 10.39,4.65 10.39,10.39l0.01 0 0 122.82zm-20.81 -1.64c-0.36,-16.53 -6.16,-30.63 -17.43,-42.36 -11.23,-11.73 -24.92,-17.61 -41.03,-17.61 -16.48,-0.19 -30.63,5.65 -42.4,17.48 -11.82,11.82 -17.8,26.06 -17.99,42.76 -0.18,16.48 5.3,30.94 16.48,43.31 11.14,12.37 24.78,18.85 40.89,19.4 17.21,0.91 31.91,-5.07 44.05,-17.89 12.18,-12.83 17.98,-27.89 17.43,-45.09z"/>
   <circle class="fil1" cx="15.28" cy="369.87" r="15.28"/>
   <path class="fil1" d="M798.93 487.18c0,22.37 -8.14,41.69 -24.41,57.97 -16.28,16.27 -35.6,24.05 -57.97,23.32 -21.64,-0.54 -39.96,-8.73 -54.96,-24.55 -15,-15.82 -22.5,-34.64 -22.5,-56.46 0,-22.73 8.09,-42.24 24.27,-58.51 16.19,-16.28 35.46,-24.05 57.83,-23.32 21.64,0.72 40.01,9.04 55.1,24.95 15.1,15.92 22.64,34.78 22.64,56.6zm-20.73 -1.63c-0.54,-16.46 -6.41,-30.51 -17.64,-42.19 -11.18,-11.68 -24.73,-17.55 -40.6,-17.55 -16.59,-0.18 -30.73,5.64 -42.37,17.41 -11.68,11.78 -17.59,25.96 -17.77,42.6 -0.37,16.41 5,30.82 16.14,43.14 11.09,12.33 24.68,18.78 40.73,19.33 17.14,0.91 31.78,-5.05 43.87,-17.82 12.14,-12.78 18.01,-27.78 17.64,-44.92z"/>
  </g>
  <path class="fil2" d="M420.14 35.73l0.1 38.3c11.98,0.45 22.42,7.02 28.24,16.68 1.13,-0.11 2.27,-0.17 3.42,-0.18 12.59,-0.03 23.62,6.69 29.66,16.75 1.17,-0.12 2.36,-0.19 3.56,-0.19 19.02,-0.05 34.49,15.34 34.54,34.36 0.05,18.99 0.11,37.98 0.16,56.97 0.14,53.33 -42.99,96.68 -96.32,96.82 -27.4,0.08 -53.38,-11.38 -71.77,-31.68 -1.83,-2.01 -3.56,-4.09 -5.22,-6.25l-56.64 -68.26c-0.6,-0.55 -1.18,-1.12 -1.73,-1.71 -12.58,-13.33 -11.49,-33.19 0.04,-46.78 3.15,-3.71 7.04,-6.64 11.5,-8.59 16.28,-7.1 35.07,0.6 51.84,11.23l-0.29 -107.29c-0.02,-0.44 -0.03,-0.89 -0.03,-1.34 -0.05,-19.03 15.36,-34.52 34.39,-34.57 19.04,-0.05 34.52,15.35 34.57,34.39 0,0.45 0,0.89 -0.02,1.34zm-34.5 -17.84c9.16,-0.03 16.61,7.38 16.64,16.55 0,0.31 -0.01,0.62 -0.03,0.93l0.19 71.3c0.9,-8.29 7.92,-14.76 16.45,-14.78 9.16,-0.02 16.61,7.39 16.64,16.55 0,0.32 -0.01,0.63 -0.03,0.94l0.04 13.48c1.05,-8.13 7.99,-14.42 16.41,-14.44 9.16,-0.02 16.61,7.38 16.64,16.55 0,0.31 -0.01,0.62 -0.03,0.93 0.02,3.73 0.06,10.57 0.07,13.85 0.02,2.72 -0.08,1.78 0.11,0.02 0.88,-8.3 7.89,-14.77 16.43,-14.8 9.15,-0.02 16.58,7.38 16.61,16.53 0.05,18.99 0.1,37.98 0.15,56.97 0.12,43.45 -35.02,78.77 -78.48,78.89 -23.17,0.06 -44.03,-9.91 -58.47,-25.81 -1.57,-1.76 -3.04,-3.5 -4.46,-5.38l-57.8 -69.64c-0.55,-0.45 -1.07,-0.93 -1.57,-1.46 -6.15,-6.52 -5.13,-16.1 0.67,-22.93 14.58,-17.18 51.75,14.13 67.68,26.41l-0.38 -143.09c-0.02,-0.31 -0.03,-0.62 -0.03,-0.94 -0.02,-9.16 7.38,-16.61 16.55,-16.63z"/>
 </g>
</svg>
