<?xml version="1.0" encoding="UTF-8"?>
<!DOCTYPE svg PUBLIC "-//W3C//DTD SVG 1.1//EN" "http://www.w3.org/Graphics/SVG/1.1/DTD/svg11.dtd">

<svg xmlns="http://www.w3.org/2000/svg" xml:space="preserve" width="500px" height="356px" version="1.1" style="shape-rendering:geometricPrecision; text-rendering:geometricPrecision; image-rendering:optimizeQuality; fill-rule:evenodd; clip-rule:evenodd"
viewBox="0 0 497.27 354.08"
 xmlns:xlink="http://www.w3.org/1999/xlink">
 <defs>
  <style type="text/css">
   <![CDATA[
    .fil2 {fill:#3880FF}
    .fil1 {fill:#424242}
    .fil0 {fill:#424242;fill-rule:nonzero}
   ]]>
  </style>
 </defs>
 <g id="Layer_x0020_1">

  <g id="_2505180040016">
   <path class="fil0" d="M16.12 347.1l0 -87.55c0,-0.11 0.01,-0.23 0.01,-0.35 0,-3.58 -2.97,-6.49 -6.62,-6.49 -3.66,0 -6.62,2.91 -6.62,6.49 0,0.12 0,0.24 0.01,0.35l0 87.55c-0.01,0.11 -0.01,0.23 -0.01,0.34 0,3.59 2.96,6.5 6.62,6.5 3.65,0 6.62,-2.91 6.62,-6.5 0,-0.11 -0.01,-0.23 -0.01,-0.34z"/>
   <path class="fil0" d="M108.33 347.81l-0.01 0c0,3.42 -2.78,6.19 -6.2,6.19 -3.42,0 -6.19,-2.77 -6.19,-6.19l-0.01 0 0 -54.36c0,-7.84 -2.88,-14.58 -8.62,-20.24 -5.74,-5.66 -12.44,-8.49 -20.11,-8.49 -7.78,0 -14.53,2.83 -20.27,8.49 -5.74,5.66 -8.62,12.4 -8.62,20.24l0 53.9c0.01,0.15 0.02,0.3 0.02,0.46 0,3.43 -2.79,6.22 -6.22,6.22 -3.44,0 -6.22,-2.79 -6.22,-6.22 0,-0.16 0,-0.31 0.01,-0.46l0 -52.59c0,-12.08 3.92,-22.12 11.76,-30.12 7.83,-8 17.68,-12 29.54,-12 11.75,0 21.55,4 29.38,12 7.84,8 11.76,18.04 11.76,30.12l0 53.05z"/>
   <path class="fil0" d="M399.07 342.27c7.35,9.15 -5.35,15.83 -10.46,8.54l-25.53 -39 -25.33 39c-4.77,7.24 -16.96,0.91 -9.91,-8.19l27.37 -41.47 -27.69 -39.76c-4.5,-6.83 4.97,-13.87 10.03,-6.92l25.65 36.13 24.82 -36.14c4.83,-7.12 15.85,0.04 11.01,6.94l-28.19 40.06 28.23 40.81z"/>
   <path class="fil0" d="M316.92 307.46l-75.27 0c1.03,9.79 5.18,17.87 12.47,24.25 7.28,6.37 15.87,9.5 25.78,9.39 15.37,-0.23 26.35,-7.34 32.95,-21.35 4.5,-11.27 16.84,-5.6 12.68,3.03 -4.25,8.83 -9.49,16.36 -17.29,21.9 -8.65,6.15 -18.27,9.28 -28.85,9.39 -13.32,0.23 -25.1,-4.63 -35.35,-14.59 -10.24,-9.96 -15.48,-21.83 -15.71,-35.61 -0.34,-14.57 4.81,-27.12 15.46,-37.65 10.64,-10.52 23.19,-15.39 37.65,-14.59 12.97,0.79 24.24,6.14 33.8,16.05 7.59,8.05 12.06,16.88 13.4,26.48 0.77,4.17 -0.82,13.38 -11.72,13.3zm-0.65 -11.95c-1.82,-9.11 -6.09,-16.48 -12.81,-22.11 -6.71,-5.64 -14.74,-8.51 -24.07,-8.63 -9.34,-0.11 -17.51,2.68 -24.51,8.37 -7,5.69 -11.41,13.15 -13.23,22.37l74.62 0z"/>
   <path class="fil0" d="M218.08 303.12c0,13.98 -4.66,26.05 -15,36.22 -10.34,10.17 -22.49,15.03 -36.47,14.57 -13.52,-0.34 -24.97,-5.45 -34.34,-15.34 -9.38,-9.88 -14.07,-21.64 -14.07,-35.28 0,-14.2 5.06,-26.39 15.15,-36.56 10.08,-10.17 22.1,-15.03 36.04,-14.57 14.32,0.57 26.22,6.31 35.74,17.21l0 -42.69 0.01 0c0,-3.58 2.89,-6.47 6.47,-6.47 3.57,0 6.47,2.89 6.47,6.47l0 0 0 76.44zm-12.95 -1.02c-0.23,-10.28 -3.83,-19.06 -10.85,-26.36 -6.99,-7.3 -15.51,-10.97 -25.54,-10.97 -10.25,-0.11 -19.06,3.52 -26.39,10.88 -7.36,7.36 -11.08,16.22 -11.19,26.62 -0.12,10.25 3.29,19.26 10.25,26.96 6.93,7.7 15.43,11.73 25.46,12.07 10.71,0.57 19.85,-3.15 27.41,-11.14 7.58,-7.98 11.19,-17.35 10.85,-28.06z"/>
   <circle class="fil1" cx="9.51" cy="230.21" r="9.51"/>
   <path class="fil1" d="M497.27 303.23c0,13.92 -5.07,25.95 -15.2,36.08 -10.13,10.13 -22.15,14.97 -36.08,14.51 -13.47,-0.34 -24.87,-5.43 -34.21,-15.28 -9.33,-9.84 -14,-21.56 -14,-35.14 0,-14.15 5.03,-26.29 15.11,-36.42 10.07,-10.13 22.07,-14.97 35.99,-14.51 13.47,0.45 24.9,5.63 34.3,15.53 9.39,9.91 14.09,21.65 14.09,35.23zm-12.91 -1.02c-0.34,-10.24 -3.99,-18.99 -10.98,-26.26 -6.96,-7.27 -15.39,-10.92 -25.26,-10.92 -10.33,-0.11 -19.13,3.51 -26.38,10.84 -7.27,7.33 -10.95,16.16 -11.06,26.51 -0.23,10.22 3.11,19.19 10.05,26.85 6.9,7.67 15.36,11.69 25.35,12.03 10.67,0.57 19.78,-3.14 27.3,-11.09 7.56,-7.95 11.21,-17.29 10.98,-27.96z"/>
  </g>
  <path class="fil2" d="M261.5 22.24l0.06 23.84c7.46,0.27 13.95,4.37 17.58,10.38 0.7,-0.07 1.41,-0.11 2.13,-0.11 7.83,-0.02 14.7,4.16 18.46,10.42 0.73,-0.07 1.47,-0.12 2.21,-0.12 11.84,-0.03 21.48,9.55 21.51,21.39 0.03,11.82 0.06,23.64 0.09,35.46 0.09,33.19 -26.75,60.18 -59.95,60.26 -17.05,0.05 -33.22,-7.08 -44.67,-19.72 -1.14,-1.25 -2.22,-2.54 -3.24,-3.89l-35.26 -42.48c-0.37,-0.34 -0.73,-0.7 -1.08,-1.07 -7.82,-8.29 -7.15,-20.65 0.03,-29.11 1.96,-2.31 4.38,-4.14 7.16,-5.35 10.13,-4.42 21.82,0.37 32.26,6.99l-0.18 -66.78c-0.01,-0.28 -0.02,-0.55 -0.02,-0.83 -0.03,-11.85 9.56,-21.49 21.41,-21.52 11.85,-0.03 21.48,9.56 21.52,21.4 0,0.28 -0.01,0.56 -0.02,0.84zm-21.47 -11.11c5.7,-0.01 10.34,4.6 10.35,10.3 0,0.2 0,0.39 -0.01,0.58l0.11 44.38c0.57,-5.16 4.93,-9.18 10.24,-9.2 5.71,-0.01 10.34,4.6 10.36,10.31 0,0.19 -0.01,0.38 -0.02,0.58l0.03 8.39c0.65,-5.06 4.97,-8.97 10.21,-8.99 5.7,-0.01 10.34,4.6 10.35,10.3 0,0.2 0,0.39 -0.01,0.58 0.01,2.33 0.03,6.58 0.04,8.62 0.01,1.69 -0.05,1.11 0.07,0.01 0.55,-5.16 4.91,-9.19 10.22,-9.2 5.7,-0.02 10.33,4.59 10.34,10.28 0.03,11.82 0.07,23.64 0.1,35.46 0.07,27.04 -21.8,49.03 -48.85,49.1 -14.42,0.04 -27.4,-6.16 -36.39,-16.06 -0.98,-1.09 -1.89,-2.18 -2.78,-3.35l-35.97 -43.35c-0.34,-0.27 -0.67,-0.58 -0.98,-0.91 -3.83,-4.05 -3.19,-10.02 0.42,-14.27 9.07,-10.69 32.21,8.8 42.12,16.44l-0.24 -89.06c-0.01,-0.19 -0.01,-0.39 -0.01,-0.58 -0.02,-5.71 4.59,-10.34 10.3,-10.36z"/>
  <path class="fil0" d="M494.46 236.99c-1.84,1.86 -4.18,2.8 -7.02,2.8 -2.85,0 -5.19,-0.94 -7.03,-2.8 -1.84,-1.87 -2.76,-4.2 -2.76,-6.99 0,-2.77 0.92,-5.09 2.78,-6.97 1.85,-1.88 4.19,-2.82 7.01,-2.82 2.84,0 5.18,0.94 7.02,2.82 1.84,1.88 2.76,4.2 2.76,6.97 0,2.79 -0.92,5.12 -2.76,6.99zm-12.1 -1.78c1.28,1.34 2.97,2.02 5.08,2.02 2.1,0 3.79,-0.68 5.07,-2.02 1.29,-1.35 1.93,-3.09 1.93,-5.21 0,-2.13 -0.64,-3.86 -1.93,-5.21 -1.28,-1.35 -2.97,-2.02 -5.07,-2.02 -2.11,0 -3.8,0.67 -5.08,2.02 -1.29,1.35 -1.93,3.08 -1.93,5.21 0,2.12 0.64,3.86 1.93,5.21z"/>
  <path class="fil0" d="M491.74 234.82l-2.78 0 -1.3 -2.78c-0.3,0.02 -0.47,0.03 -0.52,0.03l-0.89 0 0 2.75 -2.45 0 0 -9.6 3.67 0c1.36,0 2.39,0.31 3.1,0.92 0.7,0.62 1.05,1.45 1.05,2.49 0,1.36 -0.54,2.33 -1.63,2.93l1.75 3.26zm-4.01 -7.31l-1.48 0 0 2.27 1.48 0c0.92,0 1.37,-0.39 1.37,-1.15 0,-0.74 -0.45,-1.12 -1.37,-1.12z"/>
 </g>
</svg>
