<?xml version="1.0" encoding="UTF-8"?>
<!DOCTYPE svg PUBLIC "-//W3C//DTD SVG 1.1//EN" "http://www.w3.org/Graphics/SVG/1.1/DTD/svg11.dtd">
<svg xmlns="http://www.w3.org/2000/svg" xml:space="preserve" width="2198px" height="1675px" version="1.1" style="shape-rendering:geometricPrecision; text-rendering:geometricPrecision; image-rendering:optimizeQuality; fill-rule:evenodd; clip-rule:evenodd"
viewBox="0 0 2413.55 1839.76"
 xmlns:xlink="http://www.w3.org/1999/xlink">
 <defs>
  <style type="text/css">
   <![CDATA[
    .fil4 {fill:#EBEBEB}
    .fil11 {fill:#FEFEFE;fill-rule:nonzero}
    .fil9 {fill:#263138;fill-rule:nonzero}
    .fil6 {fill:#3880FF;fill-rule:nonzero}
    .fil1 {fill:#DFDFDF;fill-rule:nonzero}
    .fil8 {fill:#EB996E;fill-rule:nonzero}
    .fil2 {fill:#EBEBEB;fill-rule:nonzero}
    .fil0 {fill:#F4F4F4;fill-rule:nonzero}
    .fil3 {fill:#F9F9F9;fill-rule:nonzero}
    .fil7 {fill:#FFBD9C;fill-rule:nonzero}
    .fil5 {fill:white;fill-rule:nonzero}
    .fil10 {fill:black;fill-rule:nonzero;fill-opacity:0.200000}
   ]]>
  </style>
 </defs>
 <g id="Capa_x0020_1">
  <g id="_2401356234720">
   <polygon class="fil0" points="1264.78,1839.76 97.04,1839.76 97.04,1080.38 1264.78,1080.38 "/>
   <path class="fil1" d="M839.81 1427.96c0,87.76 -71.14,158.9 -158.9,158.9 -87.76,0 -158.9,-71.14 -158.9,-158.9 0,-87.76 71.14,-158.9 158.9,-158.9 87.76,0 158.9,71.14 158.9,158.9z"/>
   <polygon class="fil0" points="734.31,1427.96 692.82,1451.92 651.32,1475.88 651.32,1427.96 651.32,1380.05 692.82,1404 "/>
   <polygon class="fil1" points="1264.78,1839.76 97.04,1839.76 97.04,1703.34 1264.78,1703.34 "/>
   <polygon class="fil0" points="210.52,1771.55 193.68,1781.27 176.84,1791 176.84,1771.55 176.84,1752.11 193.68,1761.83 "/>
   <polygon class="fil0" points="1168.68,1774.64 307.31,1774.64 307.31,1768.46 1168.68,1768.46 "/>
   <path class="fil0" d="M324.75 1771.55c0,7.09 -5.75,12.84 -12.84,12.84 -7.09,0 -12.84,-5.75 -12.84,-12.84 0,-7.09 5.75,-12.84 12.84,-12.84 7.09,0 12.84,5.75 12.84,12.84z"/>
   <path class="fil0" d="M2383.29 1208.35l-1005.98 0c-16.71,0 -30.26,-13.55 -30.26,-30.26l0 -900.61c0,-16.72 13.55,-30.26 30.26,-30.26l1005.98 0c16.71,0 30.26,13.54 30.26,30.26l0 900.61c0,16.71 -13.55,30.26 -30.26,30.26z"/>
   <path class="fil2" d="M2413.55 354.53l-1066.5 0 0 -71.97c0,-19.52 15.83,-35.34 35.35,-35.34l995.8 0c19.52,0 35.35,15.82 35.35,35.34l0 71.97z"/>
   <path class="fil3" d="M1420.54 301.05c0,4.65 -3.76,8.42 -8.41,8.42 -4.64,0 -8.41,-3.77 -8.41,-8.42 0,-4.64 3.77,-8.41 8.41,-8.41 4.65,0 8.41,3.77 8.41,8.41z"/>
   <path class="fil3" d="M1471.02 301.05c0,4.65 -3.77,8.42 -8.41,8.42 -4.65,0 -8.42,-3.77 -8.42,-8.42 0,-4.64 3.77,-8.41 8.42,-8.41 4.64,0 8.41,3.77 8.41,8.41z"/>
   <path class="fil3" d="M1521.49 301.05c0,4.65 -3.76,8.42 -8.41,8.42 -4.64,0 -8.41,-3.77 -8.41,-8.42 0,-4.64 3.77,-8.41 8.41,-8.41 4.65,0 8.41,3.77 8.41,8.41z"/>
   <polygon class="fil3" points="2285.31,455.63 1882.59,455.63 1882.59,441.05 2285.31,441.05 "/>
   <polygon class="fil3" points="2285.31,515.61 1882.59,515.61 1882.59,501.03 2285.31,501.03 "/>
   <polygon class="fil3" points="2285.31,575.59 1882.59,575.59 1882.59,561.01 2285.31,561.01 "/>
   <polygon class="fil3" points="2285.31,635.56 1882.59,635.56 1882.59,620.99 2285.31,620.99 "/>
   <polygon class="fil3" points="2083.95,695.54 1882.59,695.54 1882.59,680.97 2083.95,680.97 "/>
   <polygon class="fil3" points="1454.86,813.51 1857.57,813.51 1857.57,798.94 1454.86,798.94 "/>
   <polygon class="fil3" points="1454.86,873.49 1857.57,873.49 1857.57,858.92 1454.86,858.92 "/>
   <polygon class="fil3" points="1454.86,933.47 1857.57,933.47 1857.57,918.89 1454.86,918.89 "/>
   <polygon class="fil3" points="1454.86,993.45 1857.57,993.45 1857.57,978.87 1454.86,978.87 "/>
   <polygon class="fil3" points="1656.22,1053.43 1857.57,1053.43 1857.57,1038.85 1656.22,1038.85 "/>
   <polygon class="fil3" points="2271.76,1069.55 1927.15,1069.55 1927.15,782.82 2271.76,782.82 "/>
   <polygon class="fil2" points="1926.56,982.96 2028.39,911.6 2099.45,960.76 2211.21,866.2 2271.76,926.18 2271.76,1069.55 1927.15,1069.55 "/>
   <path class="fil2" d="M2134.27 866.2c0,15.95 -12.92,28.87 -28.86,28.87 -15.94,0 -28.87,-12.92 -28.87,-28.87 0,-15.94 12.93,-28.86 28.87,-28.86 15.94,0 28.86,12.92 28.86,28.86z"/>
   <polygon class="fil3" points="1799.47,718.95 1454.86,718.95 1454.86,432.22 1799.47,432.22 "/>
   <polygon class="fil2" points="1454.27,632.36 1556.11,561.01 1627.17,610.17 1738.92,515.61 1799.47,575.59 1799.47,718.95 1454.86,718.95 "/>
   <path class="fil2" d="M1661.99 515.61c0,15.94 -12.93,28.86 -28.87,28.86 -15.94,0 -28.86,-12.92 -28.86,-28.86 0,-15.94 12.92,-28.87 28.86,-28.87 15.94,0 28.87,12.93 28.87,28.87z"/>
   <path class="fil0" d="M1159.49 640.84l-1135.84 0c-13.06,0 -23.65,-10.59 -23.65,-23.65l0 -617.19 1183.14 0 0 617.19c0,13.06 -10.59,23.65 -23.65,23.65z"/>
   <polygon class="fil2" points="1183.14,119.05 0,119.05 0,0 1183.14,0 "/>
   <path class="fil3" d="M81.53 59.72c0,5.16 -4.18,9.34 -9.33,9.34 -5.16,0 -9.34,-4.18 -9.34,-9.34 0,-5.15 4.18,-9.33 9.34,-9.33 5.15,0 9.33,4.18 9.33,9.33z"/>
   <path class="fil3" d="M137.52 59.72c0,5.16 -4.17,9.34 -9.33,9.34 -5.15,0 -9.33,-4.18 -9.33,-9.34 0,-5.15 4.18,-9.33 9.33,-9.33 5.16,0 9.33,4.18 9.33,9.33z"/>
   <path class="fil3" d="M193.52 59.72c0,5.16 -4.18,9.34 -9.33,9.34 -5.16,0 -9.33,-4.18 -9.33,-9.34 0,-5.15 4.17,-9.33 9.33,-9.33 5.15,0 9.33,4.18 9.33,9.33z"/>
   <polygon class="fil2" points="1040.88,231.21 594.12,231.21 594.12,215.03 1040.88,215.03 "/>
   <polygon class="fil2" points="1040.88,297.74 594.12,297.74 594.12,281.57 1040.88,281.57 "/>
   <polygon class="fil2" points="1040.88,364.28 594.12,364.28 594.12,348.11 1040.88,348.11 "/>
   <polygon class="fil2" points="1040.88,430.82 594.12,430.82 594.12,414.65 1040.88,414.65 "/>
   <polygon class="fil2" points="817.5,497.36 594.12,497.36 594.12,481.19 817.5,481.19 "/>
   <path class="fil4" d="M272.98 236.33l0.11 41.03c12.84,0.48 24.01,7.52 30.25,17.87 1.21,-0.12 2.43,-0.19 3.67,-0.19 13.48,-0.03 25.3,7.16 31.78,17.94 1.25,-0.13 2.52,-0.2 3.8,-0.2 20.38,-0.06 36.95,16.43 37.01,36.81 0.05,20.34 0.11,40.68 0.16,61.02 0.15,57.13 -46.05,103.58 -103.18,103.73 -29.35,0.08 -57.18,-12.2 -76.89,-33.94 -1.95,-2.16 -3.81,-4.39 -5.58,-6.7l-60.68 -73.12c-0.64,-0.59 -1.26,-1.2 -1.86,-1.83 -13.46,-14.28 -12.31,-35.56 0.05,-50.11 3.38,-3.98 7.54,-7.12 12.32,-9.21 17.44,-7.6 37.57,0.65 55.53,12.03l-0.3 -114.93c-0.02,-0.48 -0.04,-0.96 -0.04,-1.44 -0.05,-20.39 16.45,-36.98 36.84,-37.03 20.39,-0.06 36.98,16.44 37.04,36.84 0,0.47 -0.01,0.95 -0.03,1.43zm-36.96 -19.11c9.82,-0.03 17.8,7.91 17.83,17.73 0,0.33 -0.01,0.66 -0.03,0.99l0.2 76.38c0.97,-8.88 8.48,-15.8 17.62,-15.82 9.82,-0.03 17.8,7.91 17.83,17.72 0,0.34 -0.01,0.67 -0.03,1.01l0.04 14.44c1.13,-8.71 8.56,-15.44 17.58,-15.47 9.82,-0.02 17.79,7.91 17.82,17.73 0,0.33 -0.01,0.67 -0.03,1 0.03,4 0.06,11.32 0.08,14.83 0.02,2.91 -0.09,1.91 0.11,0.02 0.95,-8.89 8.46,-15.82 17.6,-15.84 9.81,-0.03 17.77,7.9 17.8,17.7 0.05,20.34 0.11,40.68 0.16,61.02 0.12,46.55 -37.52,84.39 -84.07,84.52 -24.82,0.06 -47.17,-10.61 -62.64,-27.65 -1.68,-1.88 -3.26,-3.75 -4.78,-5.76l-61.91 -74.6c-0.59,-0.48 -1.15,-1 -1.69,-1.57 -6.58,-6.98 -5.49,-17.25 0.72,-24.57 15.62,-18.4 55.44,15.15 72.5,28.3l-0.4 -153.29c-0.02,-0.33 -0.03,-0.66 -0.04,-1 -0.02,-9.82 7.92,-17.8 17.73,-17.82z"/>
  </g>
  <g id="_2401356217312">
   <path class="fil5" d="M1898.86 1217.13l-1180.92 0c-60.13,0 -108.87,-48.74 -108.87,-108.86l0 -11.94c0,-60.12 48.74,-108.86 108.87,-108.86l1180.92 0c60.13,0 108.87,48.74 108.87,108.86l0 11.94c0,60.12 -48.74,108.86 -108.87,108.86z"/>
   <path class="fil6" d="M1697.85 985.38l0 231.75 195.4 0c64,0 115.88,-51.88 115.88,-115.87 0,-64 -51.88,-115.88 -115.88,-115.88l-195.4 0z"/>
   <polygon class="fil2" points="1597.08,1129.94 742.07,1129.94 742.07,1080.79 1597.08,1080.79 "/>
   <path class="fil7" d="M1192.92 1074.35c4.16,-4.86 4.58,-8.96 -4.78,-9.8 -20.65,-1.86 -35.86,-10.87 -38.26,-16.09 -2.4,-5.22 4.15,-10.32 9.74,-7.18 4.53,2.54 13.39,4.49 20.11,5.69 5.54,0.99 11.21,1.1 16.75,0.23 4.81,-0.76 9.03,-1.57 12.82,-2.37 0,0 21.85,-4.71 31.28,-12.07l46.21 49.39 -21.68 24.49c0,0 -10.34,15.47 -28.94,13.64 -18.59,-1.84 -43.6,-15.18 -43.6,-15.18 -3.38,-5.19 -33.32,13.27 -42.96,20.19 -9.52,6.84 -16.77,5.18 -16.4,-1.48 0.25,-4.53 29.25,-26.43 38.95,-33.05 5.3,-3.63 15.75,-10.56 20.76,-16.41z"/>
   <path class="fil8" d="M1220.08 1117.26c-0.05,0.28 1.33,0.87 3.72,0.8 2.37,-0.04 5.68,-0.98 8.61,-3.19 2.92,-2.21 4.72,-5.15 5.41,-7.41 0.71,-2.28 0.52,-3.77 0.24,-3.8 -0.66,-0.15 -1.79,5.44 -7.09,9.31 -5.17,4.04 -10.86,3.61 -10.89,4.29z"/>
   <path class="fil8" d="M1201.77 1110.04c-0.03,0.29 1.32,0.79 3.59,0.65 2.26,-0.13 5.4,-1.11 8.17,-3.25 2.77,-2.16 4.48,-4.96 5.16,-7.12 0.7,-2.17 0.55,-3.6 0.26,-3.64 -0.66,-0.16 -1.89,5.11 -6.88,8.87 -4.88,3.92 -10.29,3.81 -10.3,4.49z"/>
   <path class="fil9" d="M1151.95 596.35c-1.93,40.55 -51.39,96.1 -88.17,105.09 -19.34,4.72 -41.6,2.5 -56.92,15.49 -26.28,22.28 -10.91,68.47 -28.63,98.36 -10.9,18.38 -32.54,27.39 -44.8,44.84 -20.37,29 -6.7,72.83 21.1,94.43 27.8,21.6 64.82,25.72 99.66,24.82 76.63,-1.98 155.1,-26.33 210.49,-80.65 26.02,-25.51 127.84,-104.3 92.33,-291.02l-205.06 -11.36z"/>
   <path class="fil6" d="M1596.79 984.3c-62.1,27.37 -319.32,140.6 -317.81,137.67 1.71,-3.34 -52.87,-99.69 -52.87,-99.69l71.87 -35.51 -247.73 0.93c0,-0.06 0,-0.11 0,-0.17l-162.57 0.37c-25.13,0 -45.51,-23.14 -45.51,-51.67 0,-23.15 13.56,-43.47 33.19,-49.74l291.36 -86.49c24.14,-10.26 42.43,-12.78 42.43,-12.78l98.36 0.66c13.36,0 25.94,2.88 37.73,7.89l265.21 88.09c19.62,6.21 33.18,26.34 33.18,49.27 0,28.26 -20.37,51.17 -45.51,51.17l-1.33 0z"/>
   <path class="fil9" d="M1457.37 907.99c-0.07,-0.15 -2.51,0.88 -6.86,2.87 -4.7,2.22 -10.87,5.13 -18.32,8.64 -15.43,7.38 -36.66,17.73 -60.05,29.29 -23.41,11.56 -44.53,22.15 -59.77,29.92 -7.31,3.79 -13.37,6.93 -17.99,9.32 -4.23,2.25 -6.53,3.56 -6.46,3.71 0.07,0.15 2.51,-0.88 6.85,-2.87 4.71,-2.22 10.87,-5.13 18.32,-8.63 15.43,-7.39 36.67,-17.74 60.07,-29.3 23.4,-11.57 44.52,-22.15 59.76,-29.93 7.32,-3.78 13.38,-6.92 17.99,-9.31 4.23,-2.25 6.53,-3.56 6.46,-3.71z"/>
   <path class="fil10" d="M1201.85 786.61c5.51,15.4 -2.76,31.99 -10.78,46.25 -5.58,9.91 -11.26,19.97 -19.31,28.02 -8.04,8.04 -18.9,13.97 -30.27,13.6 -14.95,-0.49 -28.33,-11.53 -43.26,-10.67 -10.16,0.59 -19.08,6.59 -27.51,12.28 -14.61,9.87 -29.59,19.51 -46.15,25.57 -16.56,6.06 -35,8.34 -51.88,3.26 -16.88,-5.09 -31.8,-18.4 -35.9,-35.55l265.06 -82.76z"/>
   <path class="fil7" d="M1200.6 782.36c-0.77,-17.92 -1.73,-34.15 -1.73,-34.15 0,0 -40.06,-5.05 -41.79,-45.93 -1.73,-40.9 2.34,-135.05 2.34,-135.05l73.73 -35.4 79.33 63.9 -12.44 187.79c-1.8,27.05 -24.91,47.7 -51.99,46.45 -25.76,-1.19 -46.35,-21.85 -47.45,-47.61z"/>
   <path class="fil9" d="M1166.33 641.17c-0.05,2.89 2.19,5.26 5.01,5.31 2.81,0.05 5.13,-2.25 5.18,-5.13 0.05,-2.89 -2.19,-5.27 -5,-5.32 -2.82,-0.05 -5.14,2.25 -5.19,5.14z"/>
   <path class="fil9" d="M1161.39 630.25c0.64,0.68 4.46,-2.53 9.95,-2.74 5.48,-0.29 9.56,2.57 10.14,1.83 0.29,-0.33 -0.37,-1.59 -2.15,-2.89 -1.75,-1.29 -4.71,-2.5 -8.13,-2.34 -3.42,0.15 -6.28,1.62 -7.91,3.07 -1.67,1.45 -2.22,2.76 -1.9,3.07z"/>
   <path class="fil9" d="M1227.12 641.17c-0.05,2.89 2.19,5.26 5.01,5.31 2.81,0.05 5.13,-2.25 5.18,-5.13 0.05,-2.89 -2.19,-5.27 -5,-5.32 -2.81,-0.05 -5.14,2.25 -5.19,5.14z"/>
   <path class="fil9" d="M1222.18 631.3c0.64,0.69 4.46,-2.53 9.95,-2.74 5.48,-0.28 9.56,2.58 10.14,1.83 0.29,-0.33 -0.37,-1.59 -2.15,-2.88 -1.75,-1.3 -4.71,-2.5 -8.13,-2.35 -3.42,0.16 -6.28,1.62 -7.91,3.07 -1.66,1.45 -2.22,2.77 -1.9,3.07z"/>
   <path class="fil9" d="M1201.57 678.5c0.02,-0.34 -3.4,-0.83 -8.95,-1.37 -1.4,-0.09 -2.73,-0.34 -2.99,-1.35 -0.34,-1.08 0.22,-2.72 0.87,-4.49 1.26,-3.69 2.58,-7.55 3.97,-11.6 5.5,-16.51 9.46,-30.06 8.84,-30.27 -0.62,-0.22 -5.58,12.98 -11.08,29.49 -1.32,4.07 -2.59,7.95 -3.79,11.66 -0.51,1.72 -1.39,3.7 -0.64,5.92 0.4,1.1 1.44,1.88 2.34,2.1 0.91,0.26 1.7,0.24 2.39,0.26 5.57,0.09 9.02,-0.02 9.04,-0.35z"/>
   <path class="fil8" d="M1198.87 748.21c0,0 26.79,0.77 53.04,-17.36 0,0 -12.47,29.78 -52.35,27.4l-0.69 -10.04z"/>
   <path class="fil9" d="M1355.5 636.03c0.14,35.39 9.41,128.96 -55.1,141.94l2.35 -128.88c0,0 -62.46,-29.45 -73.01,-90.79l-0.38 0.35c-4,9.26 -11.13,29.14 -6.8,45.34l-58.49 14.41 -6.73 6.16c0,0 -20.83,-45.64 19.36,-87.04 40.19,-41.4 74.52,-11.4 96.06,-13.98 14.33,-1.72 64.02,-1.39 84.25,84.17l-1.51 28.32z"/>
   <path class="fil7" d="M1301.14 650.53c5.46,-3.36 12.9,-0.59 17.23,4.13 6.81,7.43 7.99,19.44 2.77,28.06 -5.22,8.62 -16.42,13.12 -26.16,10.52l6.16 -42.71z"/>
   <path class="fil8" d="M1302.4 680.99c0.01,0.29 1.83,0.6 4.69,-0.17 2.72,-0.72 6.94,-2.9 8.55,-7.58 0.8,-2.27 0.64,-4.76 -0.24,-6.67 -0.86,-1.93 -2.24,-3.24 -3.48,-4.07 -2.58,-1.66 -4.54,-1.54 -4.56,-1.27 -0.1,0.36 1.6,0.87 3.53,2.6 1.94,1.65 3.82,5.02 2.5,8.64 -1.21,3.62 -4.5,5.71 -6.87,6.77 -2.43,1.09 -4.15,1.39 -4.12,1.75z"/>
   <path class="fil6" d="M1307.74 689.05c2.97,0.69 4.49,4.78 2.7,7.25 -1.79,2.46 -6.15,2.29 -7.73,-0.31 -1.59,-2.61 0.25,-6.56 3.27,-7.02l1.76 0.08z"/>
   <path class="fil9" d="M1199.59 775.28c-1.63,20.47 -11.13,40.22 -26.09,54.28 -14.97,14.07 -35.27,22.31 -55.8,22.67 -14.73,0.26 -30.27,-3.24 -43.72,2.78 -11.69,5.23 -19.22,16.57 -28.43,25.47 -21.62,20.91 -55.17,28.49 -83.68,18.93 -12.08,-4.06 -31.29,-12.75 -33.54,-25.29 -1.71,-9.56 9.97,-19.06 16.86,-25.91 6.89,-6.84 15.79,-11.24 24.58,-15.36 71.09,-33.4 147.41,-57.68 225.84,-61.83l3.98 4.26z"/>
   <polygon class="fil10" points="1454.86,917.4 1270.69,952.12 1291.97,986.77 1297.57,986.86 "/>
   <path class="fil7" d="M1189.21 987.9l0 -67.21c0,0 99.8,20.71 101.63,66.41l-101.63 0.8z"/>
   <path class="fil9" d="M933.75 917.99c0.01,0.08 0.92,0.03 2.64,-0.14 1.98,-0.22 4.46,-0.5 7.51,-0.85 6.5,-0.82 15.93,-1.87 27.59,-2.99 23.31,-2.27 55.65,-4.29 91.38,-3.84 35.75,0.49 68.03,3.35 91.27,6.23 11.63,1.43 21.03,2.72 27.5,3.72 3.04,0.42 5.51,0.77 7.48,1.04 1.72,0.22 2.63,0.29 2.64,0.21 0.02,-0.08 -0.86,-0.31 -2.55,-0.68 -1.95,-0.39 -4.41,-0.88 -7.41,-1.49 -6.44,-1.28 -15.81,-2.83 -27.44,-4.47 -23.24,-3.32 -55.59,-6.45 -91.46,-6.95 -35.84,-0.44 -68.27,1.85 -91.59,4.55 -11.66,1.34 -21.07,2.65 -27.54,3.75 -3.02,0.53 -5.49,0.96 -7.45,1.3 -1.7,0.32 -2.58,0.53 -2.57,0.61z"/>
   <path class="fil11" d="M1851.84 1120.66l48.45 46.7c1.83,1.76 1.89,4.68 0.12,6.52 -1.76,1.83 -4.68,1.89 -6.52,0.12l-48.64 -46.89c-9.46,7.84 -21.61,12.55 -34.86,12.55 -15.11,0 -28.79,-6.13 -38.69,-16.03 -9.91,-9.9 -16.03,-23.58 -16.03,-38.69 0,-15.11 6.12,-28.79 16.03,-38.69 9.9,-9.9 23.58,-16.03 38.69,-16.03 15.11,0 28.79,6.13 38.69,16.03 9.9,9.9 16.03,23.58 16.03,38.69 0,13.65 -5,26.13 -13.27,35.72zm-9.3 -67.87c-8.23,-8.23 -19.6,-13.32 -32.15,-13.32 -12.56,0 -23.93,5.09 -32.15,13.32 -8.23,8.23 -13.32,19.59 -13.32,32.15 0,12.56 5.09,23.93 13.32,32.15 8.22,8.23 19.59,13.32 32.15,13.32 12.55,0 23.92,-5.09 32.15,-13.32 8.23,-8.22 13.32,-19.59 13.32,-32.15 0,-12.56 -5.09,-23.92 -13.32,-32.15z"/>
  </g>
 </g>
</svg>
